<svg width="607" height="566" xmlns="http://www.w3.org/2000/svg" xmlns:xlink="http://www.w3.org/1999/xlink" overflow="hidden"><defs><clipPath id="clip0"><rect x="34" y="48" width="607" height="566"/></clipPath></defs><g clip-path="url(#clip0)" transform="translate(-34 -48)"><rect x="35.5001" y="49.5001" width="605" height="564" stroke="#D9D9D9" stroke-width="1.33333" stroke-miterlimit="8" fill="none"/><rect x="124.5" y="199.5" width="96" height="58" stroke="#000000" stroke-width="1.33333" stroke-miterlimit="8" fill="#FFFFFF"/><text font-family="Yu Gothic,Yu Gothic_MSFontService,sans-serif" font-weight="400" font-size="11" transform="translate(141.421 232)">Subscription</text><path d="M220.5 228.5 282.907 228.5" stroke="#000000" stroke-width="0.666667" stroke-miterlimit="8" fill="none" fill-rule="evenodd"/><text font-family="Yu Gothic,Yu Gothic_MSFontService,sans-serif" font-weight="400" font-size="11" transform="translate(270.764 228)">*</text><rect x="283.5" y="199.5" width="120" height="58" stroke="#000000" stroke-width="1.33333" stroke-miterlimit="8" fill="#FFFFFF"/><text font-family="Yu Gothic,Yu Gothic_MSFontService,sans-serif" font-weight="400" font-size="11" transform="translate(300.842 219)">Stream<tspan font-size="11" x="38.5" y="0">Analytics</tspan><tspan font-size="11" x="-8.57999" y="13">* Name</tspan><tspan font-size="11" x="2.08667" y="25">Number of Unit</tspan><tspan font-size="11" x="-72.7206" y="24">1</tspan></text><rect x="295.5" y="100.5" width="96" height="58" stroke="#000000" stroke-width="1.33333" stroke-miterlimit="8" fill="#FFFFFF"/><text font-family="Yu Gothic,Yu Gothic_MSFontService,sans-serif" font-weight="400" font-size="11" transform="translate(319.553 126)">Resource <tspan font-size="11" x="8.16666" y="13">Group</tspan></text><path d="M172.5 199.956 172.5 129.5 294.883 129.5" stroke="#000000" stroke-width="0.666667" stroke-miterlimit="8" fill="none" fill-rule="evenodd"/><text font-family="Yu Gothic,Yu Gothic_MSFontService,sans-serif" font-weight="400" font-size="11" transform="translate(161.358 191)">1<tspan font-size="11" x="109.738" y="-69">*</tspan></text><path d="M343.5 200.067 343.5 158.5" stroke="#000000" stroke-width="0.666667" stroke-miterlimit="8" fill="none" fill-rule="evenodd"/><text font-family="Yu Gothic,Yu Gothic_MSFontService,sans-serif" font-weight="400" font-size="11" transform="translate(333.768 169)">1<tspan font-size="11" x="17.857" y="31">*</tspan><tspan font-size="11" x="-124.185" y="-47">R1</tspan><tspan font-size="11" x="-90.5165" y="72">R202</tspan><tspan font-size="11" x="-21.1317" y="18">R203</tspan></text><path d="M0 0 51.2163 0 51.2163 100.48 69.1262 100.48" stroke="#000000" stroke-width="0.666667" stroke-miterlimit="8" fill="none" fill-rule="evenodd" transform="matrix(-1 1.22465e-16 1.22465e-16 1 282.626 371.5)"/><text font-family="Yu Gothic,Yu Gothic_MSFontService,sans-serif" font-weight="400" font-size="11" transform="translate(219.104 463)">1<tspan font-size="11" x="53.8214" y="-95">*</tspan><tspan font-size="11" x="8.56021" y="-96">R206</tspan></text><path d="M489.835 228.719 403.5 228.5" stroke="#000000" stroke-width="0.666667" stroke-miterlimit="8" fill="none" fill-rule="evenodd"/><text font-family="Yu Gothic,Yu Gothic_MSFontService,sans-serif" font-weight="400" font-size="11" transform="translate(409.477 222)">1<tspan font-size="11" x="-54.8027" y="206">R207</tspan></text><rect x="92.5001" y="350.5" width="120" height="57" stroke="#000000" stroke-width="1.33333" stroke-miterlimit="8" fill="#FFFFFF"/><text font-family="Yu Gothic,Yu Gothic_MSFontService,sans-serif" font-weight="400" font-size="11" transform="translate(139.611 369)">Input<tspan font-size="11" x="-37.58" y="13">*</tspan><tspan font-size="11" x="-29.58" y="13">SA</tspan><tspan font-size="11" x="-12.9133" y="13">Nam</tspan><tspan font-size="11" x="10.2533" y="13">e</tspan><tspan font-size="11" x="-37.58" y="25">* Name</tspan></text><rect x="470.5" y="350.5" width="120" height="57" stroke="#000000" stroke-width="1.33333" stroke-miterlimit="8" fill="#FFFFFF"/><text font-family="Yu Gothic,Yu Gothic_MSFontService,sans-serif" font-weight="400" font-size="11" transform="translate(512.736 369)">Output<tspan font-size="11" x="-33.3333" y="13">*</tspan><tspan font-size="11" x="-25.3333" y="13">SA</tspan><tspan font-size="11" x="-8.66669" y="13">Nam</tspan><tspan font-size="11" x="14.5" y="13">e</tspan><tspan font-size="11" x="-33.3333" y="25">* Name</tspan></text><rect x="282.5" y="349.5" width="120" height="58" stroke="#000000" stroke-width="1.33333" stroke-miterlimit="8" fill="#FFFFFF"/><text font-family="Yu Gothic,Yu Gothic_MSFontService,sans-serif" font-weight="400" font-size="11" transform="translate(327.006 375)">Query<tspan font-size="11" x="-35.7467" y="13">Statemen</tspan><tspan font-size="11" x="11.92" y="13">t</tspan></text><rect x="250.5" y="462.5" width="120" height="58" stroke="#000000" stroke-width="1.33333" stroke-miterlimit="8" fill="#FFFFFF"/><text font-family="Yu Gothic,Yu Gothic_MSFontService,sans-serif" font-weight="400" font-size="11" transform="translate(282.673 495)">With Query</text><rect x="380.5" y="462.5" width="120" height="58" stroke="#000000" stroke-width="1.33333" stroke-miterlimit="8" fill="#FFFFFF"/><text font-family="Yu Gothic,Yu Gothic_MSFontService,sans-serif" font-weight="400" font-size="11" transform="translate(408.37 495)">Select Query</text><path d="M310.167 462.669 310.167 434.751 341.961 434.751 341.628 435.084 341.628 419.5 342.295 419.5 342.295 435.418 310.5 435.418 310.833 435.084 310.833 462.669ZM335.295 420.833 341.961 407.5 348.628 420.833Z"/><path d="M0-0.333333 27.9178-0.333333 27.9178 98.2357 27.5845 97.9024 43.1688 97.9024 43.1688 98.569 27.2511 98.569 27.2511 0 27.5845 0.333333 0 0.333333ZM41.8355 91.569 55.1688 98.2357 41.8355 104.902Z" transform="matrix(-1.83697e-16 -1 -1 1.83697e-16 440.736 462.669)"/><path d="M152.5 349.979 152.5 303.74 300.264 303.74 300.264 257.5" stroke="#000000" stroke-width="0.666667" stroke-miterlimit="8" fill="none" fill-rule="evenodd"/><path d="M0 0 47.126 0 47.126 145.194 94.2519 145.194" stroke="#000000" stroke-width="0.666667" stroke-miterlimit="8" fill="none" fill-rule="evenodd" transform="matrix(-1.83697e-16 -1 -1 1.83697e-16 530.694 349.752)"/><path d="M342.5 349.702 342.5 303.601 343.502 303.601 343.502 257.5" stroke="#000000" stroke-width="0.666667" stroke-miterlimit="8" fill="none" fill-rule="evenodd"/><text font-family="Yu Gothic,Yu Gothic_MSFontService,sans-serif" font-weight="400" font-size="11" transform="translate(159.778 348)">*<tspan font-size="11" x="190.014" y="-2">*</tspan><tspan font-size="11" x="381.721" y="0">*</tspan></text><path d="M0 0 29.9324 0 29.9324 83.7016" stroke="#000000" stroke-width="0.666667" stroke-miterlimit="8" fill="none" fill-rule="evenodd" transform="matrix(1 0 0 -1 500.5 491.202)"/><text font-family="Yu Gothic,Yu Gothic_MSFontService,sans-serif" font-weight="400" font-size="11" transform="translate(237.797 297)">R203<tspan font-size="11" x="77.0353" y="17">R204</tspan><tspan font-size="11" x="235.649" y="0">R205</tspan><tspan font-size="11" x="50.8821" y="-23">1</tspan><tspan font-size="11" x="93.5817" y="-22">1</tspan><tspan font-size="11" x="153.862" y="-23">1</tspan><tspan font-size="11" x="300.216" y="128">1</tspan><tspan font-size="11" x="278.499" y="215">0..1</tspan></text><path d="M0 0 24 0 24 129.697 1.33333 129.697" stroke="#000000" stroke-width="0.666667" stroke-miterlimit="8" fill="none" fill-rule="evenodd" transform="matrix(1.83697e-16 1 1 -1.83697e-16 311.5 519.5)"/><text font-family="Yu Gothic,Yu Gothic_MSFontService,sans-serif" font-weight="400" font-size="11" transform="translate(284.668 535)">0..1<tspan font-size="11" x="164.802" y="0">*</tspan><tspan font-size="11" x="251.787" y="-69">R208</tspan><tspan font-size="11" x="79.2235" y="28">R209</tspan></text><rect x="489.5" y="200.5" width="120" height="57" stroke="#000000" stroke-width="1.33333" stroke-miterlimit="8" fill="#FFFFFF"/><text font-family="Yu Gothic,Yu Gothic_MSFontService,sans-serif" font-weight="400" font-size="11" transform="translate(540.627 226)">Job<tspan font-size="11" x="-42.08" y="13">Start</tspan><tspan font-size="11" x="-14.9133" y="13">Tim</tspan><tspan font-size="11" x="3.7533" y="13">e</tspan><tspan font-size="11" x="-77.7362" y="19">0..1</tspan><tspan font-size="11" x="-109.213" y="-8">R210</tspan></text><rect x="94.5001" y="442.5" width="119" height="58" stroke="#000000" stroke-width="1.33333" stroke-miterlimit="8" fill="#FFFFFF"/><text font-family="Yu Gothic,Yu Gothic_MSFontService,sans-serif" font-weight="400" font-size="11" transform="translate(121.491 475)">Stream Input</text><rect x="94.5001" y="515.5" width="119" height="58" stroke="#000000" stroke-width="1.33333" stroke-miterlimit="8" fill="#FFFFFF"/><text font-family="Yu Gothic,Yu Gothic_MSFontService,sans-serif" font-weight="400" font-size="11" transform="translate(114.075 548)">Reference Input</text><path d="M93.5847 545.251 68.1667 545.251 68.1667 379.167 80.5001 379.167 80.5001 379.833 68.5001 379.833 68.8334 379.5 68.8334 544.918 68.5001 544.584 93.5847 544.584ZM79.1667 372.833 92.5001 379.5 79.1667 386.167Z"/><path d="M93.5847 472.284 68.1667 472.284 68.1667 379.167 80.5001 379.167 80.5001 379.833 68.5 379.833 68.8333 379.5 68.8333 471.951 68.5 471.618 93.5847 471.618ZM79.1667 372.833 92.5001 379.5 79.1667 386.167Z"/><text font-family="Yu Gothic,Yu Gothic_MSFontService,sans-serif" font-weight="400" font-size="11" transform="translate(75.9292 426)">R21<tspan font-size="11" x="19.1667" y="0">1</tspan></text><path d="M0 0 42.1275 0 42.1275 157.338 68.5814 157.338" stroke="#000000" stroke-width="0.666667" stroke-miterlimit="8" fill="none" fill-rule="evenodd" transform="matrix(-1 1.22465e-16 1.22465e-16 1 282.081 387.5)"/><text font-family="Yu Gothic,Yu Gothic_MSFontService,sans-serif" font-weight="400" font-size="11" transform="translate(231.776 565)">R212<tspan font-size="11" x="-13.9439" y="-24">0..1</tspan><tspan font-size="11" x="42.2373" y="-161">*</tspan></text></g></svg>