<svg width="607" height="518" xmlns="http://www.w3.org/2000/svg" xmlns:xlink="http://www.w3.org/1999/xlink" overflow="hidden"><defs><clipPath id="clip0"><rect x="34" y="48" width="607" height="518"/></clipPath></defs><g clip-path="url(#clip0)" transform="translate(-34 -48)"><rect x="35.5001" y="49.5001" width="605" height="516" stroke="#D9D9D9" stroke-width="1.33333" stroke-miterlimit="8" fill="none"/><rect x="124.5" y="199.5" width="96" height="58" stroke="#000000" stroke-width="1.33333" stroke-miterlimit="8" fill="#FFFFFF"/><text font-family="Yu Gothic,Yu Gothic_MSFontService,sans-serif" font-weight="400" font-size="11" transform="translate(141.421 232)">Subscription</text><path d="M220.5 228.5 282.908 228.5" stroke="#000000" stroke-width="0.666667" stroke-miterlimit="8" fill="none" fill-rule="evenodd"/><text font-family="Yu Gothic,Yu Gothic_MSFontService,sans-serif" font-weight="400" font-size="11" transform="translate(270.764 228)">*</text><rect x="283.5" y="199.5" width="96" height="58" stroke="#000000" stroke-width="1.33333" stroke-miterlimit="8" fill="#FFFFFF"/><text font-family="Yu Gothic,Yu Gothic_MSFontService,sans-serif" font-weight="400" font-size="11" transform="translate(302.262 225)">Event<tspan font-size="11" x="30.8333" y="0">Hub</tspan><tspan font-size="11" x="51.1667" y="0">s</tspan><tspan font-size="11" x="-10" y="13">* </tspan>Namespace<tspan font-size="11" x="-74.1407" y="18">1</tspan></text><rect x="283.5" y="97.5001" width="96" height="58" stroke="#000000" stroke-width="1.33333" stroke-miterlimit="8" fill="#FFFFFF"/><text font-family="Yu Gothic,Yu Gothic_MSFontService,sans-serif" font-weight="400" font-size="11" transform="translate(307.969 123)">Resource <tspan font-size="11" x="8.16666" y="13">Group</tspan></text><path d="M172.5 199.747 172.5 126.5 283.298 126.5" stroke="#000000" stroke-width="0.666667" stroke-miterlimit="8" fill="none" fill-rule="evenodd"/><text font-family="Yu Gothic,Yu Gothic_MSFontService,sans-serif" font-weight="400" font-size="11" transform="translate(161.358 191)">1<tspan font-size="11" x="109.738" y="-69">*</tspan></text><path d="M0 0 0.390131 44.358" stroke="#000000" stroke-width="0.666667" stroke-miterlimit="8" fill="none" fill-rule="evenodd" transform="matrix(1 0 0 -1 331.5 199.858)"/><text font-family="Yu Gothic,Yu Gothic_MSFontService,sans-serif" font-weight="400" font-size="11" transform="translate(322.795 166)">1<tspan font-size="11" x="17.857" y="31">*</tspan><tspan font-size="11" x="-113.212" y="-44">R1</tspan><tspan font-size="11" x="-79.5435" y="75">R102</tspan><tspan font-size="11" x="-21.1317" y="19">R103</tspan></text><rect x="269.5" y="303.5" width="123" height="58" stroke="#000000" stroke-width="1.33333" stroke-miterlimit="8" fill="#FFFFFF"/><text font-family="Yu Gothic,Yu Gothic_MSFontService,sans-serif" font-weight="400" font-size="11" transform="translate(305.062 323)">Event<tspan font-size="11" x="30.8333" y="0">Hub</tspan><tspan font-size="11" x="-26.3333" y="13">* Namespace {R104}</tspan><tspan font-size="11" x="-26.3333" y="25">* Name</tspan></text><path d="M0 0 0.000104987 46.0708" stroke="#000000" stroke-width="0.666667" stroke-miterlimit="8" fill="none" fill-rule="evenodd" transform="matrix(1 0 0 -1 331.5 303.571)"/><text font-family="Yu Gothic,Yu Gothic_MSFontService,sans-serif" font-weight="400" font-size="11" transform="translate(322.795 267)">1<tspan font-size="11" x="17.4669" y="34">*</tspan><tspan font-size="11" x="-24.4706" y="14">R104</tspan></text><rect x="246.5" y="417.5" width="169" height="110" stroke="#000000" stroke-width="1.33333" stroke-miterlimit="8" fill="#FFFFFF"/><text font-family="Yu Gothic,Yu Gothic_MSFontService,sans-serif" font-weight="400" font-size="11" transform="translate(304.215 437)">SAS Policy<tspan font-size="11" x="-48.5" y="13">* Namespace {R105}</tspan><tspan font-size="11" x="-48.5" y="25">* Event Hub Name{R105}</tspan><tspan font-size="11" x="-37.8333" y="38">Management</tspan><tspan font-size="11" x="-37.8333" y="51">Send</tspan><tspan font-size="11" x="-37.8333" y="64">Listen</tspan><tspan font-size="11" x="-37.8333" y="77">SAS</tspan><tspan font-size="11" x="-14.5" y="77">Key</tspan></text><path d="M0 0 0.000104987 55.8448" stroke="#000000" stroke-width="0.666667" stroke-miterlimit="8" fill="none" fill-rule="evenodd" transform="matrix(1 0 0 -1 331.5 417.345)"/><text font-family="Yu Gothic,Yu Gothic_MSFontService,sans-serif" font-weight="400" font-size="11" transform="translate(321.232 376)">1<tspan font-size="11" x="17.4669" y="37">*</tspan><tspan font-size="11" x="-19.5692" y="18">R105</tspan></text></g></svg>