<svg width="607" height="305" xmlns="http://www.w3.org/2000/svg" xmlns:xlink="http://www.w3.org/1999/xlink" overflow="hidden"><defs><clipPath id="clip0"><rect x="34" y="377" width="607" height="305"/></clipPath><clipPath id="clip1"><rect x="241" y="503" width="46" height="45"/></clipPath><clipPath id="clip2"><rect x="241" y="503" width="46" height="45"/></clipPath><clipPath id="clip3"><rect x="241" y="503" width="46" height="45"/></clipPath><linearGradient x1="23.1525" y1="-0.91" x2="15.545" y2="50.13" gradientUnits="userSpaceOnUse" spreadMethod="pad" id="fill4"><stop offset="0" stop-color="#32BEDD"/><stop offset="1" stop-color="#198AB3"/></linearGradient><linearGradient x1="26.995" y1="18.47" x2="36.1025" y2="47.665" gradientUnits="userSpaceOnUse" spreadMethod="pad" id="fill5"><stop offset="0" stop-color="#50E6FF"/><stop offset="0.997" stop-color="#32BEDD"/><stop offset="1" stop-color="#32BEDD"/></linearGradient><linearGradient x1="-0.42" y1="10.285" x2="31.43" y2="27.2375" gradientUnits="userSpaceOnUse" spreadMethod="pad" id="fill6"><stop offset="0" stop-color="#FFFFFF"/><stop offset="1" stop-color="#9CEBFF"/></linearGradient><clipPath id="clip7"><rect x="56" y="503" width="46" height="46"/></clipPath><clipPath id="clip8"><rect x="56" y="503" width="46" height="46"/></clipPath><clipPath id="clip9"><rect x="56" y="503" width="46" height="46"/></clipPath><linearGradient x1="79.3197" y1="546.079" x2="79.3197" y2="505.296" gradientUnits="userSpaceOnUse" spreadMethod="pad" id="fill10"><stop offset="0" stop-color="#FEA11B"/><stop offset="0.284" stop-color="#FEA51A"/><stop offset="0.547" stop-color="#FEB018"/><stop offset="0.8" stop-color="#FFC314"/><stop offset="1" stop-color="#FFD70F"/></linearGradient><clipPath id="clip11"><rect x="550" y="508" width="46" height="47"/></clipPath><clipPath id="clip12"><rect x="550" y="508" width="46" height="47"/></clipPath><clipPath id="clip13"><rect x="550" y="508" width="46" height="47"/></clipPath><linearGradient x1="23.3197" y1="43.0791" x2="23.3197" y2="2.29554" gradientUnits="userSpaceOnUse" spreadMethod="pad" id="fill14"><stop offset="0" stop-color="#FEA11B"/><stop offset="0.284" stop-color="#FEA51A"/><stop offset="0.547" stop-color="#FEB018"/><stop offset="0.8" stop-color="#FFC314"/><stop offset="1" stop-color="#FFD70F"/></linearGradient><clipPath id="clip15"><rect x="402" y="509" width="46" height="45"/></clipPath><clipPath id="clip16"><rect x="402" y="509" width="46" height="45"/></clipPath><clipPath id="clip17"><rect x="402" y="509" width="46" height="45"/></clipPath><linearGradient x1="19.85" y1="19.25" x2="19.85" y2="9.375" gradientUnits="userSpaceOnUse" spreadMethod="pad" id="fill18"><stop offset="0" stop-color="#5E9624"/><stop offset="1" stop-color="#76BC2D"/></linearGradient><linearGradient x1="19.85" y1="35.65" x2="19.85" y2="25.775" gradientUnits="userSpaceOnUse" spreadMethod="pad" id="fill19"><stop offset="0" stop-color="#5E9624"/><stop offset="1" stop-color="#76BC2D"/></linearGradient><clipPath id="clip20"><rect x="476" y="508" width="46" height="46"/></clipPath><clipPath id="clip21"><rect x="476" y="508" width="46" height="46"/></clipPath><clipPath id="clip22"><rect x="476" y="508" width="46" height="46"/></clipPath><linearGradient x1="525.961" y1="509.763" x2="525.961" y2="515.117" gradientUnits="userSpaceOnUse" spreadMethod="pad" id="fill23"><stop offset="0" stop-color="#C69AEB"/><stop offset="1" stop-color="#6F4BB2"/></linearGradient><linearGradient x1="523.751" y1="520.561" x2="523.751" y2="525.901" gradientUnits="userSpaceOnUse" spreadMethod="pad" id="fill24"><stop offset="0" stop-color="#C69AEB"/><stop offset="1" stop-color="#6F4BB2"/></linearGradient></defs><g clip-path="url(#clip0)" transform="translate(-34 -377)"><rect x="35.5001" y="378.5" width="605" height="303" stroke="#D9D9D9" stroke-width="1.33333" stroke-miterlimit="8" fill="none"/><g clip-path="url(#clip1)"><g clip-path="url(#clip2)"><g clip-path="url(#clip3)"><path d="M36.07 8.375 23.0825 0.875C21.0541-0.294908 18.5559-0.294908 16.5275 0.875L3.54 8.375C1.51279 9.54719 0.263794 11.7108 0.2625 14.0525L0.2625 29.0525C0.262902 31.3951 1.51202 33.5599 3.54 34.7325L16.54 42.2325C18.5684 43.4024 21.0666 43.4024 23.095 42.2325L36.095 34.7325C38.123 33.5599 39.3721 31.3951 39.3725 29.0525L39.3725 14.0525C39.3661 11.7056 38.1068 9.54083 36.07 8.375Z" fill="url(#fill4)" transform="matrix(1.02222 0 0 1 241 503)"/><path d="M42.105 19.3575 32.9725 14.085C31.3425 13.1451 29.335 13.1451 27.705 14.085L18.575 19.3575C16.9436 20.2958 15.9393 22.0355 15.9425 23.9175L15.9425 34.4625C15.9424 36.3436 16.9459 38.0819 18.575 39.0225L27.705 44.295C29.335 45.2349 31.3425 45.2349 32.9725 44.295L42.105 39.0225C43.7382 38.0844 44.7465 36.3459 44.75 34.4625L44.75 23.9175C44.747 22.0339 43.7385 20.2953 42.105 19.3575Z" fill="url(#fill5)" transform="matrix(1.02222 0 0 1 241 503)"/><path d="M18.945 7.4075 21.575 5.9525 32.85 29.32 31.935 30.32 7.0875 30.32 7.3675 27.3275 28.32 27.3275 18.945 7.4075Z" fill="url(#fill6)" transform="matrix(1.02222 0 0 1 241 503)"/><path d="M10.58 28.9625C10.58 31.0336 8.90107 32.7125 6.83 32.7125 4.75893 32.7125 3.08 31.0336 3.08 28.9625 3.08 26.8914 4.75893 25.2125 6.83 25.2125 8.90107 25.2125 10.58 26.8914 10.58 28.9625Z" fill="#FFFFFF" transform="matrix(1.02222 0 0 1 241 503)"/><path d="M36.2 29.19C36.2 32.4264 33.5764 35.05 30.34 35.05 27.1036 35.05 24.48 32.4264 24.48 29.19 24.48 25.9536 27.1036 23.33 30.34 23.33 33.5764 23.33 36.2 25.9536 36.2 29.19Z" fill="#FFFFFF" transform="matrix(1.02222 0 0 1 241 503)"/><path d="M23.8525 6.395C23.8525 8.46607 22.1736 10.145 20.1025 10.145 18.0314 10.145 16.3525 8.46607 16.3525 6.395 16.3525 4.32393 18.0314 2.645 20.1025 2.645 22.1736 2.645 23.8525 4.32393 23.8525 6.395Z" fill="#FFFFFF" transform="matrix(1.02222 0 0 1 241 503)"/></g></g></g><rect x="184.5" y="449.5" width="160" height="153" stroke="#2F528F" stroke-width="1.33333" stroke-miterlimit="8" fill="none"/><g clip-path="url(#clip7)"><g clip-path="url(#clip8)"><g clip-path="url(#clip9)"><path d="M70.1589 536.491 68.6612 537.993C68.3951 538.26 67.963 538.26 67.6962 537.994L56.5708 526.9C56.0381 526.369 56.0368 525.506 56.568 524.974L58.073 523.464 58.073 523.464 70.1648 535.522C70.4316 535.788 70.4322 536.22 70.1661 536.487Z" fill="#50E6FF"/><path d="M68.4286 514.001 69.936 515.505C70.2028 515.771 70.2035 516.203 69.9374 516.469L58.0584 528.382 58.0584 528.382 56.5492 526.877C56.0165 526.346 56.0153 525.484 56.5464 524.951L67.4672 513.999C67.7339 513.736 68.1632 513.737 68.4286 514.001Z" fill="#1490DF"/><path d="M99.9291 523.475 101.432 524.982C101.963 525.515 101.962 526.377 101.429 526.909L90.304 538.003C90.0372 538.269 89.6052 538.268 89.3391 538.001L87.8432 536.501C87.5771 536.234 87.5777 535.802 87.8445 535.536L99.9345 523.48 99.9345 523.48Z" fill="#50E6FF"/><path d="M101.443 526.871 99.9354 528.374 99.9354 528.374 88.0564 516.461C87.7903 516.194 87.7909 515.762 88.0578 515.496L89.5652 513.993C89.832 513.727 90.264 513.728 90.5301 513.994L101.451 524.946C101.982 525.479 101.981 526.341 101.448 526.872Z" fill="#1490DF"/><path d="M77.6174 528.3 68.4456 528.3C68.1778 528.31 67.9509 528.105 67.9344 527.837 67.9345 527.771 67.9503 527.705 67.9804 527.646L78.977 505.888C79.0724 505.716 79.2557 505.611 79.4523 505.617L90.3007 505.617C90.5684 505.607 90.7953 505.812 90.8118 506.079 90.8109 506.172 90.7794 506.262 90.7223 506.335L77.8091 523.358 90.4029 523.358C90.6706 523.347 90.8975 523.553 90.914 523.82 90.912 523.937 90.8644 524.049 90.7811 524.132L69.8537 545.903C69.6569 546.02 68.259 547.18 68.9439 545.42L68.9439 545.42Z" fill="url(#fill10)"/></g></g></g><g clip-path="url(#clip11)"><g clip-path="url(#clip12)"><g clip-path="url(#clip13)"><path d="M6.12125 19.3065 8.26498 19.3065C8.64584 19.3065 8.95459 19.6152 8.95459 19.9961L8.95459 35.8752C8.95459 36.6355 8.33825 37.2518 7.57796 37.2518L5.42389 37.2518 5.42389 37.2518 5.42389 19.9935C5.42389 19.6126 5.73264 19.3039 6.1135 19.3039Z" fill="#50E6FF" transform="matrix(-0.698656 0.715866 -0.700634 -0.713844 581.962 551.619)"/><path d="M6.00539 9.29867 8.157 9.29867C8.53788 9.29867 8.84665 9.60744 8.84665 9.98832L8.84665 26.992 8.84665 26.992 6.69246 26.992C5.93212 26.992 5.31574 26.3756 5.31574 25.6153L5.31574 9.98316C5.31858 9.60429 5.62652 9.29866 6.00539 9.29867Z" fill="#1490DF" transform="matrix(0.700592 0.713801 -0.698614 0.715822 564.717 508.298)"/><path d="M37.5282 19.3065 39.6797 19.3065C40.44 19.3065 41.0563 19.9228 41.0563 20.6831L41.0563 36.5622C41.0563 36.9431 40.7475 37.2518 40.3667 37.2518L38.2255 37.2518C37.8447 37.2518 37.5359 36.9431 37.5359 36.5622L37.5359 19.3065 37.5359 19.3065Z" fill="#50E6FF" transform="matrix(0.698656 0.715866 -0.700634 0.713844 581.237 488.273)"/><path d="M39.0234 9.29867 41.175 9.29867 41.175 9.29867 41.175 26.3023C41.175 26.6832 40.8663 26.992 40.4854 26.992L38.3338 26.992C37.9529 26.992 37.6441 26.6832 37.6441 26.3023L37.6441 10.6702C37.6441 9.90988 38.2605 9.2935 39.0208 9.2935Z" fill="#1490DF" transform="matrix(-0.700592 0.713801 -0.698614 -0.715822 629.278 511.191)"/><path d="M21.6174 25.3 12.4456 25.3C12.1778 25.3102 11.9509 25.1049 11.9344 24.8374 11.9345 24.7708 11.9503 24.7052 11.9804 24.6458L22.977 2.88778C23.0724 2.71578 23.2557 2.6113 23.4523 2.61689L34.3007 2.61689C34.5684 2.60667 34.7953 2.81203 34.8118 3.07944 34.8109 3.17215 34.7794 3.26196 34.7223 3.335L21.8091 20.3576 34.4029 20.3576C34.6706 20.3473 34.8975 20.5527 34.914 20.8201 34.912 20.9374 34.8644 21.0493 34.7811 21.1319L13.8537 42.9027C13.6569 43.0202 12.259 44.1804 12.9439 42.4197L12.9439 42.4197Z" fill="url(#fill14)" transform="matrix(1 0 0 1.02174 550 508)"/></g></g></g><path d="M114.5 519.5 115.25 519.5 115.25 531.5 114.5 531.5ZM116 519.5 117.5 519.5 117.5 531.5 116 531.5ZM118.25 519.5 165.5 519.5 165.5 513.5 177.5 525.5 165.5 537.5 165.5 531.5 118.25 531.5Z" stroke="#2F528F" stroke-width="1.33333" stroke-miterlimit="8" fill="#4472C4" fill-rule="evenodd"/><text font-family="Yu Gothic,Yu Gothic_MSFontService,sans-serif" font-weight="400" font-size="16" transform="translate(107.914 485)">Publish <tspan font-size="16" x="0" y="19">Telemetry</tspan><tspan font-size="16" x="135.325" y="156">Event Route</tspan><tspan font-size="16" x="135.325" y="175">with Filter</tspan></text><g clip-path="url(#clip15)"><g clip-path="url(#clip16)"><g clip-path="url(#clip17)"><path d="M2.65 3.55 5.875 3.55 5.875 3.55 5.875 12.5C5.875 12.9004 5.55041 13.225 5.15 13.225L1.925 13.225C1.52459 13.225 1.2 12.9004 1.2 12.5L1.2 5C1.18607 4.21312 1.81267 3.56393 2.59955 3.55 2.61637 3.5497 2.63319 3.5497 2.65 3.55Z" fill="#A3A3A3" transform="matrix(1.02222 0 0 1 402 509)"/><path d="M2.65 3.55 5.875 3.55 5.875 3.55 5.875 12.5C5.875 12.9004 5.55041 13.225 5.15 13.225L1.925 13.225C1.52459 13.225 1.2 12.9004 1.2 12.5L1.2 5C1.18607 4.21312 1.81267 3.56393 2.59955 3.55 2.61637 3.5497 2.63319 3.5497 2.65 3.55Z" fill="#A3A3A3" fill-opacity="0.5" transform="matrix(1.02222 0 0 1 402 509)"/><path d="M39.125 3.55 42.35 3.55C43.137 3.55 43.775 4.18799 43.775 4.975L43.775 12.5C43.775 12.9004 43.4504 13.225 43.05 13.225L39.85 13.225C39.4496 13.225 39.125 12.9004 39.125 12.5L39.125 3.55 39.125 3.55Z" fill="#A3A3A3" transform="matrix(1.02222 0 0 1 402 509)"/><path d="M39.125 3.55 42.35 3.55C43.137 3.55 43.775 4.18799 43.775 4.975L43.775 12.5C43.775 12.9004 43.4504 13.225 43.05 13.225L39.85 13.225C39.4496 13.225 39.125 12.9004 39.125 12.5L39.125 3.55 39.125 3.55Z" fill="#A3A3A3" fill-opacity="0.5" transform="matrix(1.02222 0 0 1 402 509)"/><path d="M21.65-15.475 24.775-15.475 24.775-15.475 24.775 27.025 24.775 27.025 21.65 27.025C20.863 27.025 20.225 26.387 20.225 25.6L20.225-14.05C20.225-14.837 20.863-15.475 21.65-15.475Z" fill="#949494" transform="matrix(6.25931e-17 1 -1.02222 6.12323e-17 430.929 492.3)"/><path d="M1.925 31.725 5.15 31.725C5.55041 31.725 5.875 32.0496 5.875 32.45L5.875 41.475 5.875 41.475 2.65 41.475C1.86312 41.4893 1.21365 40.863 1.19935 40.0761 1.19889 40.0507 1.19911 40.0254 1.2 40L1.2 32.5C1.17238 32.1005 1.47382 31.7543 1.87327 31.7267 1.89049 31.7255 1.90774 31.725 1.925 31.725Z" fill="#A3A3A3" transform="matrix(1.02222 0 0 1 402 509)"/><path d="M1.925 31.725 5.15 31.725C5.55041 31.725 5.875 32.0496 5.875 32.45L5.875 41.475 5.875 41.475 2.65 41.475C1.86312 41.4893 1.21365 40.863 1.19935 40.0761 1.19889 40.0507 1.19911 40.0254 1.2 40L1.2 32.5C1.17238 32.1005 1.47382 31.7543 1.87327 31.7267 1.89049 31.7255 1.90774 31.725 1.925 31.725Z" fill="#A3A3A3" fill-opacity="0.5" transform="matrix(1.02222 0 0 1 402 509)"/><path d="M39.85 31.725 43.075 31.725C43.4754 31.725 43.8 32.0496 43.8 32.45L43.8 39.95C43.8 40.737 43.162 41.375 42.375 41.375L39.125 41.375 39.125 41.375 39.125 32.5C39.0974 32.1005 39.3988 31.7543 39.7983 31.7267 39.8155 31.7255 39.8327 31.725 39.85 31.725Z" fill="#A3A3A3" transform="matrix(1.02222 0 0 1 402 509)"/><path d="M39.85 31.725 43.075 31.725C43.4754 31.725 43.8 32.0496 43.8 32.45L43.8 39.95C43.8 40.737 43.162 41.375 42.375 41.375L39.125 41.375 39.125 41.375 39.125 32.5C39.0974 32.1005 39.3988 31.7543 39.7983 31.7267 39.8155 31.7255 39.8327 31.725 39.85 31.725Z" fill="#A3A3A3" fill-opacity="0.5" transform="matrix(1.02222 0 0 1 402 509)"/><path d="M21.65 17.9 24.775 17.9 24.775 17.9 24.775 60.4 24.775 60.4 21.65 60.4C20.863 60.4 20.225 59.762 20.225 58.975L20.225 19.325C20.225 18.538 20.863 17.9 21.65 17.9Z" fill="#949494" transform="matrix(6.25931e-17 -1 1.02222 6.12323e-17 384.929 570.7)"/><path d="M37.275 22.1 32.725 17.5C32.6491 17.4016 32.5078 17.3834 32.4094 17.4593 32.3436 17.51 32.3111 17.593 32.325 17.675L32.325 20.5C32.3397 20.6234 32.2515 20.7353 32.1282 20.75 32.1105 20.7521 32.0927 20.7521 32.075 20.75L18.975 20.75C18.4794 20.1054 17.7131 19.7269 16.9 19.725 15.3881 19.5804 14.0452 20.6887 13.9006 22.2006 13.7559 23.7125 14.8643 25.0554 16.3762 25.2 16.5504 25.2167 16.7258 25.2167 16.9 25.2 17.7235 25.1886 18.4968 24.802 19 24.15L32.075 24.15C32.1985 24.1362 32.3098 24.2251 32.3236 24.3486 32.3246 24.3574 32.3251 24.3662 32.325 24.375L32.325 27.15C32.3201 27.2742 32.4169 27.3788 32.541 27.3836 32.6121 27.3864 32.6804 27.3554 32.725 27.3L37.275 22.775C37.4498 22.5839 37.4498 22.2911 37.275 22.1Z" fill="#5EA0EF" transform="matrix(1.02222 0 0 1 402 509)"/><path d="M28.875 13.975 24.325 9.45C24.2491 9.3516 24.1078 9.33336 24.0094 9.40926 23.9436 9.46004 23.9111 9.54301 23.925 9.625L23.925 12.5C23.9388 12.6235 23.8499 12.7348 23.7264 12.7486 23.7176 12.7496 23.7088 12.7501 23.7 12.75L15.5 12.75C14.9941 12.1045 14.2201 11.7267 13.4 11.725 11.8815 11.6943 10.6257 12.9004 10.595 14.4188 10.5643 15.9373 11.7703 17.1932 13.2888 17.2239 14.1625 17.2415 14.9926 16.8429 15.525 16.15L23.7 16.15C23.8243 16.15 23.925 16.2507 23.925 16.375L23.925 19.025C23.9201 19.1492 24.0169 19.2538 24.141 19.2586 24.2121 19.2614 24.2803 19.2304 24.325 19.175L28.875 14.65C29.0498 14.4589 29.0498 14.1661 28.875 13.975Z" fill="url(#fill18)" transform="matrix(1.02222 0 0 1 402 509)"/><path d="M28.875 30.375 24.325 25.85C24.2491 25.7516 24.1078 25.7334 24.0094 25.8093 23.9436 25.86 23.9111 25.943 23.925 26.025L23.925 28.775C23.9256 28.9039 23.8282 29.0121 23.7 29.025L15.5 29.025C14.9941 28.3795 14.2201 28.0017 13.4 28 11.8812 28.002 10.6517 29.2349 10.6537 30.7537 10.6557 32.2725 11.8886 33.502 13.4074 33.5 14.227 33.4989 15.0034 33.1323 15.525 32.5L23.7 32.5C23.8243 32.5 23.925 32.6007 23.925 32.725L23.925 35.5C23.9201 35.6242 24.0169 35.7288 24.141 35.7336 24.2121 35.7364 24.2803 35.7054 24.325 35.65L28.875 31.125C29.0821 30.9423 29.1019 30.6264 28.9193 30.4193 28.9055 30.4036 28.8907 30.3888 28.875 30.375Z" fill="url(#fill19)" transform="matrix(1.02222 0 0 1 402 509)"/></g></g></g><g clip-path="url(#clip20)"><g clip-path="url(#clip21)"><g clip-path="url(#clip22)"><path d="M508.456 528.828 508.456 527.294 496.904 527.294 491.487 532.687 487.5 532.687 496.751 523.333 503.063 523.333 503.063 521.877 496.112 521.877 485.328 532.687 483.794 532.687 483.794 534.22 488.42 534.22 493.889 539.612 506.922 539.612 506.922 538.079 494.451 538.079 490.592 534.22 499.971 534.22 499.971 532.687 493.684 532.687 497.518 528.828Z" fill="#32BEDD"/><path d="M503.728 533.453C503.728 534.681 502.732 535.677 501.504 535.677 500.277 535.677 499.281 534.681 499.281 533.453 499.281 532.225 500.277 531.23 501.504 531.23 502.732 531.23 503.728 532.225 503.728 533.453Z" fill="#FFFFFF"/><path d="M506.053 522.669C506.053 523.897 505.058 524.892 503.83 524.892 502.602 524.892 501.607 523.897 501.607 522.669 501.607 521.441 502.602 520.446 503.83 520.446 505.058 520.446 506.053 521.441 506.053 522.669Z" fill="#FFFFFF"/><path d="M511.446 528.061C511.446 529.289 510.45 530.284 509.222 530.284 507.994 530.284 506.999 529.289 506.999 528.061 506.999 526.833 507.994 525.838 509.222 525.838 510.45 525.838 511.446 526.833 511.446 528.061Z" fill="#FFFFFF"/><path d="M509.146 538.846C509.146 540.073 508.15 541.069 506.922 541.069 505.694 541.069 504.699 540.073 504.699 538.846 504.699 537.618 505.694 536.622 506.922 536.622 508.15 536.622 509.146 537.618 509.146 538.846Z" fill="#FFFFFF"/><path d="M506.437 522.669C506.437 524.151 505.235 525.352 503.753 525.352 502.271 525.352 501.07 524.151 501.07 522.669 501.07 521.187 502.271 519.986 503.753 519.986 505.235 519.986 506.437 521.187 506.437 522.669Z" fill="#50E6FF"/><path d="M511.829 528.061C511.829 529.543 510.628 530.744 509.146 530.744 507.664 530.744 506.462 529.543 506.462 528.061 506.462 526.579 507.664 525.378 509.146 525.378 510.628 525.378 511.829 526.579 511.829 528.061Z" fill="url(#fill23)"/><path d="M509.606 538.846C509.606 540.328 508.404 541.529 506.922 541.529 505.44 541.529 504.239 540.328 504.239 538.846 504.239 537.364 505.44 536.162 506.922 536.162 508.404 536.162 509.606 537.364 509.606 538.846Z" fill="url(#fill24)"/><path d="M504.188 533.453C504.188 534.935 502.986 536.137 501.504 536.137 500.022 536.137 498.821 534.935 498.821 533.453 498.821 531.971 500.022 530.77 501.504 530.77 502.986 530.77 504.188 531.971 504.188 533.453Z" fill="#50E6FF"/><path d="M478.734 511.654 482.031 511.654 482.031 511.654 482.031 520.778C482.031 521.187 481.699 521.519 481.29 521.519L478.019 521.519C477.61 521.519 477.278 521.187 477.278 520.778L477.278 513.111C477.278 512.307 477.93 511.654 478.734 511.654Z" fill="#999999"/><path d="M478.734 511.654 482.031 511.654 482.031 511.654 482.031 520.778C482.031 521.187 481.699 521.519 481.29 521.519L478.019 521.519C477.61 521.519 477.278 521.187 477.278 520.778L477.278 513.111C477.278 512.307 477.93 511.654 478.734 511.654Z" fill="#999999" fill-opacity="0.5"/><path d="M515.969 511.654 519.266 511.654C520.07 511.654 520.722 512.307 520.722 513.111L520.722 520.778C520.722 521.187 520.39 521.519 519.981 521.519L516.684 521.519C516.285 521.505 515.969 521.177 515.969 520.778L515.969 511.654 515.969 511.654Z" fill="#999999"/><path d="M515.969 511.654 519.266 511.654C520.07 511.654 520.722 512.307 520.722 513.111L520.722 520.778C520.722 521.187 520.39 521.519 519.981 521.519L516.684 521.519C516.285 521.505 515.969 521.177 515.969 520.778L515.969 511.654 515.969 511.654Z" fill="#999999" fill-opacity="0.5"/><path d="M520.722 513.111 520.722 516.306 520.722 516.306 477.278 516.306 477.278 516.306 477.278 513.111C477.278 512.307 477.93 511.654 478.734 511.654L519.291 511.654C520.086 511.668 520.722 512.317 520.722 513.111Z" fill="#949494"/><path d="M478.019 540.404 481.316 540.404C481.725 540.404 482.057 540.736 482.057 541.146L482.057 550.346 482.057 550.346 478.734 550.346C477.93 550.346 477.278 549.693 477.278 548.889L477.278 541.222C477.235 540.815 477.531 540.451 477.938 540.408 477.965 540.406 477.992 540.404 478.019 540.404Z" fill="#999999"/><path d="M478.019 540.404 481.316 540.404C481.725 540.404 482.057 540.736 482.057 541.146L482.057 550.346 482.057 550.346 478.734 550.346C477.93 550.346 477.278 549.693 477.278 548.889L477.278 541.222C477.235 540.815 477.531 540.451 477.938 540.408 477.965 540.406 477.992 540.404 478.019 540.404Z" fill="#999999" fill-opacity="0.5"/><path d="M516.684 540.404 519.981 540.404C520.39 540.404 520.722 540.736 520.722 541.146L520.722 548.812C520.722 549.617 520.07 550.269 519.266 550.269L515.969 550.269 515.969 550.269 515.969 541.222C515.926 540.815 516.222 540.451 516.629 540.408 516.647 540.406 516.666 540.405 516.684 540.404Z" fill="#999999"/><path d="M516.684 540.404 519.981 540.404C520.39 540.404 520.722 540.736 520.722 541.146L520.722 548.812C520.722 549.617 520.07 550.269 519.266 550.269L515.969 550.269 515.969 550.269 515.969 541.222C515.926 540.815 516.222 540.451 516.629 540.408 516.647 540.406 516.666 540.405 516.684 540.404Z" fill="#999999" fill-opacity="0.5"/><path d="M477.278 548.889 477.278 545.694 477.278 545.694 520.722 545.694 520.722 545.694 520.722 548.889C520.722 549.693 520.07 550.346 519.266 550.346L478.734 550.346C477.93 550.346 477.278 549.693 477.278 548.889Z" fill="#949494"/></g></g></g><path d="M450.5 525.5 451.25 525.5 451.25 537.5 450.5 537.5ZM452 525.5 453.5 525.5 453.5 537.5 452 537.5ZM454.25 525.5 467.5 525.5 467.5 519.5 479.5 531.5 467.5 543.5 467.5 537.5 454.25 537.5Z" stroke="#2F528F" stroke-width="1.33333" stroke-miterlimit="8" fill="#4472C4" fill-rule="evenodd"/><path d="M522.5 525.5 523.25 525.5 523.25 537.5 522.5 537.5ZM524 525.5 525.5 525.5 525.5 537.5 524 537.5ZM526.25 525.5 539.5 525.5 539.5 519.5 551.5 531.5 539.5 543.5 539.5 537.5 526.25 537.5Z" stroke="#2F528F" stroke-width="1.33333" stroke-miterlimit="8" fill="#4472C4" fill-rule="evenodd"/><path d="M332 504 359 510.75 359 548.25 332 555Z" stroke="#FFC000" stroke-width="2" stroke-miterlimit="8" fill="#4472C4" fill-rule="evenodd"/><path d="M368.5 523.5 369.25 523.5 369.25 535.5 368.5 535.5ZM370 523.5 371.5 523.5 371.5 535.5 370 535.5ZM372.25 523.5 385.5 523.5 385.5 517.5 397.5 529.5 385.5 541.5 385.5 535.5 372.25 535.5Z" stroke="#FFC000" stroke-width="1.33333" stroke-miterlimit="8" fill="#4472C4" fill-rule="evenodd"/><text font-family="Yu Gothic,Yu Gothic_MSFontService,sans-serif" font-weight="400" font-size="16" transform="translate(364.424 595)">Endpoint<tspan font-size="16" x="64.9977" y="-149">Event Grid</tspan><tspan font-size="16" x="36.7831" y="-110">Topic</tspan><tspan font-size="16" x="115.601" y="-110">Subscription</tspan></text><path d="M291.168 621.315 291.796 614.786 293.561 608.419 296.333 602.434 299.863 597.076 304.09 592.597 308.769 589.119 313.831 586.905 316.448 586.266 319.038 586.077 321.601 585.889 321.546 585.898 324.109 585.273 324.054 585.291 329.054 583.104 328.989 583.142 333.614 579.704 333.569 579.745 337.756 575.245 337.722 575.288 341.222 569.976 341.197 570.02 343.884 564.145 343.86 564.224 346.198 551.44 346.853 551.56 344.508 564.385 341.793 570.321 338.263 575.678 334.036 580.221 329.356 583.699 324.295 585.914 321.677 586.552 319.087 586.742 316.524 586.929 316.579 586.92 314.017 587.545 314.071 587.527 309.071 589.714 309.136 589.677 304.511 593.114 304.555 593.075 300.368 597.513 300.403 597.468 296.903 602.78 296.928 602.737 294.178 608.674 294.196 608.623 292.446 614.936 292.457 614.879 291.832 621.379ZM339.889 550.867C340.239 547.201 343.494 544.514 347.159 544.864 350.824 545.213 353.512 548.468 353.162 552.134 352.812 555.799 349.557 558.486 345.892 558.136 342.227 557.787 339.539 554.532 339.889 550.867Z" fill="#FFC000"/><path d="M0.0334996-0.331646 6.24758 0.296039 9.10041 1.05679 11.6947 2.00593 13.8626 3.08985 15.6074 4.38235 16.7407 5.78221 17.1341 7.22479 17.5091 8.59979 17.4466 8.47777 18.5091 9.79027 18.4467 9.73087 20.0717 10.9184 20.0274 10.8911 22.2149 12.0161 22.1795 12.0004 24.6795 12.9379 24.6102 12.9201 33.5888 14.2173 33.4934 14.8771 24.4792 13.5748 21.9273 12.6178 19.6994 11.472 18.0183 10.2435 16.8843 8.84279 16.4909 7.40021 16.1159 6.02521 16.1784 6.14723 15.1159 4.83473 15.1766 4.89285 13.4891 3.64285 13.5384 3.67314 11.4134 2.61064 11.448 2.62554 8.88547 1.68804 8.91411 1.69708 6.10161 0.947078 6.154 0.956646-0.0334996 0.331646ZM34.2757 7.92112C37.9352 8.32685 40.5729 11.6223 40.1672 15.2818 39.7614 18.9413 36.4659 21.579 32.8065 21.1733 29.147 20.7675 26.5093 17.472 26.915 13.8126 27.3208 10.1531 30.6163 7.5154 34.2757 7.92112Z" fill="#FFC000" transform="matrix(-1.83697e-16 -1 -1 1.83697e-16 400.047 575.041)"/><path d="M0-0.333333 2.6295-0.333333 4.94651-0.270712 4.9375-0.270833 6.5625-0.270833 7.18822-0.270833 14.2622-0.240102 14.2593 0.426559 7.18605 0.39583 7.1875 0.395833 6.5625 0.395833 4.933 0.395833 2.61599 0.333212 2.625 0.333333 0 0.333333ZM14.2509-6.57343C17.9327-6.57892 20.922-3.5986 20.9274 0.0832939 20.9329 3.76519 17.9526 6.7544 14.2707 6.75989 10.5888 6.76537 7.59962 3.78506 7.59413 0.103163 7.58864-3.57873 10.569-6.56794 14.2509-6.57343Z" fill="#FFC000" transform="matrix(1.83697e-16 1 1 -1.83697e-16 425.5 494.5)"/><path d="M528.516 494.577 528.188 495.953 527.19 497.351 525.76 498.586 523.828 499.681 519.141 501.264 513.856 501.894 508.606 502.519 508.758 502.461 499.691 508.791 499.309 508.244 508.444 501.866 513.777 501.232 519.027 500.607 518.96 500.622 523.585 499.059 523.527 499.085 525.402 498.023 525.349 498.06 526.724 496.873 526.67 496.931 527.608 495.619 527.555 495.735 527.867 494.423ZM504.322 513.121C501.78 515.784 497.56 515.882 494.897 513.34 492.234 510.798 492.135 506.578 494.678 503.914 497.22 501.251 501.44 501.153 504.103 503.695 506.767 506.238 506.865 510.458 504.322 513.121Z" fill="#FFC000"/><path d="M469 577C464.582 577 461 576.403 461 575.667L461 530.333C461 529.597 457.418 529 453 529 457.418 529 461 528.403 461 527.667L461 482.333C461 481.597 464.582 481 469 481" stroke="#70AD47" stroke-width="2" stroke-miterlimit="8" fill="none" fill-rule="evenodd"/></g></svg>