<svg width="608" height="346" xmlns="http://www.w3.org/2000/svg" xmlns:xlink="http://www.w3.org/1999/xlink" overflow="hidden"><defs><clipPath id="clip0"><rect x="172" y="40" width="608" height="346"/></clipPath><clipPath id="clip1"><rect x="623" y="232" width="42" height="42"/></clipPath><clipPath id="clip2"><rect x="623" y="232" width="42" height="42"/></clipPath><clipPath id="clip3"><rect x="623" y="232" width="42" height="42"/></clipPath><linearGradient x1="644.303" y1="275.89" x2="643.65" y2="213.1" gradientUnits="userSpaceOnUse" spreadMethod="pad" id="fill4"><stop offset="0" stop-color="#198AB3"/><stop offset="0" stop-color="#198AB3"/><stop offset="0.09" stop-color="#22A5CB"/><stop offset="0.19" stop-color="#29BADE"/><stop offset="0.29" stop-color="#2EC9EB"/><stop offset="0.42" stop-color="#31D1F3"/><stop offset="0.62" stop-color="#32D4F5"/><stop offset="1" stop-color="#32D4F5"/></linearGradient><clipPath id="clip5"><rect x="512" y="253" width="34" height="33"/></clipPath><clipPath id="clip6"><rect x="512" y="253" width="34" height="33"/></clipPath><clipPath id="clip7"><rect x="512" y="253" width="34" height="33"/></clipPath><linearGradient x1="16.5" y1="23.5583" x2="16.5" y2="0.165" gradientUnits="userSpaceOnUse" spreadMethod="pad" id="fill8"><stop offset="0" stop-color="#198AB3"/><stop offset="0.44" stop-color="#28B7DB"/><stop offset="0.78" stop-color="#32D4F5"/><stop offset="1" stop-color="#32D4F5"/></linearGradient><linearGradient x1="16.445" y1="32.835" x2="16.445" y2="25.905" gradientUnits="userSpaceOnUse" spreadMethod="pad" id="fill9"><stop offset="0" stop-color="#198AB3"/><stop offset="0.44" stop-color="#28B7DB"/><stop offset="0.78" stop-color="#32D4F5"/><stop offset="1" stop-color="#32D4F5"/></linearGradient><clipPath id="clip10"><rect x="375" y="237" width="33" height="34"/></clipPath><clipPath id="clip11"><rect x="375" y="237" width="33" height="34"/></clipPath><clipPath id="clip12"><rect x="375" y="237" width="33" height="34"/></clipPath><linearGradient x1="16.5" y1="23.5583" x2="16.5" y2="0.165" gradientUnits="userSpaceOnUse" spreadMethod="pad" id="fill13"><stop offset="0" stop-color="#198AB3"/><stop offset="0.44" stop-color="#28B7DB"/><stop offset="0.78" stop-color="#32D4F5"/><stop offset="1" stop-color="#32D4F5"/></linearGradient><linearGradient x1="16.445" y1="32.835" x2="16.445" y2="25.905" gradientUnits="userSpaceOnUse" spreadMethod="pad" id="fill14"><stop offset="0" stop-color="#198AB3"/><stop offset="0.44" stop-color="#28B7DB"/><stop offset="0.78" stop-color="#32D4F5"/><stop offset="1" stop-color="#32D4F5"/></linearGradient><clipPath id="clip15"><rect x="375" y="138" width="33" height="34"/></clipPath><clipPath id="clip16"><rect x="375" y="138" width="33" height="34"/></clipPath><clipPath id="clip17"><rect x="375" y="138" width="33" height="34"/></clipPath><linearGradient x1="16.5" y1="23.5583" x2="16.5" y2="0.165" gradientUnits="userSpaceOnUse" spreadMethod="pad" id="fill18"><stop offset="0" stop-color="#198AB3"/><stop offset="0.44" stop-color="#28B7DB"/><stop offset="0.78" stop-color="#32D4F5"/><stop offset="1" stop-color="#32D4F5"/></linearGradient><linearGradient x1="16.445" y1="32.835" x2="16.445" y2="25.905" gradientUnits="userSpaceOnUse" spreadMethod="pad" id="fill19"><stop offset="0" stop-color="#198AB3"/><stop offset="0.44" stop-color="#28B7DB"/><stop offset="0.78" stop-color="#32D4F5"/><stop offset="1" stop-color="#32D4F5"/></linearGradient><clipPath id="clip20"><rect x="244" y="166" width="34" height="34"/></clipPath><clipPath id="clip21"><rect x="244" y="166" width="34" height="34"/></clipPath><clipPath id="clip22"><rect x="244" y="166" width="34" height="34"/></clipPath><linearGradient x1="261" y1="190.272" x2="261" y2="166.17" gradientUnits="userSpaceOnUse" spreadMethod="pad" id="fill23"><stop offset="0" stop-color="#198AB3"/><stop offset="0.44" stop-color="#28B7DB"/><stop offset="0.78" stop-color="#32D4F5"/><stop offset="1" stop-color="#32D4F5"/></linearGradient><linearGradient x1="260.943" y1="199.83" x2="260.943" y2="192.69" gradientUnits="userSpaceOnUse" spreadMethod="pad" id="fill24"><stop offset="0" stop-color="#198AB3"/><stop offset="0.44" stop-color="#28B7DB"/><stop offset="0.78" stop-color="#32D4F5"/><stop offset="1" stop-color="#32D4F5"/></linearGradient></defs><g clip-path="url(#clip0)" transform="translate(-172 -40)"><rect x="174.5" y="41.5001" width="604" height="344" stroke="#D9D9D9" stroke-width="1.33333" stroke-miterlimit="8" fill="none"/><g clip-path="url(#clip1)"><g clip-path="url(#clip2)"><g clip-path="url(#clip3)"><path d="M654.197 251.693C654.197 254.232 652.139 256.29 649.6 256.29 647.061 256.29 645.003 254.232 645.003 251.693 645.003 249.155 647.061 247.097 649.6 247.097 652.139 247.097 654.197 249.155 654.197 251.693Z" fill="#FFFFFF"/><path d="M660.917 265.367C660.917 267.364 659.297 268.983 657.3 268.983 655.303 268.983 653.683 267.364 653.683 265.367 653.683 263.369 655.303 261.75 657.3 261.75 659.297 261.75 660.917 263.369 660.917 265.367Z" fill="#FFFFFF"/><path d="M646.1 262.893C646.1 264.607 644.711 265.997 642.997 265.997 641.283 265.997 639.893 264.607 639.893 262.893 639.893 261.179 641.283 259.79 642.997 259.79 644.711 259.79 646.1 261.179 646.1 262.893Z" fill="#FFFFFF"/><path d="M644.607 239.257C644.607 241.383 642.883 243.107 640.757 243.107 638.63 243.107 636.907 241.383 636.907 239.257 636.907 237.13 638.63 235.407 640.757 235.407 642.883 235.407 644.607 237.13 644.607 239.257Z" fill="#FFFFFF"/><path d="M633.547 253.443C633.547 255.157 632.157 256.547 630.443 256.547 628.729 256.547 627.34 255.157 627.34 253.443 627.34 251.729 628.729 250.34 630.443 250.34 632.157 250.34 633.547 251.729 633.547 253.443Z" fill="#FFFFFF"/><path d="M658.14 264.643 650.37 251.04 649.6 251.483 650.23 251.017 641.433 238.51 639.823 239.677 647.617 250.76 630.35 252.183 630.513 254.19 647.617 252.767 641.947 262.193 643.65 263.22 649.483 253.513 656.413 265.623 658.14 264.643Z" fill="#949494"/><path d="M663.903 234.87 663.903 234.87C663.903 233.929 663.141 233.167 662.2 233.167L653.333 233.167C652.869 233.167 652.493 233.543 652.493 234.007L652.493 237.297C652.493 237.761 652.869 238.137 653.333 238.137L658.817 238.137 658.817 243.503C658.829 243.975 659.208 244.354 659.68 244.367L662.947 244.367C663.418 244.354 663.798 243.975 663.81 243.503L663.81 234.87Z" fill="#949494"/><path d="M634.667 267.863 629.09 267.863 629.09 262.497C629.078 262.025 628.698 261.646 628.227 261.633L624.96 261.633C624.488 261.646 624.109 262.025 624.097 262.497L624.097 271.13 624.097 271.13C624.109 272.062 624.868 272.81 625.8 272.81L634.667 272.81C635.131 272.81 635.507 272.434 635.507 271.97L635.507 268.703C635.507 268.239 635.131 267.863 634.667 267.863Z" fill="#949494"/><path d="M649.6 247.143C652.177 247.144 654.266 249.234 654.265 251.811 654.264 254.389 652.174 256.477 649.597 256.477 647.02 256.476 644.931 254.386 644.932 251.809 644.932 251.77 644.932 251.732 644.933 251.693 644.997 249.162 647.068 247.143 649.6 247.143ZM637 239.257C636.988 241.396 638.712 243.14 640.851 243.152 642.99 243.164 644.734 241.44 644.747 239.301 644.759 237.162 643.035 235.418 640.896 235.406 640.857 235.405 640.818 235.406 640.78 235.407 638.681 235.445 637 237.157 637 239.257ZM627.34 253.42C627.34 255.134 628.729 256.523 630.443 256.523 632.157 256.523 633.547 255.134 633.547 253.42 633.547 251.706 632.157 250.317 630.443 250.317 628.729 250.317 627.34 251.706 627.34 253.42ZM639.893 262.87C639.88 264.597 641.27 266.007 642.997 266.02 644.723 266.033 646.134 264.643 646.146 262.917 646.159 261.19 644.77 259.78 643.043 259.767 643.036 259.767 643.028 259.767 643.02 259.767 641.306 259.754 639.906 261.133 639.893 262.847 639.893 262.854 639.893 262.862 639.893 262.87ZM653.707 265.367C653.694 267.364 655.303 268.994 657.3 269.007 659.297 269.019 660.927 267.411 660.94 265.413 660.953 263.416 659.344 261.786 657.347 261.773 657.339 261.773 657.331 261.773 657.323 261.773 655.352 261.748 653.733 263.325 653.707 265.296 653.707 265.32 653.707 265.343 653.707 265.367Z" fill="url(#fill4)"/></g></g></g><g clip-path="url(#clip5)"><g clip-path="url(#clip6)"><g clip-path="url(#clip7)"><path d="M33 16.225C32.8464 12.6247 30.1358 9.65156 26.565 9.16667 26.3759 4.0308 22.077 0.0103619 16.94 0.165001 12.8666 0.0897832 9.1904 2.59693 7.77333 6.41667 3.43546 6.94046 0.131662 10.5559-4.19617e-07 14.9233 0.1889 19.8715 4.34632 23.7337 9.295 23.5583L10.1017 23.5583 25.1533 23.5583C25.2871 23.5774 25.4229 23.5774 25.5567 23.5583 29.6129 23.5296 32.9108 20.2803 33 16.225Z" fill="url(#fill8)" transform="matrix(1.0303 0 0 1 512 253)"/><path d="M15.73 15.51 17.16 15.51 17.16 26.8583 15.73 26.8583Z" fill="#B3B3B3" transform="matrix(1.0303 0 0 1 512 253)"/><path d="M20.2583 12.0817C20.2583 14.1877 18.551 15.895 16.445 15.895 14.339 15.895 12.6317 14.1877 12.6317 12.0817 12.6317 9.97562 14.339 8.26833 16.445 8.26833 18.551 8.26833 20.2583 9.97562 20.2583 12.0817Z" fill="#F2F2F2" transform="matrix(1.0303 0 0 1 512 253)"/><path d="M18.5717 25.905C19.3108 25.905 19.91 26.5042 19.91 27.2433L19.91 31.4967C19.91 32.2358 19.3108 32.835 18.5717 32.835L14.3183 32.835C13.5792 32.835 12.98 32.2358 12.98 31.4967L12.98 27.2433C12.98 26.5042 13.5792 25.905 14.3183 25.905Z" fill="url(#fill9)" transform="matrix(1.0303 0 0 1 512 253)"/></g></g></g><path d="M579.16 253.167 622.826 253.167 622.826 253.833 579.16 253.833ZM586.992 258.455 578.499 253.5 586.992 248.545C587.151 248.453 587.355 248.506 587.448 248.665 587.541 248.824 587.487 249.029 587.328 249.121L579.328 253.788 579.328 253.212 587.328 257.879C587.487 257.972 587.541 258.176 587.448 258.335 587.355 258.494 587.151 258.547 586.992 258.455ZM614.994 248.546 623.488 253.5 614.994 258.455C614.835 258.547 614.631 258.494 614.538 258.335 614.445 258.176 614.499 257.972 614.658 257.879L622.658 253.212 622.658 253.788 614.658 249.121C614.499 249.029 614.445 248.825 614.538 248.666 614.631 248.506 614.835 248.453 614.994 248.546Z" fill="#4472C4"/><rect x="485.5" y="211.5" width="93" height="83" stroke="#44546A" stroke-width="1.33333" stroke-miterlimit="8" fill="none"/><text font-family="Yu Gothic,Yu Gothic_MSFontService,sans-serif" font-weight="400" font-size="13" transform="translate(503.985 228)">IoT</text><text font-family="Yu Gothic,Yu Gothic_MSFontService,sans-serif" font-weight="400" font-size="13" transform="translate(527.485 228)">Edge</text><text font-family="Yu Gothic,Yu Gothic_MSFontService,sans-serif" font-weight="400" font-size="13" transform="translate(510.231 244)">Device</text><text font-family="Yu Gothic,Yu Gothic_MSFontService,sans-serif" font-weight="400" font-size="13" transform="translate(706.134 248)">Backend</text><text font-family="Yu Gothic,Yu Gothic_MSFontService,sans-serif" font-weight="400" font-size="13" transform="translate(706.134 264)">Service</text><path d="M0.660903-0.331369 31.2864-0.240281 31.2844 0.426382 0.65892 0.335295ZM8.47727 4.97983-0.00154497-4.59045e-06 8.50674-4.92931C8.66603-5.0216 8.86998-4.96728 8.96227-4.80799 9.05455-4.6487 9.00023-4.44475 8.84094-4.35246L0.827097 0.290388 0.82881-0.285462 8.81489 4.40498C8.97364 4.49821 9.02674 4.70248 8.93351 4.86122 8.84028 5.01996 8.63601 5.07306 8.47727 4.97983ZM23.468-4.88481 31.9468 0.0950177 23.4386 5.02433C23.2793 5.11661 23.0753 5.06229 22.983 4.903 22.8907 4.74371 22.9451 4.53976 23.1044 4.44748L31.1182-0.195374 31.1165 0.380476 23.1304-4.30996C22.9717-4.4032 22.9186-4.60746 23.0118-4.7662 23.105-4.92494 23.3093-4.97805 23.468-4.88481Z" fill="#4472C4" transform="matrix(1 0 0 -1 665.5 253.595)"/><g clip-path="url(#clip10)"><g clip-path="url(#clip11)"><g clip-path="url(#clip12)"><path d="M33 16.225C32.8464 12.6247 30.1358 9.65156 26.565 9.16667 26.3759 4.0308 22.077 0.0103619 16.94 0.165001 12.8666 0.0897832 9.1904 2.59693 7.77333 6.41667 3.43546 6.94046 0.131662 10.5559-4.19617e-07 14.9233 0.1889 19.8715 4.34632 23.7337 9.295 23.5583L10.1017 23.5583 25.1533 23.5583C25.2871 23.5774 25.4229 23.5774 25.5567 23.5583 29.6129 23.5296 32.9108 20.2803 33 16.225Z" fill="url(#fill13)" transform="matrix(1 0 0 1.0303 375 237)"/><path d="M15.73 15.51 17.16 15.51 17.16 26.8583 15.73 26.8583Z" fill="#B3B3B3" transform="matrix(1 0 0 1.0303 375 237)"/><path d="M20.2583 12.0817C20.2583 14.1877 18.551 15.895 16.445 15.895 14.339 15.895 12.6317 14.1877 12.6317 12.0817 12.6317 9.97562 14.339 8.26833 16.445 8.26833 18.551 8.26833 20.2583 9.97562 20.2583 12.0817Z" fill="#F2F2F2" transform="matrix(1 0 0 1.0303 375 237)"/><path d="M18.5717 25.905C19.3108 25.905 19.91 26.5042 19.91 27.2433L19.91 31.4967C19.91 32.2358 19.3108 32.835 18.5717 32.835L14.3183 32.835C13.5792 32.835 12.98 32.2358 12.98 31.4967L12.98 27.2433C12.98 26.5042 13.5792 25.905 14.3183 25.905Z" fill="url(#fill14)" transform="matrix(1 0 0 1.0303 375 237)"/></g></g></g><path d="M439.237 233.445 484.367 252.179 484.111 252.795 438.982 234.061ZM444.444 241.332 438.499 233.499 448.243 232.18C448.425 232.155 448.593 232.283 448.618 232.465 448.642 232.648 448.515 232.816 448.332 232.84L439.154 234.083 439.375 233.552 444.975 240.929C445.086 241.075 445.057 241.285 444.911 241.396 444.764 241.507 444.555 241.478 444.444 241.332ZM478.905 244.908 484.85 252.741 475.106 254.06C474.924 254.085 474.756 253.957 474.731 253.775 474.706 253.592 474.834 253.424 475.017 253.4L484.195 252.157 483.974 252.689 478.374 245.311C478.263 245.165 478.292 244.956 478.438 244.844 478.585 244.733 478.794 244.762 478.905 244.908Z" fill="#4472C4"/><rect x="345.5" y="192.5" width="93" height="83" stroke="#44546A" stroke-width="1.33333" stroke-miterlimit="8" fill="none"/><text font-family="Yu Gothic,Yu Gothic_MSFontService,sans-serif" font-weight="400" font-size="13" transform="translate(364.367 209)">IoT</text><text font-family="Yu Gothic,Yu Gothic_MSFontService,sans-serif" font-weight="400" font-size="13" transform="translate(387.867 209)">Edge</text><text font-family="Yu Gothic,Yu Gothic_MSFontService,sans-serif" font-weight="400" font-size="13" transform="translate(370.613 225)">Device</text><rect x="343.5" y="298.5" width="93" height="62" stroke="#44546A" stroke-width="1.33333" stroke-miterlimit="8" fill="none"/><text font-family="Yu Gothic,Yu Gothic_MSFontService,sans-serif" font-weight="400" font-size="13" transform="translate(356.842 333)">IoT</text><text font-family="Yu Gothic,Yu Gothic_MSFontService,sans-serif" font-weight="400" font-size="13" transform="translate(380.342 333)">Device</text><path d="M0.703014 0.230593 48.1413 47.5656 47.6704 48.0375 0.232124 0.702511ZM2.51171 9.50548-0.0010936-0.00109124 9.51093 2.491C9.68901 2.53766 9.79555 2.71985 9.74889 2.89793 9.70224 3.07602 9.52005 3.18256 9.34196 3.1359L0.382718 0.788632 0.789464 0.381 3.15624 9.33511C3.20328 9.5131 3.09714 9.69552 2.91915 9.74256 2.74117 9.78961 2.55875 9.68346 2.51171 9.50548ZM45.8617 38.7627 48.3745 48.2692 38.8625 45.7771C38.6844 45.7305 38.5779 45.5483 38.6245 45.3702 38.6712 45.1921 38.8534 45.0856 39.0315 45.1322L47.9907 47.4795 47.584 47.8871 45.2172 38.933C45.1702 38.755 45.2763 38.5726 45.4543 38.5256 45.6323 38.4785 45.8147 38.5847 45.8617 38.7627Z" fill="#4472C4" transform="matrix(1 0 0 -1 436.5 329.768)"/><g clip-path="url(#clip15)"><g clip-path="url(#clip16)"><g clip-path="url(#clip17)"><path d="M33 16.225C32.8464 12.6247 30.1358 9.65156 26.565 9.16667 26.3759 4.0308 22.077 0.0103619 16.94 0.165001 12.8666 0.0897832 9.1904 2.59693 7.77333 6.41667 3.43546 6.94046 0.131662 10.5559-4.19617e-07 14.9233 0.1889 19.8715 4.34632 23.7337 9.295 23.5583L10.1017 23.5583 25.1533 23.5583C25.2871 23.5774 25.4229 23.5774 25.5567 23.5583 29.6129 23.5296 32.9108 20.2803 33 16.225Z" fill="url(#fill18)" transform="matrix(1 0 0 1.0303 375 138)"/><path d="M15.73 15.51 17.16 15.51 17.16 26.8583 15.73 26.8583Z" fill="#B3B3B3" transform="matrix(1 0 0 1.0303 375 138)"/><path d="M20.2583 12.0817C20.2583 14.1877 18.551 15.895 16.445 15.895 14.339 15.895 12.6317 14.1877 12.6317 12.0817 12.6317 9.97562 14.339 8.26833 16.445 8.26833 18.551 8.26833 20.2583 9.97562 20.2583 12.0817Z" fill="#F2F2F2" transform="matrix(1 0 0 1.0303 375 138)"/><path d="M18.5717 25.905C19.3108 25.905 19.91 26.5042 19.91 27.2433L19.91 31.4967C19.91 32.2358 19.3108 32.835 18.5717 32.835L14.3183 32.835C13.5792 32.835 12.98 32.2358 12.98 31.4967L12.98 27.2433C12.98 26.5042 13.5792 25.905 14.3183 25.905Z" fill="url(#fill19)" transform="matrix(1 0 0 1.0303 375 138)"/></g></g></g><path d="M439.093 134.942 484.853 226.534 484.256 226.832 438.497 135.24ZM437.863 144.311 438.499 134.499 446.728 139.882C446.882 139.983 446.925 140.19 446.824 140.344 446.723 140.498 446.517 140.541 446.363 140.44L438.613 135.369 439.128 135.112 438.528 144.354C438.516 144.538 438.358 144.677 438.174 144.665 437.99 144.653 437.851 144.495 437.863 144.311ZM485.486 217.461 484.85 227.274 476.621 221.89C476.467 221.789 476.424 221.583 476.525 221.428 476.626 221.274 476.832 221.231 476.986 221.332L484.736 226.403 484.221 226.66 484.82 217.418C484.832 217.234 484.991 217.095 485.175 217.107 485.358 217.119 485.498 217.278 485.486 217.461Z" fill="#4472C4"/><rect x="345.5" y="93.5001" width="93" height="83" stroke="#44546A" stroke-width="1.33333" stroke-miterlimit="8" fill="none"/><text font-family="Yu Gothic,Yu Gothic_MSFontService,sans-serif" font-weight="400" font-size="13" transform="translate(364.367 109)">IoT</text><text font-family="Yu Gothic,Yu Gothic_MSFontService,sans-serif" font-weight="400" font-size="13" transform="translate(387.867 109)">Edge</text><text font-family="Yu Gothic,Yu Gothic_MSFontService,sans-serif" font-weight="400" font-size="13" transform="translate(370.613 125)">Device</text><g clip-path="url(#clip20)"><g clip-path="url(#clip21)"><g clip-path="url(#clip22)"><path d="M278 182.717C277.842 179.007 275.049 175.944 271.37 175.444 271.175 170.153 266.746 166.011 261.453 166.17 257.256 166.092 253.469 168.676 252.009 172.611 247.54 173.151 244.136 176.876 244 181.376 244.195 186.474 248.478 190.453 253.577 190.272L254.408 190.272 269.916 190.272C270.053 190.292 270.193 190.292 270.331 190.272 274.51 190.243 277.908 186.895 278 182.717Z" fill="url(#fill23)"/><path d="M260.207 181.98 261.68 181.98 261.68 193.672 260.207 193.672Z" fill="#B3B3B3"/><path d="M264.872 178.448C264.872 180.618 263.113 182.377 260.943 182.377 258.773 182.377 257.014 180.618 257.014 178.448 257.014 176.278 258.773 174.519 260.943 174.519 263.113 174.519 264.872 176.278 264.872 178.448Z" fill="#F2F2F2"/><path d="M263.134 192.69C263.896 192.69 264.513 193.307 264.513 194.069L264.513 198.451C264.513 199.213 263.896 199.83 263.134 199.83L258.752 199.83C257.991 199.83 257.373 199.213 257.373 198.451L257.373 194.069C257.373 193.307 257.991 192.69 258.752 192.69Z" fill="url(#fill24)"/></g></g></g><path d="M308.173 162.806 344.863 208.515 344.343 208.932 307.653 163.224ZM308.952 172.224 307.499 162.499 316.68 166.021C316.852 166.087 316.937 166.28 316.871 166.452 316.806 166.624 316.613 166.709 316.441 166.644L307.794 163.326 308.243 162.965 309.611 172.125C309.639 172.308 309.513 172.477 309.331 172.504 309.149 172.532 308.979 172.406 308.952 172.224ZM343.564 199.514 345.017 209.239 335.837 205.717C335.665 205.651 335.579 205.458 335.645 205.286 335.711 205.114 335.904 205.029 336.075 205.095L344.722 208.412 344.273 208.773 342.905 199.613C342.878 199.431 343.003 199.261 343.185 199.234 343.367 199.206 343.537 199.332 343.564 199.514Z" fill="#4472C4"/><rect x="214.5" y="121.5" width="93" height="83" stroke="#44546A" stroke-width="1.33333" stroke-miterlimit="8" fill="none"/><text font-family="Yu Gothic,Yu Gothic_MSFontService,sans-serif" font-weight="400" font-size="13" transform="translate(233.581 138)">IoT</text><text font-family="Yu Gothic,Yu Gothic_MSFontService,sans-serif" font-weight="400" font-size="13" transform="translate(257.081 138)">Edge</text><text font-family="Yu Gothic,Yu Gothic_MSFontService,sans-serif" font-weight="400" font-size="13" transform="translate(239.828 154)">Device</text><rect x="217.5" y="234.5" width="93" height="63" stroke="#44546A" stroke-width="1.33333" stroke-miterlimit="8" fill="none"/><text font-family="Yu Gothic,Yu Gothic_MSFontService,sans-serif" font-weight="400" font-size="13" transform="translate(231.127 270)">IoT</text><text font-family="Yu Gothic,Yu Gothic_MSFontService,sans-serif" font-weight="400" font-size="13" transform="translate(254.627 270)">Device</text><path d="M0.735076-0.0791596 33.97 12.4478 33.7349 13.0716 0.499943 0.544665ZM6.19884 7.63133-0.00144572-0.000544927 9.6938-1.64106C9.87531-1.67177 10.0474-1.54952 10.0781-1.36801 10.1088-1.18649 9.98654-1.01445 9.80502-0.983736L0.673198 0.561443 0.876301 0.0225965 6.71627 7.21096C6.83235 7.35385 6.81062 7.56378 6.66774 7.67986 6.52485 7.79594 6.31492 7.77421 6.19884 7.63133ZM28.2713 5.36121 34.4716 12.9931 24.7763 14.6336C24.5948 14.6643 24.4228 14.5421 24.3921 14.3606 24.3613 14.179 24.4836 14.007 24.6651 13.9763L33.7969 12.4311 33.5938 12.9699 27.7539 5.78158C27.6378 5.6387 27.6595 5.42877 27.8024 5.31268 27.9453 5.1966 28.1552 5.21833 28.2713 5.36121Z" fill="#4472C4" transform="matrix(1 0 0 -1 310.5 266.493)"/><path d="M187.16 162.167 189.827 162.167 189.827 162.833 187.16 162.833ZM191.827 162.167 194.493 162.167 194.493 162.833 191.827 162.833ZM196.493 162.167 199.16 162.167 199.16 162.833 196.493 162.833ZM201.16 162.167 203.827 162.167 203.827 162.833 201.16 162.833ZM205.827 162.167 208.493 162.167 208.493 162.833 205.827 162.833ZM210.493 162.167 213.16 162.167 213.16 162.833 210.493 162.833ZM194.992 167.455 186.499 162.5 194.992 157.545C195.151 157.453 195.355 157.506 195.448 157.665 195.541 157.824 195.487 158.029 195.328 158.121L187.328 162.788 187.328 162.212 195.328 166.879C195.487 166.972 195.541 167.176 195.448 167.335 195.355 167.494 195.151 167.547 194.992 167.455ZM205.999 157.546 214.492 162.5 205.999 167.455C205.84 167.547 205.636 167.494 205.543 167.335 205.45 167.176 205.504 166.972 205.663 166.879L213.663 162.212 213.663 162.788 205.663 158.121C205.504 158.029 205.45 157.825 205.543 157.665 205.636 157.506 205.84 157.453 205.999 157.546Z" fill="#4472C4"/><text font-family="Yu Gothic,Yu Gothic_MSFontService,sans-serif" font-weight="400" font-size="13" transform="translate(473.362 153)">多段接続可能な</text><text font-family="Yu Gothic,Yu Gothic_MSFontService,sans-serif" font-weight="400" font-size="13" transform="translate(570.529 153)">IoT</text><text font-family="Yu Gothic,Yu Gothic_MSFontService,sans-serif" font-weight="400" font-size="13" transform="translate(594.029 153)">Edge</text></g></svg>