<svg width="608" height="250" xmlns="http://www.w3.org/2000/svg" xmlns:xlink="http://www.w3.org/1999/xlink" overflow="hidden"><defs><clipPath id="clip0"><rect x="38" y="366" width="608" height="250"/></clipPath><clipPath id="clip1"><rect x="110" y="467" width="44" height="44"/></clipPath><clipPath id="clip2"><rect x="110" y="467" width="44" height="44"/></clipPath><clipPath id="clip3"><rect x="110" y="467" width="44" height="44"/></clipPath><clipPath id="clip4"><rect x="215" y="474" width="31" height="31"/></clipPath><clipPath id="clip5"><rect x="215" y="474" width="31" height="31"/></clipPath><clipPath id="clip6"><rect x="215" y="474" width="31" height="31"/></clipPath><linearGradient x1="230.724" y1="506.395" x2="230.242" y2="460.05" gradientUnits="userSpaceOnUse" spreadMethod="pad" id="fill7"><stop offset="0" stop-color="#198AB3"/><stop offset="0" stop-color="#198AB3"/><stop offset="0.09" stop-color="#22A5CB"/><stop offset="0.19" stop-color="#29BADE"/><stop offset="0.29" stop-color="#2EC9EB"/><stop offset="0.42" stop-color="#31D1F3"/><stop offset="0.62" stop-color="#32D4F5"/><stop offset="1" stop-color="#32D4F5"/></linearGradient><clipPath id="clip8"><rect x="269" y="473" width="32" height="31"/></clipPath><clipPath id="clip9"><rect x="269" y="473" width="32" height="31"/></clipPath><clipPath id="clip10"><rect x="269" y="473" width="32" height="31"/></clipPath><linearGradient x1="19.0822" y1="28.5338" x2="19.0822" y2="2.12333" gradientUnits="userSpaceOnUse" spreadMethod="pad" id="fill11"><stop offset="0" stop-color="#949494"/><stop offset="0.33" stop-color="#9B9B9B"/><stop offset="0.82" stop-color="#AEAFB0"/><stop offset="1" stop-color="#B6B8B9"/></linearGradient><clipPath id="clip12"><rect x="324" y="473" width="31" height="31"/></clipPath><clipPath id="clip13"><rect x="324" y="473" width="31" height="31"/></clipPath><clipPath id="clip14"><rect x="324" y="473" width="31" height="31"/></clipPath><clipPath id="clip15"><rect x="378" y="473" width="31" height="31"/></clipPath><clipPath id="clip16"><rect x="378" y="473" width="31" height="31"/></clipPath><clipPath id="clip17"><rect x="378" y="473" width="31" height="31"/></clipPath><linearGradient x1="393.715" y1="502.032" x2="393.715" y2="474.547" gradientUnits="userSpaceOnUse" spreadMethod="pad" id="fill18"><stop offset="0" stop-color="#FEA11B"/><stop offset="0.284" stop-color="#FEA51A"/><stop offset="0.547" stop-color="#FEB018"/><stop offset="0.8" stop-color="#FFC314"/><stop offset="1" stop-color="#FFD70F"/></linearGradient><clipPath id="clip19"><rect x="432" y="474" width="31" height="31"/></clipPath><clipPath id="clip20"><rect x="432" y="474" width="31" height="31"/></clipPath><clipPath id="clip21"><rect x="432" y="474" width="31" height="31"/></clipPath><linearGradient x1="447.949" y1="473.373" x2="442.709" y2="508.534" gradientUnits="userSpaceOnUse" spreadMethod="pad" id="fill22"><stop offset="0" stop-color="#32BEDD"/><stop offset="1" stop-color="#198AB3"/></linearGradient><linearGradient x1="450.597" y1="486.724" x2="456.871" y2="506.836" gradientUnits="userSpaceOnUse" spreadMethod="pad" id="fill23"><stop offset="0" stop-color="#50E6FF"/><stop offset="0.997" stop-color="#32BEDD"/><stop offset="1" stop-color="#32BEDD"/></linearGradient><linearGradient x1="431.711" y1="481.085" x2="453.652" y2="492.764" gradientUnits="userSpaceOnUse" spreadMethod="pad" id="fill24"><stop offset="0" stop-color="#FFFFFF"/><stop offset="1" stop-color="#9CEBFF"/></linearGradient><clipPath id="clip25"><rect x="432" y="531" width="31" height="31"/></clipPath><clipPath id="clip26"><rect x="432" y="531" width="31" height="31"/></clipPath><clipPath id="clip27"><rect x="432" y="531" width="31" height="31"/></clipPath><linearGradient x1="434.239" y1="545.811" x2="462.139" y2="545.811" gradientUnits="userSpaceOnUse" spreadMethod="pad" id="fill28"><stop offset="0" stop-color="#54AEF0"/><stop offset="0.1" stop-color="#54AEF0"/><stop offset="1" stop-color="#1988D9"/></linearGradient><linearGradient x1="432.859" y1="554.6" x2="445.965" y2="554.6" gradientUnits="userSpaceOnUse" spreadMethod="pad" id="fill29"><stop offset="0" stop-color="#B3B2B3"/><stop offset="1" stop-color="#979797"/></linearGradient><linearGradient x1="432.853" y1="548.352" x2="441.843" y2="548.352" gradientUnits="userSpaceOnUse" spreadMethod="pad" id="fill30"><stop offset="0" stop-color="#B3B2B3"/><stop offset="1" stop-color="#979797"/></linearGradient><linearGradient x1="441.1" y1="556.636" x2="450.072" y2="556.636" gradientUnits="userSpaceOnUse" spreadMethod="pad" id="fill31"><stop offset="0" stop-color="#B3B2B3"/><stop offset="1" stop-color="#979797"/></linearGradient><clipPath id="clip32"><rect x="269" y="531" width="32" height="31"/></clipPath><clipPath id="clip33"><rect x="269" y="531" width="32" height="31"/></clipPath><clipPath id="clip34"><rect x="269" y="531" width="32" height="31"/></clipPath><linearGradient x1="0.861111" y1="17.1533" x2="21.4072" y2="17.1533" gradientUnits="userSpaceOnUse" spreadMethod="pad" id="fill35"><stop offset="0" stop-color="#005BA1"/><stop offset="0.07" stop-color="#0060A9"/><stop offset="0.36" stop-color="#0071C8"/><stop offset="0.52" stop-color="#0078D4"/><stop offset="0.64" stop-color="#0074CD"/><stop offset="0.82" stop-color="#006ABB"/><stop offset="1" stop-color="#005BA1"/></linearGradient><linearGradient x1="20.2706" y1="29.3294" x2="20.2706" y2="15.3278" gradientUnits="userSpaceOnUse" spreadMethod="pad" id="fill36"><stop offset="0" stop-color="#198AB3"/><stop offset="0" stop-color="#198AB3"/><stop offset="0.11" stop-color="#22A5CB"/><stop offset="0.23" stop-color="#29BADE"/><stop offset="0.37" stop-color="#2EC9EB"/><stop offset="0.53" stop-color="#31D1F3"/><stop offset="0.78" stop-color="#32D4F5"/><stop offset="1" stop-color="#32D4F5"/></linearGradient><clipPath id="clip37"><rect x="215" y="415" width="31" height="32"/></clipPath><clipPath id="clip38"><rect x="215" y="415" width="31" height="32"/></clipPath><clipPath id="clip39"><rect x="215" y="415" width="31" height="32"/></clipPath><linearGradient x1="15.7154" y1="29.0315" x2="15.7154" y2="1.54699" gradientUnits="userSpaceOnUse" spreadMethod="pad" id="fill40"><stop offset="0" stop-color="#FEA11B"/><stop offset="0.284" stop-color="#FEA51A"/><stop offset="0.547" stop-color="#FEB018"/><stop offset="0.8" stop-color="#FFC314"/><stop offset="1" stop-color="#FFD70F"/></linearGradient><clipPath id="clip41"><rect x="432" y="417" width="31" height="31"/></clipPath><clipPath id="clip42"><rect x="432" y="417" width="31" height="31"/></clipPath><clipPath id="clip43"><rect x="432" y="417" width="31" height="31"/></clipPath><radialGradient cx="4649.52" cy="3578.36" r="48.597" gradientUnits="userSpaceOnUse" spreadMethod="pad" id="fill44" gradientTransform="matrix(0.258333 0 0 0.258333 -755.715 -494.617)"><stop offset="0" stop-color="#5EA0EF"/><stop offset="0.183" stop-color="#5EA0EF"/><stop offset="1" stop-color="#0078D4"/></radialGradient><linearGradient x1="438.62" y1="433.466" x2="438.574" y2="427.617" gradientUnits="userSpaceOnUse" spreadMethod="pad" id="fill45"><stop offset="0" stop-color="#CCCCCC"/><stop offset="0.123" stop-color="#D7D7D7"/><stop offset="1" stop-color="#FCFCFC"/></linearGradient><linearGradient x1="447.092" y1="439.317" x2="447.092" y2="434.072" gradientUnits="userSpaceOnUse" spreadMethod="pad" id="fill46"><stop offset="0" stop-color="#CCCCCC"/><stop offset="0.123" stop-color="#D7D7D7"/><stop offset="1" stop-color="#FCFCFC"/></linearGradient><linearGradient x1="438.62" y1="433.466" x2="438.574" y2="427.617" gradientUnits="userSpaceOnUse" spreadMethod="pad" id="fill47"><stop offset="0" stop-color="#CCCCCC"/><stop offset="0.123" stop-color="#D7D7D7"/><stop offset="1" stop-color="#FCFCFC"/></linearGradient><linearGradient x1="456.954" y1="443.786" x2="452.17" y2="429.328" gradientUnits="userSpaceOnUse" spreadMethod="pad" id="fill48"><stop offset="0" stop-color="#32BEDD"/><stop offset="0.576" stop-color="#32CEEF"/><stop offset="1" stop-color="#32D4F5"/></linearGradient><clipPath id="clip49"><rect x="346" y="522" width="40" height="40"/></clipPath><clipPath id="clip50"><rect x="346" y="522" width="40" height="40"/></clipPath><clipPath id="clip51"><rect x="346" y="522" width="40" height="40"/></clipPath><linearGradient x1="366" y1="564.511" x2="366" y2="521.356" gradientUnits="userSpaceOnUse" spreadMethod="pad" id="fill52"><stop offset="0" stop-color="#0078D4"/><stop offset="0.16" stop-color="#1380DA"/><stop offset="0.53" stop-color="#3C91E5"/><stop offset="0.82" stop-color="#559CEC"/><stop offset="1" stop-color="#5EA0EF"/></linearGradient><clipPath id="clip53"><rect x="486" y="473" width="32" height="31"/></clipPath><clipPath id="clip54"><rect x="486" y="473" width="32" height="31"/></clipPath><clipPath id="clip55"><rect x="486" y="473" width="32" height="31"/></clipPath><linearGradient x1="15.7154" y1="29.0315" x2="15.7154" y2="1.54699" gradientUnits="userSpaceOnUse" spreadMethod="pad" id="fill56"><stop offset="0" stop-color="#FEA11B"/><stop offset="0.284" stop-color="#FEA51A"/><stop offset="0.547" stop-color="#FEB018"/><stop offset="0.8" stop-color="#FFC314"/><stop offset="1" stop-color="#FFD70F"/></linearGradient><clipPath id="clip57"><rect x="559" y="474" width="31" height="30"/></clipPath><clipPath id="clip58"><rect x="559" y="474" width="31" height="30"/></clipPath><clipPath id="clip59"><rect x="559" y="474" width="31" height="30"/></clipPath><linearGradient x1="8.41667" y1="17.5833" x2="8.41667" y2="22.4667" gradientUnits="userSpaceOnUse" spreadMethod="pad" id="fill60"><stop offset="0" stop-color="#76BC2D"/><stop offset="1" stop-color="#5E9624"/></linearGradient><linearGradient x1="21.4" y1="17.6167" x2="21.4" y2="22.5" gradientUnits="userSpaceOnUse" spreadMethod="pad" id="fill61"><stop offset="0" stop-color="#76BC2D"/><stop offset="1" stop-color="#5E9624"/></linearGradient></defs><g clip-path="url(#clip0)" transform="translate(-38 -366)"><g clip-path="url(#clip1)"><g clip-path="url(#clip2)"><g clip-path="url(#clip3)"><path d="M127.413 496.631 126.879 497.656 126.857 497.697C125.618 499.803 123.331 501.11 120.886 501.11 119.659 501.11 118.448 500.78 117.386 500.155 115.792 499.217 114.659 497.716 114.195 495.927 114.175 495.851 114.158 495.774 114.141 495.697L113.259 502.47 128.179 502.47 127.413 496.631Z" fill="#4B4B4B"/><path d="M128.295 472.078 115.71 491.144C114.028 494.004 114.983 497.69 117.845 499.372 120.707 501.055 124.391 500.099 126.074 497.237L134.616 480.818 129.907 476.342C128.679 475.076 128.261 473.662 128.295 472.078ZM122.959 495.405C122.288 496.547 120.818 496.928 119.677 496.257 118.535 495.585 118.154 494.117 118.826 492.975 119.497 491.833 120.966 491.452 122.107 492.123 123.249 492.795 123.631 494.264 122.959 495.405Z" fill="#4B4B4B"/><path d="M128.597 503.287 112.946 503.287C111.88 503.287 111.017 504.151 111.017 505.217L111.017 511 130.525 511 130.525 505.217C130.525 504.151 129.662 503.287 128.597 503.287Z" fill="#4B4B4B"/><path d="M148.674 482.962C149.291 482.962 149.884 483.07 150.434 483.268L138.231 468.679C136.285 466.565 132.992 466.429 130.879 468.376 128.764 470.321 128.629 473.613 130.575 475.727L143.462 487.97C143.571 485.19 145.867 482.962 148.674 482.962ZM135.745 473.663C134.94 474.405 133.685 474.352 132.944 473.546 132.201 472.741 132.253 471.486 133.059 470.745 133.865 470.002 135.12 470.054 135.863 470.86 136.604 471.666 136.552 472.92 135.745 473.663Z" fill="#4B4B4B"/><path d="M147.096 498.387 148.779 500.279 150.461 498.387 150.461 495.271 147.096 495.271Z" fill="#4B4B4B"/><path d="M148.674 483.869C146.294 483.869 144.364 485.798 144.364 488.179L144.364 494.381 152.983 494.381 152.983 488.179C152.983 485.798 151.055 483.869 148.674 483.869ZM148.674 489.73C147.744 489.73 146.991 488.976 146.991 488.047 146.991 487.118 147.744 486.364 148.674 486.364 149.603 486.364 150.357 487.118 150.357 488.047 150.357 488.976 149.603 489.73 148.674 489.73Z" fill="#4B4B4B"/></g></g></g><g clip-path="url(#clip4)"><g clip-path="url(#clip5)"><g clip-path="url(#clip6)"><path d="M238.026 488.536C238.026 490.409 236.507 491.928 234.633 491.928 232.76 491.928 231.241 490.409 231.241 488.536 231.241 486.662 232.76 485.143 234.633 485.143 236.507 485.143 238.026 486.662 238.026 488.536Z" fill="#FFFFFF"/><path d="M242.986 498.628C242.986 500.102 241.791 501.297 240.317 501.297 238.842 501.297 237.647 500.102 237.647 498.628 237.647 497.153 238.842 495.958 240.317 495.958 241.791 495.958 242.986 497.153 242.986 498.628Z" fill="#FFFFFF"/><path d="M232.05 496.802C232.05 498.067 231.024 499.093 229.759 499.093 228.494 499.093 227.469 498.067 227.469 496.802 227.469 495.537 228.494 494.512 229.759 494.512 231.024 494.512 232.05 495.537 232.05 496.802Z" fill="#FFFFFF"/><path d="M230.948 479.356C230.948 480.926 229.676 482.198 228.106 482.198 226.537 482.198 225.264 480.926 225.264 479.356 225.264 477.787 226.537 476.514 228.106 476.514 229.676 476.514 230.948 477.787 230.948 479.356Z" fill="#FFFFFF"/><path d="M222.784 489.827C222.784 491.092 221.759 492.118 220.494 492.118 219.229 492.118 218.203 491.092 218.203 489.827 218.203 488.562 219.229 487.537 220.494 487.537 221.759 487.537 222.784 488.562 222.784 489.827Z" fill="#FFFFFF"/><path d="M240.937 498.094 235.202 488.053 234.633 488.381 235.098 488.036 228.606 478.805 227.417 479.666 233.169 487.847 220.425 488.897 220.546 490.378 233.169 489.328 228.984 496.286 230.242 497.043 234.547 489.879 239.662 498.817 240.937 498.094Z" fill="#949494"/><path d="M245.191 476.118 245.191 476.118C245.191 475.424 244.628 474.861 243.933 474.861L237.389 474.861C237.046 474.861 236.769 475.139 236.769 475.481L236.769 477.909C236.769 478.252 237.046 478.529 237.389 478.529L241.436 478.529 241.436 482.491C241.445 482.839 241.725 483.119 242.073 483.128L244.484 483.128C244.833 483.119 245.113 482.839 245.122 482.491L245.122 476.118Z" fill="#949494"/><path d="M223.611 500.471 219.495 500.471 219.495 496.509C219.486 496.161 219.206 495.881 218.858 495.872L216.447 495.872C216.099 495.881 215.818 496.161 215.809 496.509L215.809 502.882 215.809 502.882C215.819 503.569 216.379 504.122 217.067 504.122L223.611 504.122C223.954 504.122 224.231 503.844 224.231 503.502L224.231 501.091C224.231 500.748 223.954 500.471 223.611 500.471Z" fill="#949494"/><path d="M234.633 485.177C236.536 485.178 238.077 486.72 238.077 488.623 238.076 490.525 236.533 492.067 234.631 492.066 232.729 492.066 231.187 490.523 231.188 488.621 231.188 488.592 231.188 488.564 231.189 488.536 231.236 486.667 232.764 485.177 234.633 485.177ZM225.333 479.356C225.324 480.935 226.597 482.222 228.176 482.231 229.755 482.24 231.042 480.968 231.051 479.389 231.06 477.81 229.787 476.523 228.209 476.514 228.18 476.513 228.152 476.514 228.123 476.514 226.574 476.543 225.333 477.807 225.333 479.356ZM218.203 489.81C218.203 491.075 219.229 492.101 220.494 492.101 221.759 492.101 222.784 491.075 222.784 489.81 222.784 488.545 221.759 487.519 220.494 487.519 219.229 487.519 218.203 488.545 218.203 489.81ZM227.469 496.785C227.459 498.06 228.485 499.1 229.759 499.11 231.034 499.119 232.075 498.094 232.084 496.819 232.094 495.545 231.068 494.504 229.794 494.495 229.788 494.494 229.782 494.494 229.777 494.494 228.512 494.485 227.478 495.503 227.469 496.768 227.469 496.773 227.469 496.779 227.469 496.785ZM237.664 498.628C237.655 500.102 238.842 501.305 240.317 501.314 241.791 501.324 242.994 500.136 243.003 498.662 243.013 497.188 241.825 495.985 240.351 495.976 240.345 495.976 240.34 495.976 240.334 495.976 238.879 495.957 237.684 497.121 237.665 498.576 237.664 498.593 237.664 498.61 237.664 498.628Z" fill="url(#fill7)"/></g></g></g><g clip-path="url(#clip8)"><g clip-path="url(#clip9)"><g clip-path="url(#clip10)"><path d="M31 16.6883 31 13.6056 30.8278 13.4506 27.6589 12.3828 26.8494 10.3333 28.4167 7.09556 28.5889 6.73389 27.5556 5.68333 26.35 4.495 25.9367 4.70167 22.8367 6.26889 20.7528 5.68333 19.4094 2.23889 16.3267 2.23889 16.1717 2.39389 15.1039 5.54556 12.9339 6.355 9.35167 4.63278 7.14722 6.78556 7.35389 7.19889 9.00722 10.3333C10.6688 9.3321 12.5787 8.81882 14.5183 8.85222 16.7202 8.86346 18.8658 9.54861 20.6667 10.8156 20.8831 10.9508 21.0902 11.1004 21.2867 11.2633L21.2867 11.2633C22.0105 11.8887 22.5619 12.6892 22.8883 13.5883L22.8883 13.5883C23.1289 14.1969 23.2516 14.8456 23.25 15.5 23.2501 18.5722 20.7596 21.0628 17.6873 21.0629 17.6758 21.0629 17.6643 21.0628 17.6528 21.0628 16.5006 21.0615 15.3765 20.7068 14.4322 20.0467 12.5677 21.839 10.1251 22.9077 7.54333 23.0606L7.21611 23.7322 9.42056 25.9539 9.86833 25.8333 12.9683 24.1111 15.1039 24.9894 16.4644 28.7094 19.5644 28.7094 19.685 28.2789 20.7872 24.9894 22.8883 24.1111 26.5222 25.8333 28.7094 23.6633 28.5028 23.25 26.9011 20.1672 27.5556 18.0144Z" fill="url(#fill11)" transform="matrix(1.03226 0 0 1 269 473)"/><path d="M6.88889 18.3417 6.88889 18.3417C5.23704 18.3503 3.65005 17.6994 2.48 16.5333 2.10632 16.3057 1.98788 15.8183 2.21546 15.4446 2.44305 15.071 2.93047 14.9525 3.30415 15.1801 3.43053 15.2571 3.53282 15.3679 3.59944 15.5 4.48358 16.3423 5.66837 16.7951 6.88889 16.7572L6.88889 16.7572C8.09267 16.787 9.25839 16.3343 10.1267 15.5 11.3012 14.3616 12.883 13.7413 14.5183 13.7778 16.1625 13.7491 17.7521 14.3676 18.9444 15.5 19.2662 15.7965 19.2866 16.2977 18.99 16.6194 18.6935 16.9412 18.1923 16.9616 17.8706 16.665 17.8548 16.6504 17.8396 16.6352 17.825 16.6194 16.9591 15.7607 15.7895 15.278 14.57 15.2761L14.57 15.2761C13.3534 15.2673 12.1852 15.752 11.3322 16.6194 10.1386 17.7609 8.53996 18.3805 6.88889 18.3417Z" fill="#50E6FF" transform="matrix(1.03226 0 0 1 269 473)"/><path d="M6.88889 15.19 6.88889 15.19C6.07575 15.1894 5.29581 14.8675 4.71889 14.2944 4.42235 13.9727 4.44275 13.4715 4.76445 13.175 5.06781 12.8954 5.53498 12.8954 5.83833 13.175 6.11522 13.4557 6.49466 13.6112 6.88889 13.6056L6.88889 13.6056C7.26937 13.5716 7.63016 13.4212 7.92222 13.175 11.5841 9.56163 17.4698 9.56163 21.1317 13.175 21.4282 13.4967 21.4078 13.9979 21.0861 14.2944 20.7827 14.5741 20.3156 14.5741 20.0122 14.2944 16.957 11.2625 12.028 11.2625 8.97278 14.2944 8.40382 14.8268 7.66669 15.1436 6.88889 15.19Z" fill="#50E6FF" transform="matrix(1.03226 0 0 1 269 473)"/><path d="M6.88889 21.4933C4.38989 21.5113 1.98841 20.5247 0.223889 18.755-0.0648973 18.4443-0.0648973 17.9634 0.223889 17.6528 0.539053 17.342 1.04539 17.342 1.36056 17.6528 2.82191 19.1243 4.81513 19.9439 6.88889 19.9261 8.95804 19.9289 10.9424 19.1042 12.4 17.6356 12.9763 17.122 13.7126 16.8238 14.4839 16.7917 15.2896 16.804 16.0599 17.1245 16.6367 17.6872 16.9454 17.9965 16.9454 18.4974 16.6367 18.8067 16.3215 19.1174 15.8152 19.1174 15.5 18.8067 15.2326 18.5329 14.8666 18.3778 14.4839 18.3761L14.4839 18.3761C14.099 18.4054 13.7351 18.563 13.4506 18.8239 11.7001 20.5429 9.34226 21.5021 6.88889 21.4933Z" fill="#32BEDD" transform="matrix(1.03226 0 0 1 269 473)"/></g></g></g><g clip-path="url(#clip12)"><g clip-path="url(#clip13)"><g clip-path="url(#clip14)"><path d="M342.652 487.501C342.662 487.742 342.479 487.948 342.238 487.966L338.639 487.966C338.398 487.976 338.192 487.793 338.174 487.553L338.174 484.866C338.164 484.625 338.347 484.419 338.587 484.401L342.187 484.401C342.428 484.391 342.633 484.574 342.652 484.814L342.652 487.501Z" fill="#76BC2D"/><path d="M349.041 490.222C349.051 490.463 348.868 490.669 348.628 490.687L345.028 490.687C344.787 490.697 344.582 490.514 344.563 490.274L344.563 487.604C344.553 487.363 344.736 487.158 344.977 487.139L348.576 487.139C348.817 487.129 349.023 487.312 349.041 487.553L349.041 490.222Z" fill="#76BC2D"/><path d="M342.652 492.978C342.662 493.219 342.479 493.424 342.238 493.443L338.639 493.443C338.398 493.453 338.192 493.27 338.174 493.029L338.174 490.343C338.164 490.102 338.347 489.896 338.587 489.878L342.187 489.878C342.428 489.868 342.633 490.051 342.652 490.291L342.652 492.978Z" fill="#76BC2D"/><path d="M336.262 484.78C336.272 485.012 336.097 485.209 335.866 485.228L332.163 485.228C331.928 485.238 331.725 485.065 331.698 484.832L331.698 482.042C331.706 481.814 331.884 481.629 332.112 481.611L335.711 481.611C336.09 481.611 336.262 481.801 336.262 482.076Z" fill="#86D633"/><path d="M336.262 490.222C336.282 490.459 336.106 490.667 335.869 490.687 335.868 490.687 335.867 490.687 335.866 490.687L332.163 490.687C331.916 490.697 331.708 490.504 331.698 490.257 331.698 490.246 331.698 490.234 331.698 490.222L331.698 487.501C331.698 487.267 331.878 487.071 332.112 487.053L335.711 487.053C336.09 487.053 336.262 487.243 336.262 487.501Z" fill="#76BC2D"/><path d="M336.262 495.716C336.282 495.953 336.106 496.161 335.869 496.181 335.868 496.181 335.867 496.181 335.866 496.181L332.163 496.181C331.922 496.191 331.717 496.008 331.698 495.768L331.698 492.978C331.689 492.74 331.873 492.54 332.111 492.53 332.111 492.53 332.111 492.53 332.112 492.53L335.711 492.53C336.09 492.53 336.262 492.702 336.262 492.978Z" fill="#76BC2D"/><path d="M325.843 475.601 328.064 475.601 328.064 475.601 328.064 481.801C328.064 482.076 327.841 482.3 327.565 482.3L325.361 482.3C325.085 482.3 324.861 482.076 324.861 481.801L324.861 476.634C324.833 476.092 325.248 475.63 325.79 475.602 325.807 475.601 325.825 475.601 325.843 475.601Z" fill="#999999"/><path d="M325.843 475.601 328.064 475.601 328.064 475.601 328.064 481.801C328.064 482.076 327.841 482.3 327.565 482.3L325.361 482.3C325.085 482.3 324.861 482.076 324.861 481.801L324.861 476.634C324.833 476.092 325.248 475.63 325.79 475.602 325.807 475.601 325.825 475.601 325.843 475.601Z" fill="#999999" fill-opacity="0.5"/><path d="M350.936 475.601 353.157 475.601C353.699 475.601 354.139 476.04 354.139 476.582L354.139 481.749C354.139 482.025 353.915 482.248 353.639 482.248L351.418 482.248C351.142 482.248 350.918 482.025 350.918 481.749L350.918 475.601 350.936 475.601Z" fill="#999999"/><path d="M350.936 475.601 353.157 475.601C353.699 475.601 354.139 476.04 354.139 476.582L354.139 481.749C354.139 482.025 353.915 482.248 353.639 482.248L351.418 482.248C351.142 482.248 350.918 482.025 350.918 481.749L350.918 475.601 350.936 475.601Z" fill="#999999" fill-opacity="0.5"/><path d="M354.139 476.582 354.139 478.735 354.139 478.735 324.861 478.735 324.861 478.735 324.861 476.582C324.861 476.04 325.301 475.601 325.843 475.601L353.174 475.601C353.71 475.61 354.139 476.047 354.139 476.582Z" fill="#949494"/><path d="M325.361 494.976 327.582 494.976C327.858 494.976 328.082 495.199 328.082 495.475L328.082 501.675 328.082 501.675 325.843 501.675C325.301 501.675 324.861 501.236 324.861 500.693L324.861 495.389C324.903 495.147 325.115 494.972 325.361 494.976Z" fill="#999999"/><path d="M325.361 494.976 327.582 494.976C327.858 494.976 328.082 495.199 328.082 495.475L328.082 501.675 328.082 501.675 325.843 501.675C325.301 501.675 324.861 501.236 324.861 500.693L324.861 495.389C324.903 495.147 325.115 494.972 325.361 494.976Z" fill="#999999" fill-opacity="0.5"/><path d="M351.418 494.976 353.639 494.976C353.915 494.976 354.139 495.199 354.139 495.475L354.139 500.642C354.139 501.184 353.699 501.623 353.157 501.623L350.936 501.623 350.936 501.623 350.936 495.389C350.977 495.154 351.179 494.98 351.418 494.976Z" fill="#999999"/><path d="M351.418 494.976 353.639 494.976C353.915 494.976 354.139 495.199 354.139 495.475L354.139 500.642C354.139 501.184 353.699 501.623 353.157 501.623L350.936 501.623 350.936 501.623 350.936 495.389C350.977 495.154 351.179 494.98 351.418 494.976Z" fill="#999999" fill-opacity="0.5"/><path d="M324.861 500.693 324.861 498.541 324.861 498.541 354.139 498.541 354.139 498.541 354.139 500.693C354.139 501.236 353.699 501.675 353.157 501.675L325.843 501.675C325.301 501.675 324.861 501.236 324.861 500.693Z" fill="#949494"/></g></g></g><g clip-path="url(#clip15)"><g clip-path="url(#clip16)"><g clip-path="url(#clip17)"><path d="M387.542 495.57 386.533 496.582C386.353 496.762 386.062 496.762 385.882 496.583L378.385 489.107C378.026 488.749 378.025 488.167 378.383 487.808L379.397 486.791 379.397 486.791 387.546 494.917C387.726 495.096 387.726 495.388 387.547 495.567Z" fill="#50E6FF"/><path d="M386.376 480.414 387.392 481.427C387.571 481.606 387.572 481.897 387.393 482.077L379.387 490.105 379.387 490.105 378.37 489.091C378.011 488.733 378.01 488.152 378.368 487.793L385.728 480.412C385.908 480.235 386.197 480.236 386.376 480.414Z" fill="#1490DF"/><path d="M407.604 486.798 408.617 487.814C408.975 488.173 408.975 488.754 408.616 489.112L401.118 496.589C400.938 496.768 400.647 496.768 400.468 496.588L399.46 495.577C399.28 495.397 399.281 495.106 399.46 494.927L407.608 486.802 407.608 486.802Z" fill="#50E6FF"/><path d="M408.624 489.087 407.609 490.1 407.609 490.1 399.603 482.072C399.424 481.892 399.424 481.601 399.604 481.421L400.62 480.408C400.8 480.229 401.091 480.229 401.27 480.409L408.63 487.79C408.988 488.149 408.987 488.73 408.628 489.088Z" fill="#1490DF"/><path d="M392.568 490.05 386.387 490.05C386.207 490.057 386.054 489.918 386.043 489.738 386.043 489.693 386.053 489.649 386.074 489.609L393.484 474.946C393.549 474.83 393.672 474.76 393.805 474.764L401.116 474.764C401.296 474.757 401.449 474.895 401.46 475.075 401.46 475.138 401.438 475.198 401.4 475.247L392.697 486.719 401.185 486.719C401.365 486.712 401.518 486.851 401.529 487.031 401.528 487.11 401.496 487.185 401.439 487.241L387.336 501.913C387.204 501.992 386.262 502.774 386.723 501.587L386.723 501.587Z" fill="url(#fill18)"/></g></g></g><g clip-path="url(#clip19)"><g clip-path="url(#clip20)"><g clip-path="url(#clip21)"><path d="M456.848 479.769 447.901 474.603C446.504 473.797 444.783 473.797 443.386 474.603L434.439 479.769C433.042 480.577 432.182 482.067 432.181 483.681L432.181 494.014C432.181 495.628 433.042 497.119 434.439 497.927L443.394 503.094C444.792 503.899 446.513 503.899 447.91 503.094L456.865 497.927C458.263 497.119 459.123 495.628 459.123 494.014L459.123 483.681C459.119 482.064 458.251 480.573 456.848 479.769Z" fill="url(#fill22)"/><path d="M461.006 487.335 454.714 483.703C453.591 483.056 452.209 483.056 451.086 483.703L444.796 487.335C443.672 487.982 442.98 489.18 442.983 490.477L442.983 497.741C442.983 499.037 443.674 500.234 444.796 500.882L451.086 504.514C452.209 505.162 453.591 505.162 454.714 504.514L461.006 500.882C462.131 500.236 462.825 499.038 462.828 497.741L462.828 490.477C462.826 489.179 462.131 487.981 461.006 487.335Z" fill="url(#fill23)"/><path d="M445.051 479.103 446.863 478.101 454.63 494.198 454 494.887 436.883 494.887 437.075 492.826 451.509 492.826 445.051 479.103Z" fill="url(#fill24)"/><path d="M439.288 493.952C439.288 495.379 438.132 496.535 436.705 496.535 435.278 496.535 434.122 495.379 434.122 493.952 434.122 492.525 435.278 491.369 436.705 491.369 438.132 491.369 439.288 492.525 439.288 493.952Z" fill="#FFFFFF"/><path d="M456.938 494.109C456.938 496.338 455.13 498.146 452.901 498.146 450.671 498.146 448.864 496.338 448.864 494.109 448.864 491.879 450.671 490.072 452.901 490.072 455.13 490.072 456.938 491.879 456.938 494.109Z" fill="#FFFFFF"/><path d="M448.432 478.405C448.432 479.832 447.275 480.989 445.848 480.989 444.422 480.989 443.265 479.832 443.265 478.405 443.265 476.979 444.422 475.822 445.848 475.822 447.275 475.822 448.432 476.979 448.432 478.405Z" fill="#FFFFFF"/></g></g></g><rect x="39.5001" y="367.5" width="605" height="248" stroke="#D9D9D9" stroke-width="1.33333" stroke-miterlimit="8" fill="none"/><g clip-path="url(#clip25)"><g clip-path="url(#clip26)"><g clip-path="url(#clip27)"><path d="M434.532 533.532 460.468 559.468C460.824 559.878 461.444 559.922 461.853 559.567 462.08 559.37 462.205 559.08 462.191 558.779L462.191 532.843C462.191 532.301 461.752 531.86 461.21 531.86 461.193 531.86 461.175 531.86 461.157 531.861L435.221 531.861C434.678 531.867 434.244 532.311 434.249 532.853 434.252 533.107 434.353 533.351 434.532 533.532Z" fill="url(#fill28)"/><path d="M441.524 540.524 453.476 552.476 462.087 543.865 462.087 532.843C462.088 532.32 461.679 531.889 461.157 531.861L450.187 531.861Z" fill="#50E6FF"/><path d="M443.75 548.188C443.931 548.007 444.226 548.007 444.407 548.188L445.82 549.601C446.001 549.783 446.001 550.077 445.82 550.259L435.067 561.012C434.885 561.193 434.591 561.193 434.409 561.012L432.996 559.599C432.815 559.418 432.815 559.123 432.996 558.942Z" fill="url(#fill29)"/><path d="M439.64 543.998C439.822 543.816 440.116 543.816 440.298 543.998L441.71 545.41C441.892 545.592 441.892 545.886 441.71 546.068L435.073 552.705C434.892 552.887 434.597 552.887 434.416 552.705L433.003 551.292C432.821 551.111 432.821 550.816 433.003 550.635Z" fill="url(#fill30)"/><path d="M447.862 552.279C448.044 552.097 448.338 552.097 448.52 552.279L449.932 553.691C450.114 553.873 450.114 554.167 449.932 554.349L443.295 560.986C443.114 561.168 442.819 561.168 442.638 560.986L441.225 559.573C441.043 559.392 441.043 559.097 441.225 558.916Z" fill="url(#fill31)"/><path d="M448.827 539.038C449.082 538.782 449.497 538.782 449.752 539.038L450.897 540.182C451.153 540.438 451.153 540.852 450.897 541.108L449.752 542.253C449.497 542.508 449.082 542.508 448.827 542.253L447.682 541.108C447.427 540.852 447.427 540.438 447.682 540.182Z" fill="#FFFFFF"/><path d="M452.96 534.897C453.216 534.642 453.63 534.642 453.886 534.897L455.03 536.042C455.286 536.298 455.286 536.712 455.03 536.968L453.886 538.112C453.63 538.368 453.216 538.368 452.96 538.112L451.815 536.968C451.56 536.712 451.56 536.298 451.815 536.042Z" fill="#FFFFFF"/><path d="M452.967 543.171C453.223 542.915 453.637 542.915 453.893 543.171L455.038 544.316C455.293 544.571 455.293 544.986 455.038 545.241L453.893 546.386C453.637 546.642 453.223 546.642 452.967 546.386L451.823 545.241C451.567 544.986 451.567 544.571 451.823 544.316Z" fill="#FFFFFF"/><path d="M455.956 540.179 457.093 539.043C457.347 538.786 457.761 538.784 458.018 539.038 458.02 539.04 458.021 539.041 458.023 539.043L459.159 540.179C459.416 540.434 459.418 540.848 459.164 541.105 459.162 541.106 459.161 541.108 459.159 541.109L458.023 542.246C457.768 542.503 457.354 542.505 457.097 542.251 457.096 542.249 457.094 542.248 457.093 542.246L455.956 541.109C455.699 540.855 455.697 540.441 455.952 540.184 455.953 540.182 455.955 540.181 455.956 540.179" fill="#FFFFFF"/></g></g></g><g clip-path="url(#clip32)"><g clip-path="url(#clip33)"><g clip-path="url(#clip34)"><path d="M11.1428 9.12778C5.45944 9.12778 0.809444 7.40556 0.809444 5.40778L0.809444 25.1961C0.809444 27.2283 5.33889 28.8989 10.9361 28.9161L11.0911 28.9161C16.7572 28.9161 21.4244 27.1939 21.4244 25.1961L21.4244 5.40778C21.4072 7.45722 16.8089 9.12778 11.1428 9.12778Z" fill="url(#fill35)" transform="matrix(1.03226 0 0 1 269 531)"/><path d="M21.4072 5.40778C21.4072 7.45722 16.8089 9.12778 11.0739 9.12778 5.33889 9.12778 0.740556 7.40556 0.740556 5.40778 0.740556 3.41 5.45944 1.72222 11.1428 1.72222 16.8261 1.72222 21.4761 3.44444 21.4761 5.45944" fill="#EAEAEA" transform="matrix(1.03226 0 0 1 269 531)"/><path d="M18.9444 5.16667C18.9444 6.47556 15.5 7.52611 11.0739 7.52611 6.64778 7.52611 3.255 6.40667 3.255 5.16667 3.255 3.92667 6.78556 2.73833 11.1428 2.73833 15.5 2.73833 18.9444 3.78889 18.9444 5.16667" fill="#50E6FF" transform="matrix(1.03226 0 0 1 269 531)"/><path d="M11.1428 5.64889C9.02346 5.59551 6.91021 5.89823 4.89111 6.54444 6.90839 7.20004 9.02227 7.50867 11.1428 7.45722 13.2576 7.50772 15.3656 7.19908 17.3772 6.54444 15.3636 5.90014 13.2563 5.59744 11.1428 5.64889Z" fill="#198AB3" transform="matrix(1.03226 0 0 1 269 531)"/><path d="M28.8472 21.9411C28.1353 21.274 27.2429 20.8308 26.2811 20.6667 26.1505 17.6115 23.5853 15.2306 20.5289 15.3278 18.0858 15.2808 15.878 16.7779 15.0178 19.065 12.4214 19.3535 10.4283 21.5005 10.3333 24.1111 10.4455 27.0658 12.9237 29.3747 15.8789 29.2778L16.3783 29.2778 25.3856 29.2778 25.6094 29.2778C28.0129 29.2611 29.978 27.3567 30.07 24.955 30.0568 23.8237 29.5917 22.7447 28.7783 21.9583" fill="url(#fill36)" transform="matrix(1.03226 0 0 1 269 531)"/><path d="M24.6278 27.2111 23.0089 27.2111 23.0089 22.8539C23.0089 22.3946 23.0089 21.878 23.0089 21.3039L23.0089 21.3039C23.0089 21.7344 22.8367 22.0617 22.785 22.2683L21.0628 27.2111 19.7194 27.2111 17.9972 22.3028C17.9012 21.975 17.8264 21.6413 17.7733 21.3039L17.7733 21.3039C17.7733 22.01 17.7733 22.6472 17.7733 23.1811L17.7733 27.2111 16.3267 27.2111 16.3267 19.9261 18.7378 19.9261 20.2189 24.2489C20.3373 24.5845 20.4237 24.9304 20.4772 25.2822L20.4772 25.2822C20.5633 24.8861 20.6667 24.5244 20.7528 24.2317L22.2511 19.9261 24.6278 19.9261Z" fill="#FFFFFF" transform="matrix(1.03226 0 0 1 269 531)"/></g></g></g><g clip-path="url(#clip37)"><g clip-path="url(#clip38)"><g clip-path="url(#clip39)"><path d="M4.14575 13.0757 5.59763 13.0757C5.85558 13.0757 6.06468 13.2848 6.06468 13.5428L6.06468 24.2972C6.06468 24.8122 5.64726 25.2296 5.13233 25.2296L3.67345 25.2296 3.67345 25.2296 3.67345 13.541C3.67345 13.2831 3.88255 13.074 4.1405 13.074Z" fill="#50E6FF" transform="matrix(-0.695192 0.71965 -0.697161 -0.717618 236.54 444.698)"/><path d="M4.0674 6.2979 5.52466 6.2979C5.78263 6.2979 5.99175 6.50703 5.99175 6.765L5.99175 18.2814 5.99175 18.2814 4.53274 18.2814C4.01777 18.2814 3.6003 17.8639 3.6003 17.349L3.6003 6.7615C3.60222 6.5049 3.81079 6.29789 4.0674 6.2979Z" fill="#1490DF" transform="matrix(0.697098 0.717553 -0.69513 0.719585 224.918 415.203)"/><path d="M25.4167 13.0757 26.8739 13.0757C27.3888 13.0757 27.8062 13.4931 27.8062 14.0081L27.8062 24.7625C27.8062 25.0205 27.5971 25.2296 27.3392 25.2296L25.8891 25.2296C25.6311 25.2296 25.422 25.0205 25.422 24.7625L25.422 13.0757 25.422 13.0757Z" fill="#50E6FF" transform="matrix(0.695192 0.71965 -0.697161 0.717618 236.051 401.569)"/><path d="M26.4302 6.2979 27.8875 6.2979 27.8875 6.2979 27.8875 17.8143C27.8875 18.0723 27.6783 18.2814 27.4204 18.2814L25.9631 18.2814C25.7051 18.2814 25.496 18.0723 25.496 17.8143L25.496 7.22684C25.496 6.71187 25.9135 6.2944 26.4284 6.2944Z" fill="#1490DF" transform="matrix(-0.697098 0.717553 -0.69513 -0.719585 268.427 417.172)"/><path d="M14.5683 17.05 8.38722 17.05C8.2068 17.0569 8.05387 16.9185 8.04278 16.7383 8.04283 16.6934 8.05345 16.6491 8.07378 16.6091L15.4845 1.94611C15.5488 1.8302 15.6723 1.75979 15.8048 1.76356L23.1157 1.76356C23.2961 1.75667 23.449 1.89507 23.4601 2.07528 23.4595 2.13775 23.4383 2.19828 23.3998 2.2475L14.6974 13.7192 23.1846 13.7192C23.365 13.7123 23.5179 13.8507 23.529 14.0309 23.5277 14.11 23.4956 14.1854 23.4394 14.2411L9.33617 28.9127C9.20356 28.9919 8.2615 29.7738 8.72306 28.5872L8.72306 28.5872Z" fill="url(#fill40)" transform="matrix(1 0 0 1.03226 215 415)"/></g></g></g><g clip-path="url(#clip41)"><g clip-path="url(#clip42)"><g clip-path="url(#clip43)"><path d="M453.109 439.716C447.631 443.965 439.745 442.968 435.496 437.489 431.247 432.011 432.244 424.125 437.723 419.876L437.856 419.78C443.436 415.666 451.295 416.855 455.409 422.435 459.419 427.876 458.403 435.514 453.109 439.716" fill="url(#fill44)"/><path d="M442.003 427.184C445.555 423.807 450.263 421.915 455.164 421.895 454.524 421.093 453.787 420.375 452.97 419.756 450.583 419.908 448.239 420.461 446.036 421.392 443.767 422.357 441.717 423.771 440.008 425.549 440.834 425.862 441.534 426.436 442.003 427.184Z" fill="#FFFFFF" fill-opacity="0.6"/><path d="M435.789 432.226C435.284 433.486 434.871 434.781 434.554 436.101 434.832 436.574 435.139 437.029 435.474 437.463 435.729 437.797 436.002 438.116 436.292 438.419 436.649 436.661 437.184 434.945 437.89 433.296 437.098 433.157 436.366 432.785 435.789 432.226Z" fill="#FFFFFF" fill-opacity="0.6"/><path d="M437.234 425.528C436.711 424.127 436.369 422.666 436.216 421.178 435.596 421.835 435.048 422.557 434.583 423.331 434.758 424.516 435.041 425.683 435.429 426.817 435.898 426.226 436.523 425.78 437.234 425.528Z" fill="#F2F2F2" fill-opacity="0.55"/><path d="M442.623 429.326C442.623 431.555 440.816 433.361 438.587 433.361 436.359 433.361 434.552 431.555 434.552 429.326 434.552 427.097 436.359 425.291 438.587 425.291 440.816 425.291 442.623 427.097 442.623 429.326Z" fill="url(#fill45)"/><path d="M444.471 436.694C444.47 435.988 444.755 435.312 445.261 434.82 443.904 434.073 442.65 433.151 441.533 432.078 440.945 432.705 440.173 433.127 439.328 433.284 439.99 433.972 440.707 434.606 441.472 435.178 442.418 435.889 443.43 436.506 444.495 437.021 444.479 436.912 444.471 436.803 444.471 436.694Z" fill="#F2F2F2" fill-opacity="0.55"/><path d="M453.772 437.007C452.403 437.007 451.038 436.848 449.704 436.533 449.704 436.587 449.713 436.64 449.713 436.694 449.715 437.379 449.447 438.038 448.967 438.528 450.625 438.855 452.317 438.976 454.005 438.888 454.64 438.288 455.21 437.623 455.705 436.904 455.063 436.973 454.418 437.007 453.772 437.007Z" fill="#F2F2F2" fill-opacity="0.55"/><path d="M449.713 436.694C449.713 438.141 448.539 439.315 447.092 439.315 445.644 439.315 444.471 438.141 444.471 436.694 444.471 435.246 445.644 434.072 447.092 434.072 448.539 434.072 449.713 435.246 449.713 436.694Z" fill="url(#fill46)"/><path d="M450.316 429.689C450.453 429.118 450.77 428.606 451.22 428.229 448.784 426.46 446.571 424.402 444.629 422.101 443.505 420.769 442.524 419.323 441.7 417.787 441.151 417.956 440.615 418.162 440.094 418.405 440.971 420.083 442.027 421.66 443.244 423.11 445.319 425.588 447.695 427.798 450.316 429.689Z" fill="#F2F2F2" fill-opacity="0.7"/><path d="M455.851 430.192C455.851 431.73 454.604 432.977 453.066 432.977 451.528 432.977 450.281 431.73 450.281 430.192 450.281 428.654 451.528 427.407 453.066 427.407 454.604 427.407 455.851 428.654 455.851 430.192Z" fill="#F2F2F2"/><path d="M457.744 432.069C457.572 431.983 457.434 431.908 457.27 431.82L457.225 431.796C457.077 431.718 456.933 431.639 456.788 431.56L456.707 431.515 456.313 431.294 456.216 431.239C456.059 431.151 455.904 431.067 455.751 430.974 455.592 431.518 455.263 431.997 454.811 432.34 454.992 432.447 455.176 432.552 455.364 432.657L455.488 432.727 456.004 433.012 456.054 433.039C456.469 433.265 456.893 433.49 457.327 433.712L457.327 433.712C457.504 433.175 457.644 432.625 457.746 432.068Z" fill="#F2F2F2" fill-opacity="0.55"/><path d="M442.623 429.326C442.623 431.555 440.816 433.361 438.587 433.361 436.359 433.361 434.552 431.555 434.552 429.326 434.552 427.097 436.359 425.291 438.587 425.291 440.816 425.291 442.623 427.097 442.623 429.326Z" fill="url(#fill47)"/><path d="M449.713 436.694C449.713 438.141 448.539 439.315 447.092 439.315 445.644 439.315 444.471 438.141 444.471 436.694 444.471 435.246 445.644 434.072 447.092 434.072 448.539 434.072 449.713 435.246 449.713 436.694Z" fill="#F2F2F2"/><path d="M462.139 435.206 461.593 433.556 461.333 433.556 459.376 433.556 458.541 432.581 458.806 430.375 457.265 429.6 457.072 429.793 455.694 431.17 454.413 431.081 453.035 429.324 451.385 429.87 451.375 430.13 451.375 432.087 450.4 432.922 448.23 432.652 447.457 434.191 447.65 434.384 449.028 435.762 448.94 437.042 447.154 438.436 447.7 440.085 447.96 440.095 449.916 440.095 450.752 441.07 450.486 443.276 452.028 444.049 452.221 443.856 453.598 442.479 454.88 442.568 456.258 444.325 457.907 443.779 457.918 443.519 457.918 441.564 458.892 440.727 461.099 440.992 461.874 439.453 461.681 439.258 460.303 437.88 460.393 436.599ZM455.699 439.992C453.947 440.572 452.056 439.622 451.475 437.87 450.894 436.117 451.844 434.226 453.597 433.645 455.349 433.065 457.241 434.015 457.821 435.767 457.822 435.769 457.822 435.771 457.823 435.772 458.401 437.524 457.451 439.412 455.699 439.992Z" fill="url(#fill48)"/><path d="M445.111 442.408 445.111 441.04 444.917 440.97 443.453 440.489 443.072 439.561 443.816 437.978 442.85 437.01 442.657 437.107 441.29 437.796 440.354 437.412 439.762 435.772 438.395 435.772 438.322 435.963 437.844 437.427 436.907 437.811 435.348 437.067 434.389 438.027 434.483 438.22 435.172 439.587 434.79 440.522 433.118 441.111 433.118 442.489 433.309 442.561 434.773 443.042 435.157 443.977 434.413 445.56 435.372 446.519 435.563 446.422 436.931 445.734 437.866 446.116 438.467 447.773 439.834 447.773 439.905 447.58 440.385 446.116 441.321 445.734 442.905 446.476 443.864 445.517 443.768 445.325 443.079 443.958 443.463 443.023ZM439.115 444.394C437.66 444.395 436.48 443.216 436.479 441.762 436.479 440.308 437.657 439.128 439.111 439.127 440.565 439.126 441.745 440.304 441.746 441.759 441.746 441.759 441.746 441.76 441.746 441.76 441.747 443.214 440.57 444.393 439.116 444.394 439.116 444.394 439.115 444.394 439.115 444.394Z" fill="#50E6FF"/><path d="M457.992 436.818C457.992 438.664 456.495 440.16 454.649 440.16 452.803 440.16 451.306 438.664 451.306 436.818 451.306 434.971 452.803 433.475 454.649 433.475 456.495 433.475 457.992 434.971 457.992 436.818Z" fill="#FFFFFF"/><path d="M441.746 441.76C441.746 443.214 440.568 444.392 439.115 444.392 437.661 444.392 436.483 443.214 436.483 441.76 436.483 440.307 437.661 439.129 439.115 439.129 440.568 439.129 441.746 440.307 441.746 441.76Z" fill="#FFFFFF"/></g></g></g><g clip-path="url(#clip49)"><g clip-path="url(#clip50)"><g clip-path="url(#clip51)"><path d="M386 547.289C385.901 542.877 382.58 539.206 378.2 538.667 377.935 532.468 372.735 527.634 366.533 527.822 361.601 527.715 357.134 530.723 355.378 535.333 350.104 535.974 346.105 540.399 346 545.711 346.229 551.709 351.268 556.39 357.267 556.178L358.244 556.178 376.489 556.178C376.651 556.201 376.816 556.201 376.978 556.178 381.89 556.131 385.88 552.199 386 547.289Z" fill="url(#fill52)"/><path d="M358.044 545.089 356.089 545.089C355.788 543.785 354.488 542.972 353.184 543.273 351.881 543.574 351.068 544.874 351.368 546.178 351.669 547.481 352.97 548.294 354.273 547.994 355.176 547.785 355.881 547.081 356.089 546.178L358.044 546.178C358.29 546.178 358.489 546.377 358.489 546.622L358.489 556.178 359.578 556.178 359.578 546.622C359.578 545.775 358.891 545.089 358.044 545.089ZM353.711 547.044C352.926 547.044 352.289 546.408 352.289 545.622 352.289 544.837 352.926 544.2 353.711 544.2 354.497 544.2 355.133 544.837 355.133 545.622 355.133 546.408 354.497 547.044 353.711 547.044Z" fill="#9CEBFF"/><path d="M365.867 545.578 365.867 543.356C365.867 542.496 365.17 541.8 364.311 541.8L360.867 541.8C360.621 541.8 360.422 541.601 360.422 541.356L360.422 529.556 359.911 529.822 359.333 530.133 359.333 541.244C359.333 542.091 360.02 542.778 360.867 542.778L364.311 542.778C364.569 542.778 364.778 542.987 364.778 543.244L364.778 545.467C363.671 545.708 362.884 546.69 362.889 547.822 362.888 549.16 363.971 550.245 365.309 550.247 366.647 550.248 367.732 549.164 367.733 547.826 367.734 546.702 366.961 545.725 365.867 545.467ZM365.311 549.356 365.311 549.356C364.526 549.356 363.889 548.719 363.889 547.933 363.889 547.148 364.526 546.511 365.311 546.511 366.097 546.511 366.733 547.148 366.733 547.933 366.733 548.719 366.097 549.356 365.311 549.356Z" fill="#F2F2F2"/><path d="M378.289 540.889C376.951 540.894 375.871 541.982 375.875 543.32 375.879 544.437 376.647 545.406 377.733 545.667L377.733 546.111C377.733 546.369 377.524 546.578 377.267 546.578L372.822 546.578 372.822 538.756C372.822 537.909 372.136 537.222 371.289 537.222L369 537.222C368.759 536.116 367.777 535.328 366.644 535.333 365.307 535.332 364.221 536.416 364.22 537.753 364.219 539.091 365.302 540.177 366.64 540.178 367.765 540.179 368.742 539.406 369 538.311L371.378 538.311C371.623 538.311 371.822 538.51 371.822 538.756L371.822 556.178 372.911 556.178 372.911 547.667 377.356 547.667C378.215 547.667 378.911 546.97 378.911 546.111L378.911 545.667C380.013 545.418 380.797 544.441 380.8 543.311L380.8 543.311C380.801 541.973 379.717 540.888 378.379 540.887 378.349 540.887 378.319 540.888 378.289 540.889ZM366.644 539.178 366.644 539.178C365.859 539.178 365.222 538.541 365.222 537.756 365.222 536.97 365.859 536.333 366.644 536.333 367.43 536.333 368.067 536.97 368.067 537.756 368.067 538.541 367.43 539.178 366.644 539.178ZM378.289 544.733 378.289 544.733C377.504 544.746 376.857 544.119 376.845 543.333 376.832 542.548 377.459 541.901 378.244 541.889 379.03 541.877 379.676 542.504 379.689 543.289 379.689 543.296 379.689 543.304 379.689 543.311 379.689 544.088 379.066 544.721 378.289 544.733Z" fill="#9CEBFF"/></g></g></g><g clip-path="url(#clip53)"><g clip-path="url(#clip54)"><g clip-path="url(#clip55)"><path d="M4.14612 13.0769 5.59813 13.0769C5.8561 13.0769 6.06523 13.286 6.06523 13.544L6.06523 24.2994C6.06523 24.8144 5.64776 25.2318 5.13279 25.2318L3.67378 25.2318 3.67378 25.2318 3.67378 13.5422C3.67378 13.2843 3.8829 13.0751 4.14087 13.0751Z" fill="#50E6FF" transform="matrix(-0.717553 0.697098 -0.719585 -0.69513 508.235 501.77)"/><path d="M4.06703 6.29734 5.52416 6.29734C5.78211 6.29734 5.99122 6.50644 5.99122 6.76439L5.99122 18.2798 5.99122 18.2798 4.53233 18.2798C4.01741 18.2798 3.59998 17.8623 3.59998 17.3474L3.59998 6.76089C3.6019 6.50431 3.81044 6.29733 4.06703 6.29734Z" fill="#1490DF" transform="matrix(0.71965 0.695192 -0.717618 0.697161 496.238 473.196)"/><path d="M25.419 13.0769 26.8763 13.0769C27.3913 13.0769 27.8087 13.4944 27.8087 14.0093L27.8087 24.7647C27.8087 25.0227 27.5996 25.2318 27.3416 25.2318L25.8914 25.2318C25.6334 25.2318 25.4243 25.0227 25.4243 24.7647L25.4243 13.0769 25.4243 13.0769Z" fill="#50E6FF" transform="matrix(0.717553 0.697098 -0.719585 0.69513 507.73 459.989)"/><path d="M26.4278 6.29734 27.885 6.29734 27.885 6.29734 27.885 17.8127C27.885 18.0707 27.6758 18.2798 27.4179 18.2798L25.9608 18.2798C25.7028 18.2798 25.4937 18.0707 25.4937 17.8127L25.4937 7.22619C25.4937 6.71127 25.9111 6.29384 26.4261 6.29384Z" fill="#1490DF" transform="matrix(-0.71965 0.695192 -0.717618 -0.697161 541.15 475.105)"/><path d="M14.5683 17.05 8.38722 17.05C8.2068 17.0569 8.05387 16.9185 8.04278 16.7383 8.04283 16.6934 8.05345 16.6491 8.07378 16.6091L15.4845 1.94611C15.5488 1.8302 15.6723 1.75979 15.8048 1.76356L23.1157 1.76356C23.2961 1.75667 23.449 1.89507 23.4601 2.07528 23.4595 2.13775 23.4383 2.19828 23.3998 2.2475L14.6974 13.7192 23.1846 13.7192C23.365 13.7123 23.5179 13.8507 23.529 14.0309 23.5277 14.11 23.4956 14.1854 23.4394 14.2411L9.33617 28.9127C9.20356 28.9919 8.2615 29.7738 8.72306 28.5872L8.72306 28.5872Z" fill="url(#fill56)" transform="matrix(1.03226 0 0 1 486 473)"/></g></g></g><path d="M155.13 489.173 214.71 489.772 214.704 490.438 155.123 489.84ZM160.247 493.174 154.498 489.5 160.319 485.942C160.477 485.846 160.682 485.896 160.778 486.053 160.874 486.21 160.824 486.415 160.667 486.511L155.3 489.791 155.306 489.225 160.606 492.612C160.761 492.711 160.806 492.917 160.707 493.073 160.608 493.228 160.402 493.273 160.247 493.174ZM209.587 486.437 215.336 490.111 209.514 493.669C209.357 493.765 209.152 493.716 209.056 493.559 208.96 493.401 209.009 493.196 209.166 493.1L214.533 489.821 214.527 490.386 209.228 486.999C209.073 486.9 209.027 486.694 209.126 486.539 209.225 486.384 209.431 486.338 209.587 486.437Z" fill="#4472C4"/><path d="M0.00885693-0.333216 22.3489 0.260587 22.3312 0.927019-0.00885693 0.333216ZM14.6424-4.56715 23.0013 0.61138 14.3791 5.33854C14.2177 5.42704 14.0151 5.36793 13.9266 5.2065 13.8381 5.04508 13.8972 4.84247 14.0586 4.75397L22.1798 0.301514 22.1645 0.877164 14.2913-4.00042C14.1348-4.09737 14.0865-4.30284 14.1835-4.45933 14.2804-4.61583 14.4859-4.6641 14.6424-4.56715Z" fill="#4472C4" transform="matrix(1 0 0 -1 246.5 490.111)"/><path d="M301.5 489.167 323.84 489.167 323.84 489.833 301.5 489.833ZM316.008 484.546 324.502 489.5 316.008 494.455C315.849 494.547 315.645 494.494 315.552 494.335 315.459 494.176 315.513 493.972 315.672 493.879L323.672 489.212 323.672 489.788 315.672 485.121C315.513 485.029 315.46 484.825 315.552 484.665 315.645 484.506 315.849 484.453 316.008 484.546Z" fill="#4472C4"/><path d="M1.52156e-06-0.333333 22.34-0.333231 22.34 0.333435-1.52156e-06 0.333333ZM14.5079-4.95453 23.0014 0.00010501 14.5078 4.95466C14.3488 5.04742 14.1447 4.99371 14.0519 4.83469 13.9592 4.67567 14.0129 4.47156 14.1719 4.37881L22.1719-0.287825 22.1719 0.288027 14.172-4.37868C14.0129-4.47144 13.9592-4.67554 14.052-4.83456 14.1448-4.99358 14.3489-5.04729 14.5079-4.95453Z" fill="#4472C4" transform="matrix(1 0 0 -1 355.5 489.5)"/><path d="M409.509 489.167 431.849 489.761 431.831 490.427 409.491 489.833ZM424.143 484.933 432.501 490.111 423.879 494.839C423.718 494.927 423.515 494.868 423.427 494.707 423.338 494.545 423.397 494.342 423.559 494.254L431.68 489.801 431.665 490.377 423.791 485.5C423.635 485.403 423.587 485.197 423.684 485.041 423.781 484.884 423.986 484.836 424.143 484.933Z" fill="#4472C4"/><path d="M0.00885537-0.333216 22.3489 0.260483 22.3312 0.926914-0.00885537 0.333216ZM14.6425-4.56721 23.0014 0.611275 14.3792 5.33848C14.2178 5.42698 14.0152 5.36786 13.9267 5.20644 13.8382 5.04501 13.8973 4.84241 14.0587 4.7539L22.1799 0.301413 22.1646 0.877063 14.2914-4.00049C14.1349-4.09744 14.0866-4.3029 14.1836-4.45939 14.2805-4.61589 14.486-4.66416 14.6425-4.56721Z" fill="#4472C4" transform="matrix(1 0 0 -1 463.5 490.111)"/><path d="M448.833 448.5 448.833 473.896 448.167 473.896 448.167 448.5ZM453.455 466.064 448.5 474.557 443.546 466.064C443.453 465.905 443.507 465.701 443.665 465.608 443.825 465.515 444.029 465.569 444.121 465.728L448.788 473.728 448.212 473.728 452.879 465.728C452.972 465.569 453.176 465.515 453.335 465.608 453.494 465.701 453.547 465.905 453.455 466.064Z" fill="#4472C4"/><path d="M0-0.333333 41.3888-0.333333 41.3888 37.9509 40.7221 37.9509 40.7221 0 41.0554 0.333333 0 0.333333ZM46.01 30.1189 41.0554 38.6125 36.1008 30.1189C36.0081 29.9599 36.0618 29.7558 36.2208 29.663 36.3798 29.5702 36.5839 29.6239 36.6767 29.783L41.3434 37.783 40.7675 37.783 45.4342 29.783C45.5269 29.6239 45.731 29.5702 45.8901 29.663 46.0491 29.7558 46.1028 29.9599 46.01 30.1189Z" fill="#4472C4" transform="matrix(-1.83697e-16 -1 -1 1.83697e-16 502.111 473.555)"/><path d="M231.833 447.5 231.833 474.007 231.167 474.007 231.167 447.5ZM236.455 466.175 231.5 474.669 226.546 466.175C226.453 466.016 226.506 465.812 226.665 465.719 226.825 465.626 227.029 465.68 227.121 465.839L231.788 473.839 231.212 473.839 235.879 465.839C235.972 465.68 236.176 465.626 236.335 465.719 236.494 465.812 236.547 466.016 236.455 466.175Z" fill="#4472C4"/><path d="M432.164 432.945 247.161 431.837 247.165 431.171 432.168 432.278ZM254.962 436.505 246.499 431.5 255.022 426.596C255.181 426.505 255.385 426.56 255.477 426.719 255.569 426.879 255.514 427.082 255.354 427.174L247.326 431.793 247.33 431.217 255.302 435.932C255.46 436.025 255.513 436.23 255.419 436.388 255.325 436.547 255.121 436.599 254.962 436.505Z" fill="#4472C4"/><path d="M285.833 504.5 285.833 530.507 285.167 530.507 285.167 504.5ZM290.455 522.675 285.5 531.168 280.546 522.675C280.453 522.516 280.507 522.312 280.665 522.219 280.825 522.126 281.029 522.18 281.121 522.339L285.788 530.339 285.212 530.339 289.879 522.339C289.972 522.18 290.176 522.126 290.335 522.219 290.494 522.312 290.547 522.516 290.455 522.675Z" fill="#4472C4"/><path d="M448.833 505.5 448.833 530.896 448.167 530.896 448.167 505.5ZM453.455 523.064 448.5 531.557 443.546 523.064C443.453 522.905 443.507 522.701 443.665 522.608 443.825 522.515 444.029 522.569 444.121 522.728L448.788 530.728 448.212 530.728 452.879 522.728C452.972 522.569 453.176 522.515 453.335 522.608 453.494 522.701 453.547 522.905 453.455 523.064Z" fill="#4472C4"/><g clip-path="url(#clip57)"><g clip-path="url(#clip58)"><g clip-path="url(#clip59)"><path d="M5.31667 26C4.42051 26.0706 3.52564 25.8484 2.76667 25.3667 2.19499 24.7585 1.92059 23.9291 2.01667 23.1L2.01667 17.2167C2.01667 16.25 1.63333 15.7333 0.833333 15.7333L0.833333 14.2667C1.63333 14.2667 2.01667 13.75 2.01667 12.7333L2.01667 6.95C1.92579 6.10625 2.19855 5.26374 2.76667 4.63333 3.51492 4.12708 4.4185 3.90266 5.31667 4L5.31667 5.48333C4.46667 5.48333 4 5.93333 4 6.9L4 12.5667C4 13.8667 3.61667 14.6667 2.76667 15 3.65093 15.4687 4.14475 16.443 4 17.4333L4 23.05C3.98443 23.4471 4.08274 23.8403 4.28333 24.1833 4.54215 24.4291 4.89473 24.5507 5.25 24.5167L5.25 26Z" fill="#949494" transform="matrix(1.03333 0 0 1 559 474)"/><path d="M24.6833 4C25.5795 3.92936 26.4744 4.15161 27.2333 4.63333 27.805 5.24153 28.0794 6.07086 27.9833 6.9L27.9833 12.7833C27.9833 13.75 28.3667 14.2667 29.1667 14.2667L29.1667 15.7333C28.3667 15.7333 27.9833 16.25 27.9833 17.2667L27.9833 22.9833C28.0769 23.8324 27.8041 24.6811 27.2333 25.3167 26.4923 25.8419 25.5877 26.0843 24.6833 26L24.6833 24.5167C25.5333 24.5167 26 24.0667 26 23.1L26 17.4333C26 16.1333 26.3833 15.3333 27.2333 15 26.3491 14.5313 25.8552 13.557 26 12.5667L26 6.95C26.0156 6.55293 25.9173 6.15969 25.7167 5.81667 25.4579 5.57092 25.1053 5.44935 24.75 5.48333Z" fill="#949494" transform="matrix(1.03333 0 0 1 559 474)"/><path d="M15.6833 13.9167 15.6833 11.8 14.1833 11.8 14.1833 13.9167C14.1833 14.0824 14.049 14.2167 13.8833 14.2167L8.33333 14.2167C8.00196 14.2167 7.73333 14.4853 7.73333 14.8167L7.73333 17.5667 9.23333 17.5667 9.23333 16.05C9.23309 15.8906 9.35752 15.7589 9.51667 15.75L20.4167 15.75C20.5824 15.75 20.7167 15.8843 20.7167 16.05L20.7167 17.6 22.2 17.6 22.2 14.8167C22.2001 14.4917 21.9415 14.2257 21.6167 14.2167L15.9833 14.2167C15.8176 14.2167 15.6833 14.0824 15.6833 13.9167Z" fill="#005BA1" transform="matrix(1.03333 0 0 1 559 474)"/><path d="M17.6833 5.35 12.0833 5.35C11.74 5.34988 11.459 5.62341 11.45 5.96667L11.45 11.5667C11.4499 11.9072 11.7259 12.1834 12.0664 12.1836 12.0721 12.1836 12.0777 12.1835 12.0833 12.1833L17.6833 12.1833C18.0234 12.2017 18.314 11.941 18.3324 11.6009 18.333 11.5895 18.3333 11.5781 18.3333 11.5667L18.3333 5.96667C18.3243 5.617 18.0334 5.34091 17.6838 5.34999 17.6836 5.34999 17.6835 5.35 17.6833 5.35ZM17.15 10.6333C17.141 10.8569 16.9571 11.0335 16.7333 11.0333L13.0167 11.0333C12.7929 11.0335 12.6089 10.8569 12.6 10.6333L12.6 6.91667C12.6 6.68655 12.7865 6.5 13.0167 6.5L16.6667 6.5C16.8968 6.5 17.0833 6.68655 17.0833 6.91667Z" fill="#0078D4" transform="matrix(1.03333 0 0 1 559 474)"/><path d="M10.4167 17.5833C10.6652 17.5833 10.8667 17.7848 10.8667 18.0333L10.8667 22.0333C10.8667 22.2819 10.6652 22.4833 10.4167 22.4833L6.41667 22.4833C6.16814 22.4833 5.96667 22.2819 5.96667 22.0333L5.96667 18.0333C5.96667 17.7848 6.16814 17.5833 6.41667 17.5833Z" fill="url(#fill60)" transform="matrix(1.03333 0 0 1 559 474)"/><path d="M23.4167 17.6167C23.6652 17.6167 23.8667 17.8181 23.8667 18.0667L23.8667 22.0667C23.8667 22.3152 23.6652 22.5167 23.4167 22.5167L19.4167 22.5167C19.1681 22.5167 18.9667 22.3152 18.9667 22.0667L18.9667 18.0667C18.9667 17.8181 19.1681 17.6167 19.4167 17.6167Z" fill="url(#fill61)" transform="matrix(1.03333 0 0 1 559 474)"/></g></g></g><path d="M518.501 489.167 559.354 489.336 559.351 490.002 518.499 489.833ZM551.541 484.682 560.014 489.672 551.5 494.591C551.341 494.683 551.137 494.629 551.045 494.469 550.953 494.31 551.007 494.106 551.167 494.014L559.186 489.38 559.183 489.956 551.203 485.257C551.044 485.163 550.991 484.959 551.085 484.8 551.178 484.642 551.382 484.589 551.541 484.682Z" fill="#4472C4"/><path d="M574.951 474.5 574.951 456.378 575.284 456.711 448.5 456.711 448.833 456.378 448.833 474.108 448.167 474.108 448.167 456.044 575.618 456.044 575.618 474.5ZM453.455 466.276 448.5 474.769 443.545 466.276C443.453 466.117 443.506 465.912 443.665 465.82 443.824 465.727 444.029 465.781 444.121 465.94L448.788 473.94 448.212 473.94 452.879 465.94C452.972 465.781 453.176 465.727 453.335 465.82 453.494 465.912 453.547 466.117 453.455 466.276Z" fill="#4472C4"/><path d="M179 417C179 408.164 186.164 401 195 401L259 401C267.836 401 275 408.164 275 417L275 505C275 513.836 267.836 521 259 521L195 521C186.164 521 179 513.836 179 505Z" stroke="#FF0000" stroke-width="2" stroke-miterlimit="8" stroke-dasharray="8 6" fill="none" fill-rule="evenodd"/><text font-family="Yu Gothic,Yu Gothic_MSFontService,sans-serif" font-weight="400" font-size="13" transform="translate(99.6796 434)"><tspan font-size="13" x="26.6667" y="0"></tspan><tspan font-size="13" x="53.3333" y="0"></tspan></text></g></svg>