<svg width="607" height="522" xmlns="http://www.w3.org/2000/svg" xmlns:xlink="http://www.w3.org/1999/xlink" overflow="hidden"><defs><clipPath id="clip0"><rect x="34" y="30" width="607" height="522"/></clipPath><clipPath id="clip1"><rect x="106" y="131" width="44" height="44"/></clipPath><clipPath id="clip2"><rect x="106" y="131" width="44" height="44"/></clipPath><clipPath id="clip3"><rect x="106" y="131" width="44" height="44"/></clipPath><clipPath id="clip4"><rect x="211" y="138" width="31" height="31"/></clipPath><clipPath id="clip5"><rect x="211" y="138" width="31" height="31"/></clipPath><clipPath id="clip6"><rect x="211" y="138" width="31" height="31"/></clipPath><linearGradient x1="226.724" y1="170.395" x2="226.242" y2="124.05" gradientUnits="userSpaceOnUse" spreadMethod="pad" id="fill7"><stop offset="0" stop-color="#198AB3"/><stop offset="0" stop-color="#198AB3"/><stop offset="0.09" stop-color="#22A5CB"/><stop offset="0.19" stop-color="#29BADE"/><stop offset="0.29" stop-color="#2EC9EB"/><stop offset="0.42" stop-color="#31D1F3"/><stop offset="0.62" stop-color="#32D4F5"/><stop offset="1" stop-color="#32D4F5"/></linearGradient><clipPath id="clip8"><rect x="265" y="138" width="32" height="31"/></clipPath><clipPath id="clip9"><rect x="265" y="138" width="32" height="31"/></clipPath><clipPath id="clip10"><rect x="265" y="138" width="32" height="31"/></clipPath><linearGradient x1="19.0822" y1="28.5338" x2="19.0822" y2="2.12333" gradientUnits="userSpaceOnUse" spreadMethod="pad" id="fill11"><stop offset="0" stop-color="#949494"/><stop offset="0.33" stop-color="#9B9B9B"/><stop offset="0.82" stop-color="#AEAFB0"/><stop offset="1" stop-color="#B6B8B9"/></linearGradient><clipPath id="clip12"><rect x="320" y="138" width="31" height="31"/></clipPath><clipPath id="clip13"><rect x="320" y="138" width="31" height="31"/></clipPath><clipPath id="clip14"><rect x="320" y="138" width="31" height="31"/></clipPath><clipPath id="clip15"><rect x="374" y="138" width="31" height="31"/></clipPath><clipPath id="clip16"><rect x="374" y="138" width="31" height="31"/></clipPath><clipPath id="clip17"><rect x="374" y="138" width="31" height="31"/></clipPath><linearGradient x1="389.715" y1="167.032" x2="389.715" y2="139.547" gradientUnits="userSpaceOnUse" spreadMethod="pad" id="fill18"><stop offset="0" stop-color="#FEA11B"/><stop offset="0.284" stop-color="#FEA51A"/><stop offset="0.547" stop-color="#FEB018"/><stop offset="0.8" stop-color="#FFC314"/><stop offset="1" stop-color="#FFD70F"/></linearGradient><clipPath id="clip19"><rect x="428" y="138" width="31" height="31"/></clipPath><clipPath id="clip20"><rect x="428" y="138" width="31" height="31"/></clipPath><clipPath id="clip21"><rect x="428" y="138" width="31" height="31"/></clipPath><linearGradient x1="443.949" y1="137.373" x2="438.709" y2="172.534" gradientUnits="userSpaceOnUse" spreadMethod="pad" id="fill22"><stop offset="0" stop-color="#32BEDD"/><stop offset="1" stop-color="#198AB3"/></linearGradient><linearGradient x1="446.597" y1="150.724" x2="452.871" y2="170.836" gradientUnits="userSpaceOnUse" spreadMethod="pad" id="fill23"><stop offset="0" stop-color="#50E6FF"/><stop offset="0.997" stop-color="#32BEDD"/><stop offset="1" stop-color="#32BEDD"/></linearGradient><linearGradient x1="427.711" y1="145.085" x2="449.652" y2="156.764" gradientUnits="userSpaceOnUse" spreadMethod="pad" id="fill24"><stop offset="0" stop-color="#FFFFFF"/><stop offset="1" stop-color="#9CEBFF"/></linearGradient><clipPath id="clip25"><rect x="428" y="196" width="31" height="31"/></clipPath><clipPath id="clip26"><rect x="428" y="196" width="31" height="31"/></clipPath><clipPath id="clip27"><rect x="428" y="196" width="31" height="31"/></clipPath><linearGradient x1="430.239" y1="210.811" x2="458.139" y2="210.811" gradientUnits="userSpaceOnUse" spreadMethod="pad" id="fill28"><stop offset="0" stop-color="#54AEF0"/><stop offset="0.1" stop-color="#54AEF0"/><stop offset="1" stop-color="#1988D9"/></linearGradient><linearGradient x1="428.859" y1="219.6" x2="441.965" y2="219.6" gradientUnits="userSpaceOnUse" spreadMethod="pad" id="fill29"><stop offset="0" stop-color="#B3B2B3"/><stop offset="1" stop-color="#979797"/></linearGradient><linearGradient x1="428.853" y1="213.352" x2="437.843" y2="213.352" gradientUnits="userSpaceOnUse" spreadMethod="pad" id="fill30"><stop offset="0" stop-color="#B3B2B3"/><stop offset="1" stop-color="#979797"/></linearGradient><linearGradient x1="437.1" y1="221.636" x2="446.072" y2="221.636" gradientUnits="userSpaceOnUse" spreadMethod="pad" id="fill31"><stop offset="0" stop-color="#B3B2B3"/><stop offset="1" stop-color="#979797"/></linearGradient><clipPath id="clip32"><rect x="265" y="196" width="32" height="31"/></clipPath><clipPath id="clip33"><rect x="265" y="196" width="32" height="31"/></clipPath><clipPath id="clip34"><rect x="265" y="196" width="32" height="31"/></clipPath><linearGradient x1="0.861111" y1="17.1533" x2="21.4072" y2="17.1533" gradientUnits="userSpaceOnUse" spreadMethod="pad" id="fill35"><stop offset="0" stop-color="#005BA1"/><stop offset="0.07" stop-color="#0060A9"/><stop offset="0.36" stop-color="#0071C8"/><stop offset="0.52" stop-color="#0078D4"/><stop offset="0.64" stop-color="#0074CD"/><stop offset="0.82" stop-color="#006ABB"/><stop offset="1" stop-color="#005BA1"/></linearGradient><linearGradient x1="20.2706" y1="29.3294" x2="20.2706" y2="15.3278" gradientUnits="userSpaceOnUse" spreadMethod="pad" id="fill36"><stop offset="0" stop-color="#198AB3"/><stop offset="0" stop-color="#198AB3"/><stop offset="0.11" stop-color="#22A5CB"/><stop offset="0.23" stop-color="#29BADE"/><stop offset="0.37" stop-color="#2EC9EB"/><stop offset="0.53" stop-color="#31D1F3"/><stop offset="0.78" stop-color="#32D4F5"/><stop offset="1" stop-color="#32D4F5"/></linearGradient><clipPath id="clip37"><rect x="211" y="80" width="31" height="31"/></clipPath><clipPath id="clip38"><rect x="211" y="80" width="31" height="31"/></clipPath><clipPath id="clip39"><rect x="211" y="80" width="31" height="31"/></clipPath><linearGradient x1="226.715" y1="109.032" x2="226.715" y2="81.547" gradientUnits="userSpaceOnUse" spreadMethod="pad" id="fill40"><stop offset="0" stop-color="#FEA11B"/><stop offset="0.284" stop-color="#FEA51A"/><stop offset="0.547" stop-color="#FEB018"/><stop offset="0.8" stop-color="#FFC314"/><stop offset="1" stop-color="#FFD70F"/></linearGradient><clipPath id="clip41"><rect x="428" y="81" width="31" height="31"/></clipPath><clipPath id="clip42"><rect x="428" y="81" width="31" height="31"/></clipPath><clipPath id="clip43"><rect x="428" y="81" width="31" height="31"/></clipPath><radialGradient cx="4649.52" cy="3578.36" r="48.597" gradientUnits="userSpaceOnUse" spreadMethod="pad" id="fill44" gradientTransform="matrix(0.258333 0 0 0.258333 -759.715 -830.617)"><stop offset="0" stop-color="#5EA0EF"/><stop offset="0.183" stop-color="#5EA0EF"/><stop offset="1" stop-color="#0078D4"/></radialGradient><linearGradient x1="434.62" y1="97.4662" x2="434.574" y2="91.6175" gradientUnits="userSpaceOnUse" spreadMethod="pad" id="fill45"><stop offset="0" stop-color="#CCCCCC"/><stop offset="0.123" stop-color="#D7D7D7"/><stop offset="1" stop-color="#FCFCFC"/></linearGradient><linearGradient x1="443.092" y1="103.317" x2="443.092" y2="98.0724" gradientUnits="userSpaceOnUse" spreadMethod="pad" id="fill46"><stop offset="0" stop-color="#CCCCCC"/><stop offset="0.123" stop-color="#D7D7D7"/><stop offset="1" stop-color="#FCFCFC"/></linearGradient><linearGradient x1="434.62" y1="97.4662" x2="434.574" y2="91.6175" gradientUnits="userSpaceOnUse" spreadMethod="pad" id="fill47"><stop offset="0" stop-color="#CCCCCC"/><stop offset="0.123" stop-color="#D7D7D7"/><stop offset="1" stop-color="#FCFCFC"/></linearGradient><linearGradient x1="452.954" y1="107.786" x2="448.17" y2="93.3281" gradientUnits="userSpaceOnUse" spreadMethod="pad" id="fill48"><stop offset="0" stop-color="#32BEDD"/><stop offset="0.576" stop-color="#32CEEF"/><stop offset="1" stop-color="#32D4F5"/></linearGradient><clipPath id="clip49"><rect x="342" y="187" width="40" height="40"/></clipPath><clipPath id="clip50"><rect x="342" y="187" width="40" height="40"/></clipPath><clipPath id="clip51"><rect x="342" y="187" width="40" height="40"/></clipPath><linearGradient x1="362" y1="229.511" x2="362" y2="186.356" gradientUnits="userSpaceOnUse" spreadMethod="pad" id="fill52"><stop offset="0" stop-color="#0078D4"/><stop offset="0.16" stop-color="#1380DA"/><stop offset="0.53" stop-color="#3C91E5"/><stop offset="0.82" stop-color="#559CEC"/><stop offset="1" stop-color="#5EA0EF"/></linearGradient><clipPath id="clip53"><rect x="482" y="138" width="31" height="31"/></clipPath><clipPath id="clip54"><rect x="482" y="138" width="31" height="31"/></clipPath><clipPath id="clip55"><rect x="482" y="138" width="31" height="31"/></clipPath><linearGradient x1="497.715" y1="167.032" x2="497.715" y2="139.547" gradientUnits="userSpaceOnUse" spreadMethod="pad" id="fill56"><stop offset="0" stop-color="#FEA11B"/><stop offset="0.284" stop-color="#FEA51A"/><stop offset="0.547" stop-color="#FEB018"/><stop offset="0.8" stop-color="#FFC314"/><stop offset="1" stop-color="#FFD70F"/></linearGradient><clipPath id="clip57"><rect x="84" y="362" width="45" height="45"/></clipPath><clipPath id="clip58"><rect x="84" y="362" width="45" height="45"/></clipPath><clipPath id="clip59"><rect x="84" y="362" width="45" height="45"/></clipPath><clipPath id="clip60"><rect x="258" y="369" width="31" height="31"/></clipPath><clipPath id="clip61"><rect x="258" y="369" width="31" height="31"/></clipPath><clipPath id="clip62"><rect x="258" y="369" width="31" height="31"/></clipPath><linearGradient x1="273.724" y1="401.395" x2="273.242" y2="355.05" gradientUnits="userSpaceOnUse" spreadMethod="pad" id="fill63"><stop offset="0" stop-color="#198AB3"/><stop offset="0" stop-color="#198AB3"/><stop offset="0.09" stop-color="#22A5CB"/><stop offset="0.19" stop-color="#29BADE"/><stop offset="0.29" stop-color="#2EC9EB"/><stop offset="0.42" stop-color="#31D1F3"/><stop offset="0.62" stop-color="#32D4F5"/><stop offset="1" stop-color="#32D4F5"/></linearGradient><clipPath id="clip64"><rect x="422" y="371" width="31" height="31"/></clipPath><clipPath id="clip65"><rect x="422" y="371" width="31" height="31"/></clipPath><clipPath id="clip66"><rect x="422" y="371" width="31" height="31"/></clipPath><linearGradient x1="441.082" y1="399.534" x2="441.082" y2="373.123" gradientUnits="userSpaceOnUse" spreadMethod="pad" id="fill67"><stop offset="0" stop-color="#949494"/><stop offset="0.33" stop-color="#9B9B9B"/><stop offset="0.82" stop-color="#AEAFB0"/><stop offset="1" stop-color="#B6B8B9"/></linearGradient><clipPath id="clip68"><rect x="91" y="433" width="31" height="31"/></clipPath><clipPath id="clip69"><rect x="91" y="433" width="31" height="31"/></clipPath><clipPath id="clip70"><rect x="91" y="433" width="31" height="31"/></clipPath><linearGradient x1="106.715" y1="462.032" x2="106.715" y2="434.547" gradientUnits="userSpaceOnUse" spreadMethod="pad" id="fill71"><stop offset="0" stop-color="#FEA11B"/><stop offset="0.284" stop-color="#FEA51A"/><stop offset="0.547" stop-color="#FEB018"/><stop offset="0.8" stop-color="#FFC314"/><stop offset="1" stop-color="#FFD70F"/></linearGradient><clipPath id="clip72"><rect x="256" y="433" width="32" height="31"/></clipPath><clipPath id="clip73"><rect x="256" y="433" width="32" height="31"/></clipPath><clipPath id="clip74"><rect x="256" y="433" width="32" height="31"/></clipPath><clipPath id="clip75"><rect x="422" y="433" width="31" height="31"/></clipPath><clipPath id="clip76"><rect x="422" y="433" width="31" height="31"/></clipPath><clipPath id="clip77"><rect x="422" y="433" width="31" height="31"/></clipPath><linearGradient x1="437.949" y1="432.373" x2="432.709" y2="467.534" gradientUnits="userSpaceOnUse" spreadMethod="pad" id="fill78"><stop offset="0" stop-color="#32BEDD"/><stop offset="1" stop-color="#198AB3"/></linearGradient><linearGradient x1="440.597" y1="445.724" x2="446.871" y2="465.836" gradientUnits="userSpaceOnUse" spreadMethod="pad" id="fill79"><stop offset="0" stop-color="#50E6FF"/><stop offset="0.997" stop-color="#32BEDD"/><stop offset="1" stop-color="#32BEDD"/></linearGradient><linearGradient x1="421.711" y1="440.085" x2="443.652" y2="451.764" gradientUnits="userSpaceOnUse" spreadMethod="pad" id="fill80"><stop offset="0" stop-color="#FFFFFF"/><stop offset="1" stop-color="#9CEBFF"/></linearGradient><clipPath id="clip81"><rect x="90" y="490" width="31" height="32"/></clipPath><clipPath id="clip82"><rect x="90" y="490" width="31" height="32"/></clipPath><clipPath id="clip83"><rect x="90" y="490" width="31" height="32"/></clipPath><linearGradient x1="0.861111" y1="17.1533" x2="21.4072" y2="17.1533" gradientUnits="userSpaceOnUse" spreadMethod="pad" id="fill84"><stop offset="0" stop-color="#005BA1"/><stop offset="0.07" stop-color="#0060A9"/><stop offset="0.36" stop-color="#0071C8"/><stop offset="0.52" stop-color="#0078D4"/><stop offset="0.64" stop-color="#0074CD"/><stop offset="0.82" stop-color="#006ABB"/><stop offset="1" stop-color="#005BA1"/></linearGradient><linearGradient x1="20.2706" y1="29.3294" x2="20.2706" y2="15.3278" gradientUnits="userSpaceOnUse" spreadMethod="pad" id="fill85"><stop offset="0" stop-color="#198AB3"/><stop offset="0" stop-color="#198AB3"/><stop offset="0.11" stop-color="#22A5CB"/><stop offset="0.23" stop-color="#29BADE"/><stop offset="0.37" stop-color="#2EC9EB"/><stop offset="0.53" stop-color="#31D1F3"/><stop offset="0.78" stop-color="#32D4F5"/><stop offset="1" stop-color="#32D4F5"/></linearGradient><clipPath id="clip86"><rect x="297" y="490" width="32" height="31"/></clipPath><clipPath id="clip87"><rect x="297" y="490" width="32" height="31"/></clipPath><clipPath id="clip88"><rect x="297" y="490" width="32" height="31"/></clipPath><linearGradient x1="2.23889" y1="14.8111" x2="30.1389" y2="14.8111" gradientUnits="userSpaceOnUse" spreadMethod="pad" id="fill89"><stop offset="0" stop-color="#54AEF0"/><stop offset="0.1" stop-color="#54AEF0"/><stop offset="1" stop-color="#1988D9"/></linearGradient><linearGradient x1="2.82727" y1="19.2618" x2="12.2406" y2="28.6752" gradientUnits="userSpaceOnUse" spreadMethod="pad" id="fill90"><stop offset="0" stop-color="#B3B2B3"/><stop offset="1" stop-color="#979797"/></linearGradient><linearGradient x1="2.21452" y1="14.3991" x2="8.6715" y2="20.8561" gradientUnits="userSpaceOnUse" spreadMethod="pad" id="fill91"><stop offset="0" stop-color="#B3B2B3"/><stop offset="1" stop-color="#979797"/></linearGradient><linearGradient x1="10.5742" y1="22.833" x2="17.0188" y2="29.2776" gradientUnits="userSpaceOnUse" spreadMethod="pad" id="fill92"><stop offset="0" stop-color="#B3B2B3"/><stop offset="1" stop-color="#979797"/></linearGradient><clipPath id="clip93"><rect x="482" y="491" width="31" height="31"/></clipPath><clipPath id="clip94"><rect x="482" y="491" width="31" height="31"/></clipPath><clipPath id="clip95"><rect x="482" y="491" width="31" height="31"/></clipPath><radialGradient cx="4649.52" cy="3578.36" r="48.597" gradientUnits="userSpaceOnUse" spreadMethod="pad" id="fill96" gradientTransform="matrix(0.258333 0 0 0.258333 -705.715 -420.617)"><stop offset="0" stop-color="#5EA0EF"/><stop offset="0.183" stop-color="#5EA0EF"/><stop offset="1" stop-color="#0078D4"/></radialGradient><linearGradient x1="488.62" y1="507.466" x2="488.574" y2="501.617" gradientUnits="userSpaceOnUse" spreadMethod="pad" id="fill97"><stop offset="0" stop-color="#CCCCCC"/><stop offset="0.123" stop-color="#D7D7D7"/><stop offset="1" stop-color="#FCFCFC"/></linearGradient><linearGradient x1="497.092" y1="513.317" x2="497.092" y2="508.072" gradientUnits="userSpaceOnUse" spreadMethod="pad" id="fill98"><stop offset="0" stop-color="#CCCCCC"/><stop offset="0.123" stop-color="#D7D7D7"/><stop offset="1" stop-color="#FCFCFC"/></linearGradient><linearGradient x1="488.62" y1="507.466" x2="488.574" y2="501.617" gradientUnits="userSpaceOnUse" spreadMethod="pad" id="fill99"><stop offset="0" stop-color="#CCCCCC"/><stop offset="0.123" stop-color="#D7D7D7"/><stop offset="1" stop-color="#FCFCFC"/></linearGradient><linearGradient x1="506.954" y1="517.786" x2="502.17" y2="503.328" gradientUnits="userSpaceOnUse" spreadMethod="pad" id="fill100"><stop offset="0" stop-color="#32BEDD"/><stop offset="0.576" stop-color="#32CEEF"/><stop offset="1" stop-color="#32D4F5"/></linearGradient><clipPath id="clip101"><rect x="555" y="138" width="31" height="31"/></clipPath><clipPath id="clip102"><rect x="555" y="138" width="31" height="31"/></clipPath><clipPath id="clip103"><rect x="555" y="138" width="31" height="31"/></clipPath><linearGradient x1="563.697" y1="156.169" x2="563.697" y2="161.216" gradientUnits="userSpaceOnUse" spreadMethod="pad" id="fill104"><stop offset="0" stop-color="#76BC2D"/><stop offset="1" stop-color="#5E9624"/></linearGradient><linearGradient x1="577.113" y1="156.204" x2="577.113" y2="161.25" gradientUnits="userSpaceOnUse" spreadMethod="pad" id="fill105"><stop offset="0" stop-color="#76BC2D"/><stop offset="1" stop-color="#5E9624"/></linearGradient></defs><g clip-path="url(#clip0)" transform="translate(-34 -30)"><g clip-path="url(#clip1)"><g clip-path="url(#clip2)"><g clip-path="url(#clip3)"><path d="M123.413 160.631 122.879 161.656 122.857 161.697C121.618 163.803 119.331 165.11 116.886 165.11 115.659 165.11 114.448 164.78 113.386 164.155 111.792 163.217 110.659 161.716 110.195 159.927 110.175 159.851 110.158 159.774 110.141 159.697L109.259 166.47 124.179 166.47 123.413 160.631Z" fill="#4B4B4B"/><path d="M124.295 136.078 111.71 155.144C110.028 158.004 110.983 161.69 113.845 163.372 116.707 165.055 120.391 164.099 122.074 161.237L130.616 144.818 125.907 140.342C124.679 139.076 124.261 137.662 124.295 136.078ZM118.959 159.405C118.288 160.547 116.818 160.928 115.677 160.257 114.535 159.585 114.154 158.117 114.826 156.975 115.497 155.833 116.966 155.452 118.107 156.123 119.249 156.795 119.631 158.264 118.959 159.405Z" fill="#4B4B4B"/><path d="M124.597 167.287 108.946 167.287C107.88 167.287 107.017 168.151 107.017 169.217L107.017 175 126.525 175 126.525 169.217C126.525 168.151 125.662 167.287 124.597 167.287Z" fill="#4B4B4B"/><path d="M144.674 146.962C145.291 146.962 145.884 147.07 146.434 147.268L134.231 132.679C132.285 130.565 128.992 130.429 126.879 132.376 124.764 134.321 124.629 137.613 126.575 139.727L139.462 151.97C139.571 149.19 141.867 146.962 144.674 146.962ZM131.745 137.663C130.94 138.405 129.685 138.352 128.944 137.546 128.201 136.741 128.253 135.486 129.059 134.745 129.865 134.002 131.12 134.054 131.863 134.86 132.604 135.666 132.552 136.92 131.745 137.663Z" fill="#4B4B4B"/><path d="M143.096 162.387 144.779 164.279 146.461 162.387 146.461 159.271 143.096 159.271Z" fill="#4B4B4B"/><path d="M144.674 147.869C142.294 147.869 140.364 149.798 140.364 152.179L140.364 158.381 148.983 158.381 148.983 152.179C148.983 149.798 147.055 147.869 144.674 147.869ZM144.674 153.73C143.744 153.73 142.991 152.976 142.991 152.047 142.991 151.118 143.744 150.364 144.674 150.364 145.603 150.364 146.357 151.118 146.357 152.047 146.357 152.976 145.603 153.73 144.674 153.73Z" fill="#4B4B4B"/></g></g></g><g clip-path="url(#clip4)"><g clip-path="url(#clip5)"><g clip-path="url(#clip6)"><path d="M234.026 152.536C234.026 154.409 232.507 155.928 230.633 155.928 228.76 155.928 227.241 154.409 227.241 152.536 227.241 150.662 228.76 149.143 230.633 149.143 232.507 149.143 234.026 150.662 234.026 152.536Z" fill="#FFFFFF"/><path d="M238.986 162.628C238.986 164.102 237.791 165.297 236.317 165.297 234.842 165.297 233.647 164.102 233.647 162.628 233.647 161.153 234.842 159.958 236.317 159.958 237.791 159.958 238.986 161.153 238.986 162.628Z" fill="#FFFFFF"/><path d="M228.05 160.802C228.05 162.067 227.024 163.093 225.759 163.093 224.494 163.093 223.469 162.067 223.469 160.802 223.469 159.537 224.494 158.512 225.759 158.512 227.024 158.512 228.05 159.537 228.05 160.802Z" fill="#FFFFFF"/><path d="M226.948 143.356C226.948 144.926 225.676 146.198 224.106 146.198 222.537 146.198 221.264 144.926 221.264 143.356 221.264 141.787 222.537 140.514 224.106 140.514 225.676 140.514 226.948 141.787 226.948 143.356Z" fill="#FFFFFF"/><path d="M218.784 153.827C218.784 155.092 217.759 156.118 216.494 156.118 215.229 156.118 214.203 155.092 214.203 153.827 214.203 152.562 215.229 151.537 216.494 151.537 217.759 151.537 218.784 152.562 218.784 153.827Z" fill="#FFFFFF"/><path d="M236.937 162.094 231.202 152.053 230.633 152.381 231.098 152.036 224.606 142.805 223.417 143.666 229.169 151.847 216.425 152.897 216.546 154.378 229.169 153.328 224.984 160.286 226.242 161.043 230.547 153.879 235.662 162.817 236.937 162.094Z" fill="#949494"/><path d="M241.191 140.118 241.191 140.118C241.191 139.424 240.628 138.861 239.933 138.861L233.389 138.861C233.046 138.861 232.769 139.139 232.769 139.481L232.769 141.909C232.769 142.252 233.046 142.529 233.389 142.529L237.436 142.529 237.436 146.491C237.445 146.839 237.725 147.119 238.073 147.128L240.484 147.128C240.833 147.119 241.113 146.839 241.122 146.491L241.122 140.118Z" fill="#949494"/><path d="M219.611 164.471 215.495 164.471 215.495 160.509C215.486 160.161 215.206 159.881 214.858 159.872L212.447 159.872C212.099 159.881 211.818 160.161 211.809 160.509L211.809 166.882 211.809 166.882C211.819 167.569 212.379 168.122 213.067 168.122L219.611 168.122C219.954 168.122 220.231 167.844 220.231 167.502L220.231 165.091C220.231 164.748 219.954 164.471 219.611 164.471Z" fill="#949494"/><path d="M230.633 149.177C232.536 149.178 234.077 150.72 234.077 152.623 234.076 154.525 232.533 156.067 230.631 156.066 228.729 156.066 227.187 154.523 227.188 152.621 227.188 152.592 227.188 152.564 227.189 152.536 227.236 150.667 228.764 149.177 230.633 149.177ZM221.333 143.356C221.324 144.935 222.597 146.222 224.176 146.231 225.755 146.24 227.042 144.968 227.051 143.389 227.06 141.81 225.787 140.523 224.209 140.514 224.18 140.514 224.152 140.514 224.123 140.514 222.574 140.543 221.333 141.807 221.333 143.356ZM214.203 153.81C214.203 155.075 215.229 156.101 216.494 156.101 217.759 156.101 218.784 155.075 218.784 153.81 218.784 152.545 217.759 151.519 216.494 151.519 215.229 151.519 214.203 152.545 214.203 153.81ZM223.469 160.785C223.459 162.06 224.485 163.1 225.759 163.11 227.034 163.119 228.075 162.094 228.084 160.819 228.094 159.545 227.068 158.504 225.794 158.495 225.788 158.494 225.782 158.494 225.777 158.494 224.512 158.485 223.478 159.503 223.469 160.768 223.469 160.773 223.469 160.779 223.469 160.785ZM233.664 162.628C233.655 164.102 234.842 165.305 236.317 165.314 237.791 165.324 238.994 164.136 239.003 162.662 239.013 161.188 237.825 159.985 236.351 159.976 236.345 159.976 236.34 159.976 236.334 159.976 234.879 159.956 233.684 161.121 233.665 162.576 233.664 162.593 233.664 162.61 233.664 162.628Z" fill="url(#fill7)"/></g></g></g><g clip-path="url(#clip8)"><g clip-path="url(#clip9)"><g clip-path="url(#clip10)"><path d="M31 16.6883 31 13.6056 30.8278 13.4506 27.6589 12.3828 26.8494 10.3333 28.4167 7.09556 28.5889 6.73389 27.5556 5.68333 26.35 4.495 25.9367 4.70167 22.8367 6.26889 20.7528 5.68333 19.4094 2.23889 16.3267 2.23889 16.1717 2.39389 15.1039 5.54556 12.9339 6.355 9.35167 4.63278 7.14722 6.78556 7.35389 7.19889 9.00722 10.3333C10.6688 9.3321 12.5787 8.81882 14.5183 8.85222 16.7202 8.86346 18.8658 9.54861 20.6667 10.8156 20.8831 10.9508 21.0902 11.1004 21.2867 11.2633L21.2867 11.2633C22.0105 11.8887 22.5619 12.6892 22.8883 13.5883L22.8883 13.5883C23.1289 14.1969 23.2516 14.8456 23.25 15.5 23.2501 18.5722 20.7596 21.0628 17.6873 21.0629 17.6758 21.0629 17.6643 21.0628 17.6528 21.0628 16.5006 21.0615 15.3765 20.7068 14.4322 20.0467 12.5677 21.839 10.1251 22.9077 7.54333 23.0606L7.21611 23.7322 9.42056 25.9539 9.86833 25.8333 12.9683 24.1111 15.1039 24.9894 16.4644 28.7094 19.5644 28.7094 19.685 28.2789 20.7872 24.9894 22.8883 24.1111 26.5222 25.8333 28.7094 23.6633 28.5028 23.25 26.9011 20.1672 27.5556 18.0144Z" fill="url(#fill11)" transform="matrix(1.03226 0 0 1 265 138)"/><path d="M6.88889 18.3417 6.88889 18.3417C5.23704 18.3503 3.65005 17.6994 2.48 16.5333 2.10632 16.3057 1.98788 15.8183 2.21546 15.4446 2.44305 15.071 2.93047 14.9525 3.30415 15.1801 3.43053 15.2571 3.53282 15.3679 3.59944 15.5 4.48358 16.3423 5.66837 16.7951 6.88889 16.7572L6.88889 16.7572C8.09267 16.787 9.25839 16.3343 10.1267 15.5 11.3012 14.3616 12.883 13.7413 14.5183 13.7778 16.1625 13.7491 17.7521 14.3676 18.9444 15.5 19.2662 15.7965 19.2866 16.2977 18.99 16.6194 18.6935 16.9412 18.1923 16.9616 17.8706 16.665 17.8548 16.6504 17.8396 16.6352 17.825 16.6194 16.9591 15.7607 15.7895 15.278 14.57 15.2761L14.57 15.2761C13.3534 15.2673 12.1852 15.752 11.3322 16.6194 10.1386 17.7609 8.53996 18.3805 6.88889 18.3417Z" fill="#50E6FF" transform="matrix(1.03226 0 0 1 265 138)"/><path d="M6.88889 15.19 6.88889 15.19C6.07575 15.1894 5.29581 14.8675 4.71889 14.2944 4.42235 13.9727 4.44275 13.4715 4.76445 13.175 5.06781 12.8954 5.53498 12.8954 5.83833 13.175 6.11522 13.4557 6.49466 13.6112 6.88889 13.6056L6.88889 13.6056C7.26937 13.5716 7.63016 13.4212 7.92222 13.175 11.5841 9.56163 17.4698 9.56163 21.1317 13.175 21.4282 13.4967 21.4078 13.9979 21.0861 14.2944 20.7827 14.5741 20.3156 14.5741 20.0122 14.2944 16.957 11.2625 12.028 11.2625 8.97278 14.2944 8.40382 14.8268 7.66669 15.1436 6.88889 15.19Z" fill="#50E6FF" transform="matrix(1.03226 0 0 1 265 138)"/><path d="M6.88889 21.4933C4.38989 21.5113 1.98841 20.5247 0.223889 18.755-0.0648973 18.4443-0.0648973 17.9634 0.223889 17.6528 0.539053 17.342 1.04539 17.342 1.36056 17.6528 2.82191 19.1243 4.81513 19.9439 6.88889 19.9261 8.95804 19.9289 10.9424 19.1042 12.4 17.6356 12.9763 17.122 13.7126 16.8238 14.4839 16.7917 15.2896 16.804 16.0599 17.1245 16.6367 17.6872 16.9454 17.9965 16.9454 18.4974 16.6367 18.8067 16.3215 19.1174 15.8152 19.1174 15.5 18.8067 15.2326 18.5329 14.8666 18.3778 14.4839 18.3761L14.4839 18.3761C14.099 18.4054 13.7351 18.563 13.4506 18.8239 11.7001 20.5429 9.34226 21.5021 6.88889 21.4933Z" fill="#32BEDD" transform="matrix(1.03226 0 0 1 265 138)"/></g></g></g><g clip-path="url(#clip12)"><g clip-path="url(#clip13)"><g clip-path="url(#clip14)"><path d="M338.652 152.501C338.662 152.742 338.479 152.948 338.238 152.966L334.639 152.966C334.398 152.976 334.192 152.793 334.174 152.553L334.174 149.866C334.164 149.625 334.347 149.419 334.587 149.401L338.187 149.401C338.428 149.391 338.633 149.574 338.652 149.814L338.652 152.501Z" fill="#76BC2D"/><path d="M345.041 155.222C345.051 155.463 344.868 155.669 344.628 155.687L341.028 155.687C340.787 155.697 340.582 155.514 340.563 155.274L340.563 152.604C340.553 152.363 340.736 152.158 340.977 152.139L344.576 152.139C344.817 152.129 345.023 152.312 345.041 152.553L345.041 155.222Z" fill="#76BC2D"/><path d="M338.652 157.978C338.662 158.219 338.479 158.424 338.238 158.443L334.639 158.443C334.398 158.453 334.192 158.27 334.174 158.029L334.174 155.343C334.164 155.102 334.347 154.896 334.587 154.878L338.187 154.878C338.428 154.868 338.633 155.051 338.652 155.291L338.652 157.978Z" fill="#76BC2D"/><path d="M332.262 149.78C332.272 150.012 332.097 150.209 331.866 150.228L328.163 150.228C327.928 150.238 327.725 150.065 327.698 149.832L327.698 147.042C327.706 146.814 327.884 146.628 328.112 146.611L331.711 146.611C332.09 146.611 332.262 146.801 332.262 147.076Z" fill="#86D633"/><path d="M332.262 155.222C332.282 155.459 332.106 155.667 331.869 155.687 331.868 155.687 331.867 155.687 331.866 155.687L328.163 155.687C327.916 155.697 327.708 155.504 327.698 155.257 327.698 155.246 327.698 155.234 327.698 155.222L327.698 152.501C327.698 152.267 327.878 152.071 328.112 152.053L331.711 152.053C332.09 152.053 332.262 152.243 332.262 152.501Z" fill="#76BC2D"/><path d="M332.262 160.716C332.282 160.953 332.106 161.161 331.869 161.181 331.868 161.181 331.867 161.181 331.866 161.181L328.163 161.181C327.922 161.191 327.717 161.008 327.698 160.768L327.698 157.978C327.689 157.74 327.873 157.54 328.111 157.53 328.111 157.53 328.111 157.53 328.112 157.53L331.711 157.53C332.09 157.53 332.262 157.702 332.262 157.978Z" fill="#76BC2D"/><path d="M321.843 140.601 324.064 140.601 324.064 140.601 324.064 146.801C324.064 147.076 323.841 147.3 323.565 147.3L321.361 147.3C321.085 147.3 320.861 147.076 320.861 146.801L320.861 141.634C320.833 141.092 321.248 140.63 321.79 140.602 321.807 140.601 321.825 140.601 321.843 140.601Z" fill="#999999"/><path d="M321.843 140.601 324.064 140.601 324.064 140.601 324.064 146.801C324.064 147.076 323.841 147.3 323.565 147.3L321.361 147.3C321.085 147.3 320.861 147.076 320.861 146.801L320.861 141.634C320.833 141.092 321.248 140.63 321.79 140.602 321.807 140.601 321.825 140.601 321.843 140.601Z" fill="#999999" fill-opacity="0.5"/><path d="M346.936 140.601 349.157 140.601C349.699 140.601 350.139 141.04 350.139 141.582L350.139 146.749C350.139 147.025 349.915 147.248 349.639 147.248L347.418 147.248C347.142 147.248 346.918 147.025 346.918 146.749L346.918 140.601 346.936 140.601Z" fill="#999999"/><path d="M346.936 140.601 349.157 140.601C349.699 140.601 350.139 141.04 350.139 141.582L350.139 146.749C350.139 147.025 349.915 147.248 349.639 147.248L347.418 147.248C347.142 147.248 346.918 147.025 346.918 146.749L346.918 140.601 346.936 140.601Z" fill="#999999" fill-opacity="0.5"/><path d="M350.139 141.582 350.139 143.735 350.139 143.735 320.861 143.735 320.861 143.735 320.861 141.582C320.861 141.04 321.301 140.601 321.843 140.601L349.174 140.601C349.71 140.61 350.139 141.047 350.139 141.582Z" fill="#949494"/><path d="M321.361 159.976 323.582 159.976C323.858 159.976 324.082 160.199 324.082 160.475L324.082 166.675 324.082 166.675 321.843 166.675C321.301 166.675 320.861 166.235 320.861 165.693L320.861 160.389C320.903 160.147 321.115 159.972 321.361 159.976Z" fill="#999999"/><path d="M321.361 159.976 323.582 159.976C323.858 159.976 324.082 160.199 324.082 160.475L324.082 166.675 324.082 166.675 321.843 166.675C321.301 166.675 320.861 166.235 320.861 165.693L320.861 160.389C320.903 160.147 321.115 159.972 321.361 159.976Z" fill="#999999" fill-opacity="0.5"/><path d="M347.418 159.976 349.639 159.976C349.915 159.976 350.139 160.199 350.139 160.475L350.139 165.642C350.139 166.184 349.699 166.623 349.157 166.623L346.936 166.623 346.936 166.623 346.936 160.389C346.977 160.153 347.179 159.98 347.418 159.976Z" fill="#999999"/><path d="M347.418 159.976 349.639 159.976C349.915 159.976 350.139 160.199 350.139 160.475L350.139 165.642C350.139 166.184 349.699 166.623 349.157 166.623L346.936 166.623 346.936 166.623 346.936 160.389C346.977 160.153 347.179 159.98 347.418 159.976Z" fill="#999999" fill-opacity="0.5"/><path d="M320.861 165.693 320.861 163.541 320.861 163.541 350.139 163.541 350.139 163.541 350.139 165.693C350.139 166.235 349.699 166.675 349.157 166.675L321.843 166.675C321.301 166.675 320.861 166.235 320.861 165.693Z" fill="#949494"/></g></g></g><g clip-path="url(#clip15)"><g clip-path="url(#clip16)"><g clip-path="url(#clip17)"><path d="M383.542 160.57 382.533 161.582C382.353 161.762 382.062 161.762 381.882 161.583L374.385 154.107C374.026 153.749 374.025 153.167 374.383 152.808L375.397 151.791 375.397 151.791 383.546 159.917C383.726 160.096 383.726 160.388 383.547 160.567Z" fill="#50E6FF"/><path d="M382.376 145.414 383.392 146.427C383.571 146.606 383.572 146.897 383.393 147.077L375.387 155.105 375.387 155.105 374.37 154.091C374.011 153.733 374.01 153.152 374.368 152.793L381.728 145.412C381.908 145.235 382.197 145.236 382.376 145.414Z" fill="#1490DF"/><path d="M403.604 151.798 404.617 152.814C404.975 153.173 404.975 153.754 404.616 154.112L397.118 161.589C396.938 161.768 396.647 161.768 396.468 161.588L395.46 160.577C395.28 160.397 395.281 160.106 395.46 159.927L403.608 151.802 403.608 151.802Z" fill="#50E6FF"/><path d="M404.624 154.087 403.609 155.1 403.609 155.1 395.603 147.072C395.424 146.892 395.424 146.601 395.604 146.421L396.62 145.408C396.8 145.229 397.091 145.229 397.27 145.409L404.63 152.79C404.988 153.149 404.987 153.73 404.628 154.088Z" fill="#1490DF"/><path d="M388.568 155.05 382.387 155.05C382.207 155.057 382.054 154.918 382.043 154.738 382.043 154.693 382.053 154.649 382.074 154.609L389.484 139.946C389.549 139.83 389.672 139.76 389.805 139.764L397.116 139.764C397.296 139.757 397.449 139.895 397.46 140.075 397.46 140.138 397.438 140.198 397.4 140.247L388.697 151.719 397.185 151.719C397.365 151.712 397.518 151.851 397.529 152.031 397.528 152.11 397.496 152.185 397.439 152.241L383.336 166.913C383.204 166.992 382.262 167.774 382.723 166.587L382.723 166.587Z" fill="url(#fill18)"/></g></g></g><g clip-path="url(#clip19)"><g clip-path="url(#clip20)"><g clip-path="url(#clip21)"><path d="M452.848 143.769 443.901 138.603C442.504 137.797 440.783 137.797 439.386 138.603L430.439 143.769C429.042 144.577 428.182 146.067 428.181 147.681L428.181 158.014C428.181 159.628 429.042 161.119 430.439 161.927L439.394 167.094C440.792 167.899 442.513 167.899 443.91 167.094L452.865 161.927C454.263 161.119 455.123 159.628 455.123 158.014L455.123 147.681C455.119 146.064 454.251 144.573 452.848 143.769Z" fill="url(#fill22)"/><path d="M457.006 151.335 450.714 147.703C449.591 147.055 448.209 147.055 447.086 147.703L440.796 151.335C439.672 151.982 438.98 153.18 438.983 154.477L438.983 161.741C438.983 163.037 439.674 164.234 440.796 164.882L447.086 168.514C448.209 169.162 449.591 169.162 450.714 168.514L457.006 164.882C458.131 164.236 458.825 163.038 458.828 161.741L458.828 154.477C458.826 153.179 458.131 151.981 457.006 151.335Z" fill="url(#fill23)"/><path d="M441.051 143.103 442.863 142.101 450.63 158.198 450 158.887 432.883 158.887 433.075 156.826 447.509 156.826 441.051 143.103Z" fill="url(#fill24)"/><path d="M435.288 157.952C435.288 159.379 434.132 160.535 432.705 160.535 431.278 160.535 430.122 159.379 430.122 157.952 430.122 156.525 431.278 155.369 432.705 155.369 434.132 155.369 435.288 156.525 435.288 157.952Z" fill="#FFFFFF"/><path d="M452.938 158.109C452.938 160.338 451.13 162.146 448.901 162.146 446.671 162.146 444.864 160.338 444.864 158.109 444.864 155.879 446.671 154.072 448.901 154.072 451.13 154.072 452.938 155.879 452.938 158.109Z" fill="#FFFFFF"/><path d="M444.432 142.405C444.432 143.832 443.275 144.989 441.848 144.989 440.422 144.989 439.265 143.832 439.265 142.405 439.265 140.979 440.422 139.822 441.848 139.822 443.275 139.822 444.432 140.979 444.432 142.405Z" fill="#FFFFFF"/></g></g></g><rect x="35.5001" y="32.5001" width="605" height="519" stroke="#D9D9D9" stroke-width="1.33333" stroke-miterlimit="8" fill="none"/><g clip-path="url(#clip25)"><g clip-path="url(#clip26)"><g clip-path="url(#clip27)"><path d="M430.532 198.532 456.468 224.468C456.824 224.878 457.444 224.922 457.853 224.567 458.08 224.37 458.205 224.08 458.191 223.779L458.191 197.843C458.191 197.301 457.752 196.861 457.21 196.86 457.193 196.86 457.175 196.86 457.157 196.861L431.221 196.861C430.678 196.867 430.244 197.311 430.249 197.853 430.252 198.107 430.353 198.351 430.532 198.532Z" fill="url(#fill28)"/><path d="M437.524 205.524 449.476 217.476 458.087 208.865 458.087 197.843C458.088 197.32 457.679 196.889 457.157 196.861L446.187 196.861Z" fill="#50E6FF"/><path d="M439.75 213.188C439.931 213.007 440.226 213.007 440.407 213.188L441.82 214.601C442.001 214.783 442.001 215.077 441.82 215.259L431.067 226.012C430.885 226.193 430.591 226.193 430.409 226.012L428.996 224.599C428.815 224.418 428.815 224.123 428.996 223.942Z" fill="url(#fill29)"/><path d="M435.64 208.998C435.822 208.816 436.116 208.816 436.298 208.998L437.71 210.41C437.892 210.592 437.892 210.886 437.71 211.068L431.073 217.705C430.892 217.887 430.597 217.887 430.416 217.705L429.003 216.292C428.821 216.111 428.821 215.816 429.003 215.635Z" fill="url(#fill30)"/><path d="M443.862 217.279C444.044 217.097 444.338 217.097 444.52 217.279L445.932 218.691C446.114 218.873 446.114 219.167 445.932 219.349L439.295 225.986C439.114 226.168 438.819 226.168 438.638 225.986L437.225 224.573C437.043 224.392 437.043 224.097 437.225 223.916Z" fill="url(#fill31)"/><path d="M444.827 204.038C445.082 203.782 445.497 203.782 445.752 204.038L446.897 205.182C447.153 205.438 447.153 205.852 446.897 206.108L445.752 207.253C445.497 207.508 445.082 207.508 444.827 207.253L443.682 206.108C443.427 205.852 443.427 205.438 443.682 205.182Z" fill="#FFFFFF"/><path d="M448.96 199.897C449.216 199.642 449.63 199.642 449.886 199.897L451.03 201.042C451.286 201.298 451.286 201.712 451.03 201.968L449.886 203.112C449.63 203.368 449.216 203.368 448.96 203.112L447.815 201.968C447.56 201.712 447.56 201.298 447.815 201.042Z" fill="#FFFFFF"/><path d="M448.967 208.171C449.223 207.915 449.637 207.915 449.893 208.171L451.038 209.316C451.293 209.571 451.293 209.986 451.038 210.241L449.893 211.386C449.637 211.642 449.223 211.642 448.967 211.386L447.823 210.241C447.567 209.986 447.567 209.571 447.823 209.316Z" fill="#FFFFFF"/><path d="M451.956 205.179 453.093 204.043C453.347 203.786 453.761 203.784 454.018 204.038 454.02 204.04 454.021 204.041 454.023 204.043L455.159 205.179C455.416 205.434 455.418 205.848 455.164 206.105 455.162 206.106 455.161 206.108 455.159 206.109L454.023 207.246C453.768 207.503 453.354 207.505 453.097 207.251 453.096 207.249 453.094 207.248 453.093 207.246L451.956 206.109C451.699 205.855 451.697 205.441 451.952 205.184 451.953 205.182 451.955 205.181 451.956 205.179" fill="#FFFFFF"/></g></g></g><g clip-path="url(#clip32)"><g clip-path="url(#clip33)"><g clip-path="url(#clip34)"><path d="M11.1428 9.12778C5.45944 9.12778 0.809444 7.40556 0.809444 5.40778L0.809444 25.1961C0.809444 27.2283 5.33889 28.8989 10.9361 28.9161L11.0911 28.9161C16.7572 28.9161 21.4244 27.1939 21.4244 25.1961L21.4244 5.40778C21.4072 7.45722 16.8089 9.12778 11.1428 9.12778Z" fill="url(#fill35)" transform="matrix(1.03226 0 0 1 265 196)"/><path d="M21.4072 5.40778C21.4072 7.45722 16.8089 9.12778 11.0739 9.12778 5.33889 9.12778 0.740556 7.40556 0.740556 5.40778 0.740556 3.41 5.45944 1.72222 11.1428 1.72222 16.8261 1.72222 21.4761 3.44444 21.4761 5.45944" fill="#EAEAEA" transform="matrix(1.03226 0 0 1 265 196)"/><path d="M18.9444 5.16667C18.9444 6.47556 15.5 7.52611 11.0739 7.52611 6.64778 7.52611 3.255 6.40667 3.255 5.16667 3.255 3.92667 6.78556 2.73833 11.1428 2.73833 15.5 2.73833 18.9444 3.78889 18.9444 5.16667" fill="#50E6FF" transform="matrix(1.03226 0 0 1 265 196)"/><path d="M11.1428 5.64889C9.02346 5.59551 6.91021 5.89823 4.89111 6.54444 6.90839 7.20004 9.02227 7.50867 11.1428 7.45722 13.2576 7.50772 15.3656 7.19908 17.3772 6.54444 15.3636 5.90014 13.2563 5.59744 11.1428 5.64889Z" fill="#198AB3" transform="matrix(1.03226 0 0 1 265 196)"/><path d="M28.8472 21.9411C28.1353 21.274 27.2429 20.8308 26.2811 20.6667 26.1505 17.6115 23.5853 15.2306 20.5289 15.3278 18.0858 15.2808 15.878 16.7779 15.0178 19.065 12.4214 19.3535 10.4283 21.5005 10.3333 24.1111 10.4455 27.0658 12.9237 29.3747 15.8789 29.2778L16.3783 29.2778 25.3856 29.2778 25.6094 29.2778C28.0129 29.2611 29.978 27.3567 30.07 24.955 30.0568 23.8237 29.5917 22.7447 28.7783 21.9583" fill="url(#fill36)" transform="matrix(1.03226 0 0 1 265 196)"/><path d="M24.6278 27.2111 23.0089 27.2111 23.0089 22.8539C23.0089 22.3946 23.0089 21.878 23.0089 21.3039L23.0089 21.3039C23.0089 21.7344 22.8367 22.0617 22.785 22.2683L21.0628 27.2111 19.7194 27.2111 17.9972 22.3028C17.9012 21.975 17.8264 21.6413 17.7733 21.3039L17.7733 21.3039C17.7733 22.01 17.7733 22.6472 17.7733 23.1811L17.7733 27.2111 16.3267 27.2111 16.3267 19.9261 18.7378 19.9261 20.2189 24.2489C20.3373 24.5845 20.4237 24.9304 20.4772 25.2822L20.4772 25.2822C20.5633 24.8861 20.6667 24.5244 20.7528 24.2317L22.2511 19.9261 24.6278 19.9261Z" fill="#FFFFFF" transform="matrix(1.03226 0 0 1 265 196)"/></g></g></g><g clip-path="url(#clip37)"><g clip-path="url(#clip38)"><g clip-path="url(#clip39)"><path d="M220.542 102.57 219.533 103.582C219.353 103.762 219.062 103.762 218.882 103.583L211.385 96.1065C211.026 95.7486 211.025 95.1674 211.383 94.8084L212.397 93.7913 212.397 93.7913 220.546 101.917C220.726 102.096 220.726 102.388 220.547 102.567Z" fill="#50E6FF"/><path d="M219.376 87.414 220.392 88.4269C220.571 88.6063 220.572 88.8974 220.393 89.0772L212.387 97.1053 212.387 97.1053 211.37 96.0911C211.011 95.7331 211.01 95.1519 211.368 94.7929L218.728 87.4124C218.908 87.2349 219.197 87.2356 219.376 87.414Z" fill="#1490DF"/><path d="M240.604 93.7983 241.617 94.8142C241.975 95.1731 241.975 95.7544 241.616 96.1123L234.118 103.589C233.938 103.768 233.647 103.768 233.468 103.588L232.46 102.577C232.28 102.397 232.281 102.106 232.46 101.927L240.608 93.802 240.608 93.802Z" fill="#50E6FF"/><path d="M241.624 96.0867 240.609 97.0997 240.609 97.0997 232.603 89.0716C232.424 88.8918 232.424 88.6007 232.604 88.4213L233.62 87.4083C233.8 87.229 234.091 87.2294 234.27 87.4093L241.63 94.7898C241.988 95.1488 241.987 95.73 241.628 96.0879Z" fill="#1490DF"/><path d="M225.568 97.05 219.387 97.05C219.207 97.0569 219.054 96.9185 219.043 96.7383 219.043 96.6934 219.053 96.6491 219.074 96.6091L226.484 81.9461C226.549 81.8302 226.672 81.7598 226.805 81.7636L234.116 81.7636C234.296 81.7567 234.449 81.8951 234.46 82.0753 234.46 82.1377 234.438 82.1983 234.4 82.2475L225.697 93.7192 234.185 93.7192C234.365 93.7123 234.518 93.8507 234.529 94.0309 234.528 94.11 234.496 94.1854 234.439 94.2411L220.336 108.913C220.204 108.992 219.262 109.774 219.723 108.587L219.723 108.587Z" fill="url(#fill40)"/></g></g></g><g clip-path="url(#clip41)"><g clip-path="url(#clip42)"><g clip-path="url(#clip43)"><path d="M449.109 103.716C443.631 107.965 435.745 106.968 431.496 101.489 427.247 96.0106 428.244 88.1249 433.723 83.8761L433.856 83.7797C439.436 79.6659 447.295 80.8549 451.409 86.4355 455.419 91.8755 454.403 99.5141 449.109 103.716" fill="url(#fill44)"/><path d="M438.003 91.1835C441.555 87.8073 446.263 85.9154 451.164 85.8946 450.524 85.0934 449.787 84.3749 448.97 83.7556 446.583 83.9084 444.239 84.4615 442.036 85.3917 439.767 86.3573 437.717 87.7714 436.008 89.5491 436.834 89.8617 437.534 90.4357 438.003 91.1835Z" fill="#FFFFFF" fill-opacity="0.6"/><path d="M431.789 96.2262C431.284 97.4861 430.871 98.7812 430.554 100.101 430.832 100.574 431.139 101.029 431.474 101.463 431.729 101.797 432.002 102.116 432.292 102.419 432.649 100.661 433.184 98.9447 433.89 97.2957 433.098 97.1574 432.366 96.7848 431.789 96.2262Z" fill="#FFFFFF" fill-opacity="0.6"/><path d="M433.234 89.5284C432.711 88.1273 432.369 86.6655 432.216 85.1781 431.596 85.8348 431.048 86.5566 430.583 87.3309 430.758 88.5163 431.041 89.6831 431.429 90.8167 431.898 90.2263 432.523 89.7798 433.234 89.5284Z" fill="#F2F2F2" fill-opacity="0.55"/><path d="M438.623 93.3259C438.623 95.5545 436.816 97.3611 434.587 97.3611 432.359 97.3611 430.552 95.5545 430.552 93.3259 430.552 91.0974 432.359 89.2908 434.587 89.2908 436.816 89.2908 438.623 91.0974 438.623 93.3259Z" fill="url(#fill45)"/><path d="M440.471 100.694C440.47 99.9878 440.755 99.3118 441.261 98.8198 439.904 98.0725 438.65 97.1508 437.533 96.0781 436.945 96.7049 436.173 97.1274 435.328 97.2836 435.99 97.9723 436.707 98.6059 437.472 99.1781 438.418 99.8888 439.43 100.506 440.495 101.021 440.479 100.912 440.471 100.803 440.471 100.694Z" fill="#F2F2F2" fill-opacity="0.55"/><path d="M449.772 101.007C448.403 101.007 447.038 100.848 445.704 100.533 445.704 100.587 445.713 100.64 445.713 100.694 445.715 101.379 445.447 102.038 444.967 102.528 446.625 102.855 448.317 102.976 450.005 102.888 450.64 102.288 451.21 101.623 451.705 100.904 451.063 100.973 450.418 101.007 449.772 101.007Z" fill="#F2F2F2" fill-opacity="0.55"/><path d="M445.713 100.694C445.713 102.141 444.539 103.315 443.092 103.315 441.644 103.315 440.471 102.141 440.471 100.694 440.471 99.2459 441.644 98.0724 443.092 98.0724 444.539 98.0724 445.713 99.2459 445.713 100.694Z" fill="url(#fill46)"/><path d="M446.316 93.6893C446.453 93.118 446.77 92.606 447.22 92.2289 444.784 90.4598 442.571 88.4022 440.629 86.1012 439.505 84.7688 438.524 83.3229 437.7 81.7871 437.151 81.9559 436.615 82.1625 436.094 82.4053 436.971 84.0829 438.027 85.6605 439.244 87.1104 441.319 89.5884 443.695 91.7983 446.316 93.6893Z" fill="#F2F2F2" fill-opacity="0.7"/><path d="M451.851 94.1922C451.851 95.7302 450.604 96.9771 449.066 96.9771 447.528 96.9771 446.281 95.7302 446.281 94.1922 446.281 92.6542 447.528 91.4074 449.066 91.4074 450.604 91.4074 451.851 92.6542 451.851 94.1922Z" fill="#F2F2F2"/><path d="M453.744 96.0694C453.572 95.9833 453.434 95.9076 453.27 95.8197L453.225 95.7956C453.077 95.7181 452.933 95.6389 452.788 95.5597L452.707 95.5149 452.313 95.2944 452.216 95.2393C452.059 95.1515 451.904 95.0671 451.751 94.9741 451.592 95.5184 451.263 95.9971 450.811 96.3398 450.992 96.4466 451.176 96.5517 451.364 96.6567L451.488 96.7273 452.004 97.0115 452.054 97.0391C452.469 97.2647 452.893 97.4903 453.327 97.7124L453.327 97.7124C453.504 97.1745 453.644 96.625 453.746 96.0677Z" fill="#F2F2F2" fill-opacity="0.55"/><path d="M438.623 93.3259C438.623 95.5545 436.816 97.3611 434.587 97.3611 432.359 97.3611 430.552 95.5545 430.552 93.3259 430.552 91.0974 432.359 89.2908 434.587 89.2908 436.816 89.2908 438.623 91.0974 438.623 93.3259Z" fill="url(#fill47)"/><path d="M445.713 100.694C445.713 102.141 444.539 103.315 443.092 103.315 441.644 103.315 440.471 102.141 440.471 100.694 440.471 99.2459 441.644 98.0724 443.092 98.0724 444.539 98.0724 445.713 99.2459 445.713 100.694Z" fill="#F2F2F2"/><path d="M458.139 99.2056 457.593 97.5557 457.333 97.5557 455.376 97.5557 454.541 96.5809 454.806 94.3748 453.265 93.5998 453.072 93.7927 451.694 95.1704 450.413 95.0809 449.035 93.3242 447.385 93.8702 447.375 94.1302 447.375 96.0867 446.4 96.9219 444.23 96.6516 443.457 98.1912 443.65 98.3841 445.028 99.7619 444.94 101.042 443.154 102.437 443.7 104.085 443.96 104.095 445.916 104.095 446.752 105.07 446.486 107.276 448.028 108.049 448.221 107.856 449.598 106.479 450.88 106.568 452.258 108.325 453.907 107.779 453.918 107.519 453.918 105.564 454.892 104.727 457.099 104.992 457.874 103.453 457.681 103.258 456.303 101.88 456.393 100.599ZM451.699 103.992C449.947 104.572 448.056 103.622 447.475 101.87 446.894 100.117 447.844 98.226 449.597 97.6453 451.349 97.0646 453.241 98.0146 453.821 99.7671 453.822 99.7688 453.822 99.7705 453.823 99.7722 454.401 101.524 453.451 103.412 451.699 103.992Z" fill="url(#fill48)"/><path d="M441.111 106.408 441.111 105.04 440.917 104.97 439.453 104.489 439.072 103.561 439.816 101.978 438.85 101.01 438.657 101.107 437.29 101.796 436.354 101.412 435.762 99.7722 434.395 99.7722 434.322 99.9634 433.844 101.427 432.907 101.811 431.348 101.067 430.389 102.027 430.483 102.219 431.172 103.587 430.79 104.522 429.118 105.111 429.118 106.489 429.309 106.561 430.773 107.042 431.157 107.977 430.413 109.56 431.372 110.519 431.563 110.422 432.931 109.734 433.866 110.116 434.467 111.773 435.834 111.773 435.905 111.58 436.385 110.116 437.321 109.734 438.905 110.476 439.864 109.517 439.768 109.325 439.079 107.958 439.463 107.023ZM435.115 108.394C433.66 108.395 432.48 107.216 432.479 105.762 432.479 104.308 433.657 103.128 435.111 103.127 436.565 103.126 437.745 104.304 437.746 105.759 437.746 105.759 437.746 105.76 437.746 105.76 437.747 107.214 436.57 108.393 435.116 108.394 435.116 108.394 435.115 108.394 435.115 108.394Z" fill="#50E6FF"/><path d="M453.992 100.818C453.992 102.664 452.495 104.16 450.649 104.16 448.803 104.16 447.306 102.664 447.306 100.818 447.306 98.9714 448.803 97.4748 450.649 97.4748 452.495 97.4748 453.992 98.9714 453.992 100.818Z" fill="#FFFFFF"/><path d="M437.746 105.76C437.746 107.214 436.568 108.392 435.115 108.392 433.661 108.392 432.483 107.214 432.483 105.76 432.483 104.307 433.661 103.129 435.115 103.129 436.568 103.129 437.746 104.307 437.746 105.76Z" fill="#FFFFFF"/></g></g></g><g clip-path="url(#clip49)"><g clip-path="url(#clip50)"><g clip-path="url(#clip51)"><path d="M382 212.289C381.901 207.877 378.58 204.206 374.2 203.667 373.935 197.468 368.735 192.634 362.533 192.822 357.601 192.715 353.134 195.723 351.378 200.333 346.104 200.974 342.105 205.399 342 210.711 342.229 216.709 347.268 221.39 353.267 221.178L354.244 221.178 372.489 221.178C372.651 221.201 372.816 221.201 372.978 221.178 377.89 221.131 381.88 217.199 382 212.289Z" fill="url(#fill52)"/><path d="M354.044 210.089 352.089 210.089C351.788 208.785 350.488 207.972 349.184 208.273 347.881 208.574 347.068 209.874 347.368 211.178 347.669 212.481 348.97 213.294 350.273 212.994 351.176 212.785 351.881 212.08 352.089 211.178L354.044 211.178C354.29 211.178 354.489 211.377 354.489 211.622L354.489 221.178 355.578 221.178 355.578 211.622C355.578 210.775 354.891 210.089 354.044 210.089ZM349.711 212.044C348.926 212.044 348.289 211.408 348.289 210.622 348.289 209.837 348.926 209.2 349.711 209.2 350.497 209.2 351.133 209.837 351.133 210.622 351.133 211.408 350.497 212.044 349.711 212.044Z" fill="#9CEBFF"/><path d="M361.867 210.578 361.867 208.356C361.867 207.496 361.17 206.8 360.311 206.8L356.867 206.8C356.621 206.8 356.422 206.601 356.422 206.356L356.422 194.556 355.911 194.822 355.333 195.133 355.333 206.244C355.333 207.091 356.02 207.778 356.867 207.778L360.311 207.778C360.569 207.778 360.778 207.987 360.778 208.244L360.778 210.467C359.671 210.708 358.884 211.69 358.889 212.822 358.888 214.16 359.971 215.245 361.309 215.247 362.647 215.248 363.732 214.164 363.733 212.826 363.734 211.702 362.961 210.725 361.867 210.467ZM361.311 214.356 361.311 214.356C360.526 214.356 359.889 213.719 359.889 212.933 359.889 212.148 360.526 211.511 361.311 211.511 362.097 211.511 362.733 212.148 362.733 212.933 362.733 213.719 362.097 214.356 361.311 214.356Z" fill="#F2F2F2"/><path d="M374.289 205.889C372.951 205.894 371.871 206.982 371.875 208.32 371.879 209.437 372.647 210.406 373.733 210.667L373.733 211.111C373.733 211.369 373.524 211.578 373.267 211.578L368.822 211.578 368.822 203.756C368.822 202.909 368.136 202.222 367.289 202.222L365 202.222C364.759 201.116 363.777 200.328 362.644 200.333 361.307 200.332 360.221 201.416 360.22 202.753 360.219 204.091 361.302 205.177 362.64 205.178 363.765 205.179 364.742 204.406 365 203.311L367.378 203.311C367.623 203.311 367.822 203.51 367.822 203.756L367.822 221.178 368.911 221.178 368.911 212.667 373.356 212.667C374.215 212.667 374.911 211.97 374.911 211.111L374.911 210.667C376.013 210.418 376.797 209.441 376.8 208.311L376.8 208.311C376.801 206.973 375.717 205.888 374.379 205.887 374.349 205.887 374.319 205.888 374.289 205.889ZM362.644 204.178 362.644 204.178C361.859 204.178 361.222 203.541 361.222 202.756 361.222 201.97 361.859 201.333 362.644 201.333 363.43 201.333 364.067 201.97 364.067 202.756 364.067 203.541 363.43 204.178 362.644 204.178ZM374.289 209.733 374.289 209.733C373.504 209.746 372.857 209.119 372.845 208.334 372.832 207.548 373.459 206.902 374.244 206.889 375.03 206.877 375.676 207.504 375.689 208.289 375.689 208.296 375.689 208.304 375.689 208.311 375.689 209.088 375.066 209.721 374.289 209.733Z" fill="#9CEBFF"/></g></g></g><g clip-path="url(#clip53)"><g clip-path="url(#clip54)"><g clip-path="url(#clip55)"><path d="M491.542 160.57 490.533 161.582C490.353 161.762 490.062 161.762 489.882 161.583L482.385 154.107C482.026 153.749 482.025 153.167 482.383 152.808L483.397 151.791 483.397 151.791 491.546 159.917C491.726 160.096 491.726 160.388 491.547 160.567Z" fill="#50E6FF"/><path d="M490.376 145.414 491.392 146.427C491.571 146.606 491.572 146.897 491.393 147.077L483.387 155.105 483.387 155.105 482.37 154.091C482.011 153.733 482.01 153.152 482.368 152.793L489.728 145.412C489.908 145.235 490.197 145.236 490.376 145.414Z" fill="#1490DF"/><path d="M511.604 151.798 512.617 152.814C512.975 153.173 512.974 153.754 512.616 154.112L505.118 161.589C504.938 161.768 504.647 161.768 504.468 161.588L503.46 160.577C503.28 160.397 503.281 160.106 503.46 159.927L511.608 151.802 511.608 151.802Z" fill="#50E6FF"/><path d="M512.624 154.087 511.609 155.1 511.609 155.1 503.603 147.072C503.424 146.892 503.424 146.601 503.604 146.421L504.62 145.408C504.8 145.229 505.091 145.229 505.27 145.409L512.63 152.79C512.988 153.149 512.987 153.73 512.628 154.088Z" fill="#1490DF"/><path d="M496.568 155.05 490.387 155.05C490.207 155.057 490.054 154.918 490.043 154.738 490.043 154.693 490.053 154.649 490.074 154.609L497.484 139.946C497.549 139.83 497.672 139.76 497.805 139.764L505.116 139.764C505.296 139.757 505.449 139.895 505.46 140.075 505.46 140.138 505.438 140.198 505.4 140.247L496.697 151.719 505.185 151.719C505.365 151.712 505.518 151.851 505.529 152.031 505.528 152.11 505.496 152.185 505.439 152.241L491.336 166.913C491.204 166.992 490.262 167.774 490.723 166.587L490.723 166.587Z" fill="url(#fill56)"/></g></g></g><path d="M151.13 153.173 210.71 153.772 210.704 154.438 151.123 153.84ZM156.247 157.174 150.498 153.5 156.319 149.942C156.477 149.846 156.682 149.896 156.778 150.053 156.874 150.21 156.824 150.415 156.667 150.511L151.3 153.791 151.306 153.225 156.606 156.612C156.761 156.711 156.806 156.917 156.707 157.073 156.608 157.228 156.402 157.273 156.247 157.174ZM205.587 150.437 211.336 154.111 205.514 157.669C205.357 157.765 205.152 157.716 205.056 157.558 204.96 157.401 205.009 157.196 205.166 157.1L210.533 153.821 210.527 154.386 205.228 150.999C205.073 150.9 205.027 150.694 205.126 150.539 205.225 150.384 205.431 150.338 205.587 150.437Z" fill="#4472C4"/><path d="M0.00885693-0.333216 22.3489 0.260587 22.3312 0.927019-0.00885693 0.333216ZM14.6424-4.56715 23.0013 0.61138 14.3791 5.33854C14.2177 5.42704 14.0151 5.36793 13.9266 5.2065 13.8381 5.04508 13.8972 4.84247 14.0586 4.75397L22.1798 0.301514 22.1645 0.877164 14.2913-4.00042C14.1348-4.09737 14.0865-4.30284 14.1835-4.45933 14.2804-4.61583 14.4859-4.6641 14.6424-4.56715Z" fill="#4472C4" transform="matrix(1 0 0 -1 242.5 154.111)"/><path d="M297.5 153.167 319.84 153.167 319.84 153.833 297.5 153.833ZM312.008 148.546 320.502 153.5 312.008 158.455C311.849 158.547 311.645 158.494 311.552 158.335 311.459 158.176 311.513 157.972 311.672 157.879L319.672 153.212 319.672 153.788 311.672 149.121C311.513 149.029 311.46 148.825 311.552 148.665 311.645 148.506 311.849 148.453 312.008 148.546Z" fill="#4472C4"/><path d="M1.52156e-06-0.333333 22.34-0.333231 22.34 0.333435-1.52156e-06 0.333333ZM14.5079-4.95453 23.0014 0.00010501 14.5078 4.95466C14.3488 5.04742 14.1447 4.99371 14.0519 4.83469 13.9592 4.67567 14.0129 4.47156 14.1719 4.37881L22.1719-0.287825 22.1719 0.288027 14.172-4.37868C14.0129-4.47144 13.9592-4.67554 14.052-4.83456 14.1448-4.99358 14.3489-5.04729 14.5079-4.95453Z" fill="#4472C4" transform="matrix(1 0 0 -1 351.5 153.5)"/><path d="M405.509 153.167 427.849 153.761 427.831 154.427 405.491 153.833ZM420.143 148.933 428.501 154.111 419.879 158.839C419.718 158.927 419.515 158.868 419.427 158.706 419.338 158.545 419.397 158.342 419.559 158.254L427.68 153.801 427.665 154.377 419.791 149.5C419.635 149.403 419.587 149.197 419.684 149.041 419.781 148.884 419.986 148.836 420.143 148.933Z" fill="#4472C4"/><path d="M0.00885537-0.333216 22.3489 0.260483 22.3312 0.926914-0.00885537 0.333216ZM14.6425-4.56721 23.0014 0.611275 14.3792 5.33848C14.2178 5.42698 14.0152 5.36786 13.9267 5.20644 13.8382 5.04501 13.8973 4.84241 14.0587 4.7539L22.1799 0.301413 22.1646 0.877063 14.2914-4.00049C14.1349-4.09744 14.0866-4.3029 14.1836-4.45939 14.2805-4.61589 14.486-4.66416 14.6425-4.56721Z" fill="#4472C4" transform="matrix(1 0 0 -1 459.5 154.111)"/><path d="M444.833 112.5 444.833 137.896 444.167 137.896 444.167 112.5ZM449.455 130.064 444.5 138.557 439.546 130.064C439.453 129.905 439.507 129.701 439.665 129.608 439.825 129.515 440.029 129.569 440.121 129.728L444.788 137.728 444.212 137.728 448.879 129.728C448.972 129.569 449.176 129.515 449.335 129.608 449.494 129.701 449.547 129.905 449.455 130.064Z" fill="#4472C4"/><path d="M0-0.333333 41.3888-0.333333 41.3888 37.9509 40.7221 37.9509 40.7221 0 41.0554 0.333333 0 0.333333ZM46.01 30.1189 41.0554 38.6125 36.1008 30.1189C36.0081 29.9599 36.0618 29.7558 36.2208 29.663 36.3798 29.5702 36.5839 29.6239 36.6767 29.783L41.3434 37.783 40.7675 37.783 45.4342 29.783C45.5269 29.6239 45.731 29.5702 45.8901 29.663 46.0491 29.7558 46.1028 29.9599 46.01 30.1189Z" fill="#4472C4" transform="matrix(-1.83697e-16 -1 -1 1.83697e-16 498.111 138.555)"/><path d="M227.833 111.5 227.833 138.007 227.167 138.007 227.167 111.5ZM232.455 130.175 227.5 138.669 222.546 130.175C222.453 130.016 222.506 129.812 222.665 129.719 222.825 129.626 223.029 129.68 223.121 129.839L227.788 137.839 227.212 137.839 231.879 129.839C231.972 129.68 232.176 129.626 232.335 129.719 232.494 129.812 232.547 130.016 232.455 130.175Z" fill="#4472C4"/><path d="M428.164 96.9448 243.161 95.8373 243.165 95.1707 428.168 96.2781ZM250.962 100.505 242.499 95.5 251.022 90.5964C251.181 90.5046 251.385 90.5595 251.477 90.7191 251.569 90.8786 251.514 91.0824 251.354 91.1742L243.326 95.7929 243.33 95.2171 251.302 99.9316C251.46 100.025 251.513 100.23 251.419 100.388 251.325 100.547 251.121 100.599 250.962 100.505Z" fill="#4472C4"/><path d="M281.833 169.5 281.833 195.507 281.167 195.507 281.167 169.5ZM286.455 187.675 281.5 196.168 276.546 187.675C276.453 187.516 276.507 187.312 276.665 187.219 276.825 187.126 277.029 187.18 277.121 187.339L281.788 195.339 281.212 195.339 285.879 187.339C285.972 187.18 286.176 187.126 286.335 187.219 286.494 187.312 286.547 187.516 286.455 187.675Z" fill="#4472C4"/><path d="M444.833 169.5 444.833 194.896 444.167 194.896 444.167 169.5ZM449.455 187.064 444.5 195.557 439.546 187.064C439.453 186.905 439.507 186.701 439.665 186.608 439.825 186.515 440.029 186.569 440.121 186.728L444.788 194.728 444.212 194.728 448.879 186.728C448.972 186.569 449.176 186.515 449.335 186.608 449.494 186.701 449.547 186.905 449.455 187.064Z" fill="#4472C4"/><g clip-path="url(#clip57)"><g clip-path="url(#clip58)"><g clip-path="url(#clip59)"><path d="M101.809 392.304 101.263 393.353 101.24 393.395C99.9732 395.548 97.634 396.886 95.1334 396.886 93.879 396.886 92.6398 396.547 91.5535 395.908 89.9237 394.949 88.7645 393.415 88.2908 391.584 88.2699 391.506 88.2527 391.428 88.2353 391.349L87.3328 398.276 102.592 398.276 101.809 392.304Z" fill="#4B4B4B"/><path d="M102.71 367.194 89.84 386.692C88.1193 389.618 89.096 393.387 92.0235 395.108 94.9502 396.829 98.7182 395.852 100.44 392.924L109.175 376.132 104.36 371.554C103.104 370.259 102.676 368.813 102.71 367.194ZM97.2534 391.051C96.5671 392.219 95.0641 392.608 93.897 391.922 92.7292 391.235 92.3392 389.733 93.0263 388.565 93.7125 387.397 95.2155 387.008 96.3826 387.694 97.5497 388.381 97.9404 389.884 97.2534 391.051Z" fill="#4B4B4B"/><path d="M103.02 399.112 87.0127 399.112C85.9227 399.112 85.0397 399.995 85.0397 401.085L85.0397 407 104.992 407 104.992 401.085C104.992 399.995 104.109 399.112 103.02 399.112Z" fill="#4B4B4B"/><path d="M123.553 378.325C124.184 378.325 124.791 378.435 125.353 378.637L112.873 363.718C110.882 361.555 107.515 361.416 105.353 363.407 103.19 365.396 103.052 368.764 105.042 370.926L118.222 383.446C118.334 380.603 120.682 378.325 123.553 378.325ZM110.331 368.815C109.507 369.573 108.224 369.519 107.465 368.695 106.705 367.871 106.759 366.588 107.583 365.83 108.407 365.07 109.691 365.123 110.45 365.948 111.209 366.772 111.155 368.055 110.331 368.815Z" fill="#4B4B4B"/><path d="M121.94 394.1 123.66 396.036 125.38 394.1 125.38 390.914 121.94 390.914Z" fill="#4B4B4B"/><path d="M123.553 379.252C121.118 379.252 119.145 381.225 119.145 383.66L119.145 390.003 127.96 390.003 127.96 383.66C127.96 381.225 125.988 379.252 123.553 379.252ZM123.553 385.246C122.602 385.246 121.832 384.476 121.832 383.526 121.832 382.575 122.602 381.804 123.553 381.804 124.503 381.804 125.274 382.575 125.274 383.526 125.274 384.476 124.503 385.246 123.553 385.246Z" fill="#4B4B4B"/></g></g></g><text font-family="Yu Gothic,Yu Gothic_MSFontService,sans-serif" font-weight="400" font-size="13" transform="translate(143.629 388)"></text><g clip-path="url(#clip60)"><g clip-path="url(#clip61)"><g clip-path="url(#clip62)"><path d="M281.026 383.536C281.026 385.409 279.507 386.928 277.633 386.928 275.76 386.928 274.241 385.409 274.241 383.536 274.241 381.662 275.76 380.143 277.633 380.143 279.507 380.143 281.026 381.662 281.026 383.536Z" fill="#FFFFFF"/><path d="M285.986 393.628C285.986 395.102 284.791 396.297 283.317 396.297 281.842 396.297 280.647 395.102 280.647 393.628 280.647 392.153 281.842 390.958 283.317 390.958 284.791 390.958 285.986 392.153 285.986 393.628Z" fill="#FFFFFF"/><path d="M275.05 391.802C275.05 393.067 274.024 394.093 272.759 394.093 271.494 394.093 270.469 393.067 270.469 391.802 270.469 390.537 271.494 389.512 272.759 389.512 274.024 389.512 275.05 390.537 275.05 391.802Z" fill="#FFFFFF"/><path d="M273.948 374.356C273.948 375.926 272.676 377.198 271.106 377.198 269.537 377.198 268.264 375.926 268.264 374.356 268.264 372.787 269.537 371.514 271.106 371.514 272.676 371.514 273.948 372.787 273.948 374.356Z" fill="#FFFFFF"/><path d="M265.784 384.827C265.784 386.092 264.759 387.118 263.494 387.118 262.229 387.118 261.203 386.092 261.203 384.827 261.203 383.562 262.229 382.537 263.494 382.537 264.759 382.537 265.784 383.562 265.784 384.827Z" fill="#FFFFFF"/><path d="M283.937 393.094 278.202 383.053 277.633 383.381 278.098 383.036 271.606 373.805 270.417 374.666 276.169 382.847 263.425 383.897 263.546 385.378 276.169 384.328 271.984 391.286 273.242 392.043 277.547 384.879 282.662 393.817 283.937 393.094Z" fill="#949494"/><path d="M288.191 371.118 288.191 371.118C288.191 370.424 287.628 369.861 286.933 369.861L280.389 369.861C280.046 369.861 279.769 370.139 279.769 370.481L279.769 372.909C279.769 373.252 280.046 373.529 280.389 373.529L284.436 373.529 284.436 377.491C284.445 377.839 284.725 378.119 285.073 378.128L287.484 378.128C287.833 378.119 288.113 377.839 288.122 377.491L288.122 371.118Z" fill="#949494"/><path d="M266.611 395.471 262.495 395.471 262.495 391.509C262.486 391.161 262.206 390.881 261.858 390.872L259.447 390.872C259.099 390.881 258.818 391.161 258.809 391.509L258.809 397.882 258.809 397.882C258.819 398.569 259.379 399.122 260.067 399.122L266.611 399.122C266.954 399.122 267.231 398.844 267.231 398.502L267.231 396.091C267.231 395.748 266.954 395.471 266.611 395.471Z" fill="#949494"/><path d="M277.633 380.177C279.536 380.178 281.077 381.72 281.077 383.623 281.076 385.525 279.534 387.067 277.631 387.066 275.729 387.066 274.187 385.523 274.188 383.621 274.188 383.592 274.188 383.564 274.189 383.536 274.236 381.667 275.764 380.177 277.633 380.177ZM268.333 374.356C268.324 375.935 269.597 377.222 271.176 377.231 272.755 377.24 274.042 375.968 274.051 374.389 274.06 372.81 272.787 371.523 271.209 371.514 271.18 371.513 271.152 371.514 271.123 371.514 269.574 371.543 268.333 372.807 268.333 374.356ZM261.203 384.81C261.203 386.075 262.229 387.101 263.494 387.101 264.759 387.101 265.784 386.075 265.784 384.81 265.784 383.545 264.759 382.519 263.494 382.519 262.229 382.519 261.203 383.545 261.203 384.81ZM270.469 391.785C270.459 393.06 271.485 394.1 272.759 394.11 274.034 394.119 275.075 393.094 275.084 391.819 275.094 390.545 274.068 389.504 272.794 389.495 272.788 389.494 272.782 389.494 272.777 389.494 271.512 389.485 270.478 390.503 270.469 391.768 270.469 391.773 270.469 391.779 270.469 391.785ZM280.664 393.628C280.655 395.102 281.842 396.305 283.317 396.314 284.791 396.324 285.994 395.136 286.003 393.662 286.013 392.188 284.825 390.985 283.351 390.976 283.345 390.976 283.34 390.976 283.334 390.976 281.879 390.957 280.684 392.121 280.665 393.576 280.664 393.593 280.664 393.61 280.664 393.628Z" fill="url(#fill63)"/></g></g></g><text font-family="Yu Gothic,Yu Gothic_MSFontService,sans-serif" font-weight="400" font-size="13" transform="translate(303.419 388)">Azure IoT<tspan font-size="13" x="62.1667" y="0">Hub</tspan></text><g clip-path="url(#clip64)"><g clip-path="url(#clip65)"><g clip-path="url(#clip66)"><path d="M453 387.688 453 384.606 452.828 384.451 449.659 383.383 448.849 381.333 450.417 378.096 450.589 377.734 449.556 376.683 448.35 375.495 447.937 375.702 444.837 377.269 442.753 376.683 441.409 373.239 438.327 373.239 438.172 373.394 437.104 376.546 434.934 377.355 431.352 375.633 429.147 377.786 429.354 378.199 431.007 381.333C432.669 380.332 434.579 379.819 436.518 379.852 438.72 379.863 440.866 380.549 442.667 381.816 442.883 381.951 443.09 382.1 443.287 382.263L443.287 382.263C444.01 382.889 444.562 383.689 444.888 384.588L444.888 384.588C445.129 385.197 445.252 385.846 445.25 386.5 445.25 389.572 442.76 392.063 439.687 392.063 439.676 392.063 439.664 392.063 439.653 392.063 438.501 392.061 437.377 391.707 436.432 391.047 434.568 392.839 432.125 393.908 429.543 394.061L429.216 394.732 431.421 396.954 431.868 396.833 434.968 395.111 437.104 395.989 438.464 399.709 441.564 399.709 441.685 399.279 442.787 395.989 444.888 395.111 448.522 396.833 450.709 394.663 450.503 394.25 448.901 391.167 449.556 389.014Z" fill="url(#fill67)"/><path d="M428.889 389.342 428.889 389.342C427.237 389.35 425.65 388.699 424.48 387.533 424.106 387.306 423.988 386.818 424.215 386.445 424.443 386.071 424.93 385.953 425.304 386.18 425.431 386.257 425.533 386.368 425.599 386.5 426.484 387.342 427.668 387.795 428.889 387.757L428.889 387.757C430.093 387.787 431.258 387.334 432.127 386.5 433.301 385.362 434.883 384.741 436.518 384.778 438.162 384.749 439.752 385.368 440.944 386.5 441.266 386.797 441.287 387.298 440.99 387.619 440.693 387.941 440.192 387.962 439.871 387.665 439.855 387.65 439.84 387.635 439.825 387.619 438.959 386.761 437.79 386.278 436.57 386.276L436.57 386.276C435.353 386.267 434.185 386.752 433.332 387.619 432.139 388.761 430.54 389.381 428.889 389.342Z" fill="#50E6FF"/><path d="M428.889 386.19 428.889 386.19C428.076 386.189 427.296 385.867 426.719 385.294 426.422 384.973 426.443 384.472 426.764 384.175 427.068 383.895 427.535 383.895 427.838 384.175 428.115 384.456 428.495 384.611 428.889 384.606L428.889 384.606C429.269 384.572 429.63 384.421 429.922 384.175 433.584 380.562 439.47 380.562 443.132 384.175 443.428 384.497 443.408 384.998 443.086 385.294 442.783 385.574 442.316 385.574 442.012 385.294 438.957 382.262 434.028 382.262 430.973 385.294 430.404 385.827 429.667 386.144 428.889 386.19Z" fill="#50E6FF"/><path d="M428.889 392.493C426.39 392.511 423.988 391.525 422.224 389.755 421.935 389.444 421.935 388.963 422.224 388.653 422.539 388.342 423.045 388.342 423.361 388.653 424.822 390.124 426.815 390.944 428.889 390.926 430.958 390.929 432.942 390.104 434.4 388.636 434.976 388.122 435.713 387.824 436.484 387.792 437.29 387.804 438.06 388.124 438.637 388.687 438.945 388.996 438.945 389.497 438.637 389.807 438.322 390.117 437.815 390.117 437.5 389.807 437.233 389.533 436.867 389.378 436.484 389.376L436.484 389.376C436.099 389.405 435.735 389.563 435.451 389.824 433.7 391.543 431.342 392.502 428.889 392.493Z" fill="#32BEDD"/></g></g></g><text font-family="Yu Gothic,Yu Gothic_MSFontService,sans-serif" font-weight="400" font-size="13" transform="translate(468.774 388)">Azure Stream Analytics</text><g clip-path="url(#clip68)"><g clip-path="url(#clip69)"><g clip-path="url(#clip70)"><path d="M100.542 455.57 99.5325 456.582C99.3532 456.762 99.062 456.762 98.8822 456.583L91.3846 449.107C91.0257 448.749 91.0248 448.167 91.3828 447.808L92.397 446.791 92.397 446.791 100.546 454.917C100.726 455.096 100.726 455.388 100.547 455.567Z" fill="#50E6FF"/><path d="M99.3758 440.414 100.392 441.427C100.571 441.606 100.572 441.897 100.393 442.077L92.3872 450.105 92.3872 450.105 91.3701 449.091C91.0111 448.733 91.0103 448.152 91.3683 447.793L98.7279 440.412C98.9076 440.235 99.1969 440.236 99.3758 440.414Z" fill="#1490DF"/><path d="M120.604 446.798 121.617 447.814C121.975 448.173 121.975 448.754 121.616 449.112L114.118 456.589C113.938 456.768 113.647 456.768 113.468 456.588L112.46 455.577C112.28 455.397 112.281 455.106 112.46 454.927L120.608 446.802 120.608 446.802Z" fill="#50E6FF"/><path d="M121.624 449.087 120.609 450.1 120.609 450.1 112.603 442.072C112.424 441.892 112.424 441.601 112.604 441.421L113.62 440.408C113.8 440.229 114.091 440.229 114.27 440.409L121.63 447.79C121.988 448.149 121.987 448.73 121.628 449.088Z" fill="#1490DF"/><path d="M105.568 450.05 99.3872 450.05C99.2068 450.057 99.0539 449.918 99.0428 449.738 99.0428 449.693 99.0534 449.649 99.0738 449.609L106.484 434.946C106.549 434.83 106.672 434.76 106.805 434.764L114.116 434.764C114.296 434.757 114.449 434.895 114.46 435.075 114.459 435.138 114.438 435.198 114.4 435.247L105.697 446.719 114.185 446.719C114.365 446.712 114.518 446.851 114.529 447.031 114.528 447.11 114.496 447.185 114.439 447.241L100.336 461.913C100.204 461.992 99.2615 462.774 99.7231 461.587L99.7231 461.587Z" fill="url(#fill71)"/></g></g></g><text font-family="Yu Gothic,Yu Gothic_MSFontService,sans-serif" font-weight="400" font-size="13" transform="translate(143.803 452)">Azure Functions</text><g clip-path="url(#clip72)"><g clip-path="url(#clip73)"><g clip-path="url(#clip74)"><path d="M18.6517 14.5011C18.6616 14.7421 18.4789 14.9478 18.2383 14.9661L14.6389 14.9661C14.3979 14.9761 14.1922 14.7933 14.1739 14.5528L14.1739 11.8661C14.1639 11.6251 14.3467 11.4195 14.5872 11.4011L18.1867 11.4011C18.4277 11.3911 18.6333 11.5739 18.6517 11.8144L18.6517 14.5011Z" fill="#76BC2D" transform="matrix(1.03226 0 0 1 256 433)"/><path d="M25.0411 17.2222C25.0511 17.4633 24.8683 17.6689 24.6278 17.6872L21.0283 17.6872C20.7873 17.6972 20.5817 17.5144 20.5633 17.2739L20.5633 14.6044C20.5534 14.3634 20.7361 14.1578 20.9767 14.1394L24.5761 14.1394C24.8171 14.1295 25.0228 14.3122 25.0411 14.5528L25.0411 17.2222Z" fill="#76BC2D" transform="matrix(1.03226 0 0 1 256 433)"/><path d="M18.6517 19.9778C18.6616 20.2188 18.4789 20.4244 18.2383 20.4428L14.6389 20.4428C14.3979 20.4528 14.1922 20.27 14.1739 20.0294L14.1739 17.3428C14.1639 17.1017 14.3467 16.8961 14.5872 16.8778L18.1867 16.8778C18.4277 16.8678 18.6333 17.0506 18.6517 17.2911L18.6517 19.9778Z" fill="#76BC2D" transform="matrix(1.03226 0 0 1 256 433)"/><path d="M12.2622 11.78C12.2722 12.0115 12.0971 12.2095 11.8661 12.2278L8.16333 12.2278C7.92835 12.2384 7.72524 12.0653 7.69833 11.8317L7.69833 9.04167C7.70644 8.81386 7.88438 8.6285 8.11167 8.61111L11.7111 8.61111C12.09 8.61111 12.2622 8.80056 12.2622 9.07611Z" fill="#86D633" transform="matrix(1.03226 0 0 1 256 433)"/><path d="M12.2622 17.2222C12.2819 17.4592 12.1058 17.6673 11.8689 17.687 11.8679 17.6871 11.867 17.6872 11.8661 17.6872L8.16333 17.6872C7.91622 17.6969 7.70803 17.5045 7.69833 17.2574 7.69787 17.2456 7.69787 17.2339 7.69833 17.2222L7.69833 14.5011C7.69764 14.2667 7.87791 14.0714 8.11167 14.0533L11.7111 14.0533C12.09 14.0533 12.2622 14.2428 12.2622 14.5011Z" fill="#76BC2D" transform="matrix(1.03226 0 0 1 256 433)"/><path d="M12.2622 22.7161C12.2819 22.9531 12.1058 23.1612 11.8689 23.1809 11.8679 23.181 11.867 23.181 11.8661 23.1811L8.16333 23.1811C7.9223 23.1911 7.71668 23.0083 7.69833 22.7678L7.69833 19.9778C7.68864 19.7402 7.87339 19.5397 8.11098 19.53 8.11121 19.53 8.11144 19.53 8.11167 19.53L11.7111 19.53C12.09 19.53 12.2622 19.7022 12.2622 19.9778Z" fill="#76BC2D" transform="matrix(1.03226 0 0 1 256 433)"/><path d="M1.84278 2.60056 4.06444 2.60056 4.06444 2.60056 4.06444 8.80056C4.06444 9.07639 3.84084 9.3 3.565 9.3L1.36056 9.3C1.08472 9.3 0.861111 9.07639 0.861111 8.80056L0.861111 3.63389C0.832576 3.09248 1.24834 2.63045 1.78975 2.60192 1.80741 2.60098 1.82509 2.60053 1.84278 2.60056Z" fill="#999999" transform="matrix(1.03226 0 0 1 256 433)"/><path d="M1.84278 2.60056 4.06444 2.60056 4.06444 2.60056 4.06444 8.80056C4.06444 9.07639 3.84084 9.3 3.565 9.3L1.36056 9.3C1.08472 9.3 0.861111 9.07639 0.861111 8.80056L0.861111 3.63389C0.832576 3.09248 1.24834 2.63045 1.78975 2.60192 1.80741 2.60098 1.82509 2.60053 1.84278 2.60056Z" fill="#999999" fill-opacity="0.5" transform="matrix(1.03226 0 0 1 256 433)"/><path d="M26.9356 2.60056 29.1572 2.60056C29.6994 2.60056 30.1389 3.04006 30.1389 3.58222L30.1389 8.74889C30.1389 9.02472 29.9153 9.24833 29.6394 9.24833L27.4178 9.24833C27.1419 9.24833 26.9183 9.02472 26.9183 8.74889L26.9183 2.60056 26.9356 2.60056Z" fill="#999999" transform="matrix(1.03226 0 0 1 256 433)"/><path d="M26.9356 2.60056 29.1572 2.60056C29.6994 2.60056 30.1389 3.04006 30.1389 3.58222L30.1389 8.74889C30.1389 9.02472 29.9153 9.24833 29.6394 9.24833L27.4178 9.24833C27.1419 9.24833 26.9183 9.02472 26.9183 8.74889L26.9183 2.60056 26.9356 2.60056Z" fill="#999999" fill-opacity="0.5" transform="matrix(1.03226 0 0 1 256 433)"/><path d="M14.9144-10.4711 17.0672-10.4711 17.0672-10.4711 17.0672 18.8067 17.0672 18.8067 14.9144 18.8067C14.3723 18.8067 13.9328 18.3672 13.9328 17.825L13.9328-9.50667C13.9422-10.0421 14.3789-10.4712 14.9144-10.4711Z" fill="#949494" transform="matrix(6.32076e-17 1 -1.03226 6.12323e-17 276.302 421.668)"/><path d="M1.36056 21.9756 3.58222 21.9756C3.85806 21.9756 4.08167 22.1992 4.08167 22.475L4.08167 28.675 4.08167 28.675 1.84278 28.675C1.30062 28.675 0.861111 28.2355 0.861111 27.6933L0.861111 22.3889C0.903404 22.1471 1.11512 21.9719 1.36056 21.9756Z" fill="#999999" transform="matrix(1.03226 0 0 1 256 433)"/><path d="M1.36056 21.9756 3.58222 21.9756C3.85806 21.9756 4.08167 22.1992 4.08167 22.475L4.08167 28.675 4.08167 28.675 1.84278 28.675C1.30062 28.675 0.861111 28.2355 0.861111 27.6933L0.861111 22.3889C0.903404 22.1471 1.11512 21.9719 1.36056 21.9756Z" fill="#999999" fill-opacity="0.5" transform="matrix(1.03226 0 0 1 256 433)"/><path d="M27.4178 21.9756 29.6394 21.9756C29.9153 21.9756 30.1389 22.1992 30.1389 22.475L30.1389 27.6417C30.1389 28.1838 29.6994 28.6233 29.1572 28.6233L26.9356 28.6233 26.9356 28.6233 26.9356 22.3889C26.9767 22.1535 27.1789 21.9802 27.4178 21.9756Z" fill="#999999" transform="matrix(1.03226 0 0 1 256 433)"/><path d="M27.4178 21.9756 29.6394 21.9756C29.9153 21.9756 30.1389 22.1992 30.1389 22.475L30.1389 27.6417C30.1389 28.1838 29.6994 28.6233 29.1572 28.6233L26.9356 28.6233 26.9356 28.6233 26.9356 22.3889C26.9767 22.1535 27.1789 21.9802 27.4178 21.9756Z" fill="#999999" fill-opacity="0.5" transform="matrix(1.03226 0 0 1 256 433)"/><path d="M14.9144 12.4689 17.0672 12.4689 17.0672 12.4689 17.0672 41.7467 17.0672 41.7467 14.9144 41.7467C14.3723 41.7467 13.9328 41.3072 13.9328 40.765L13.9328 13.4506C13.9328 12.9084 14.3723 12.4689 14.9144 12.4689Z" fill="#949494" transform="matrix(6.32076e-17 -1 1.03226 6.12323e-17 244.018 475.608)"/></g></g></g><text font-family="Yu Gothic,Yu Gothic_MSFontService,sans-serif" font-weight="400" font-size="13" transform="translate(303.419 452)">Azure Event<tspan font-size="13" x="77.1667" y="0">Hubs</tspan></text><g clip-path="url(#clip75)"><g clip-path="url(#clip76)"><g clip-path="url(#clip77)"><path d="M446.848 438.769 437.901 433.603C436.504 432.797 434.783 432.797 433.386 433.603L424.439 438.769C423.042 439.577 422.182 441.067 422.181 442.681L422.181 453.014C422.181 454.628 423.042 456.119 424.439 456.927L433.394 462.094C434.792 462.899 436.513 462.899 437.91 462.094L446.865 456.927C448.263 456.119 449.123 454.628 449.123 453.014L449.123 442.681C449.119 441.064 448.251 439.573 446.848 438.769Z" fill="url(#fill78)"/><path d="M451.006 446.335 444.714 442.703C443.591 442.056 442.209 442.056 441.086 442.703L434.796 446.335C433.672 446.982 432.98 448.18 432.983 449.477L432.983 456.741C432.983 458.037 433.674 459.234 434.796 459.882L441.086 463.514C442.209 464.162 443.591 464.162 444.714 463.514L451.006 459.882C452.131 459.236 452.825 458.038 452.828 456.741L452.828 449.477C452.826 448.179 452.131 446.981 451.006 446.335Z" fill="url(#fill79)"/><path d="M435.051 438.103 436.863 437.101 444.63 453.198 444 453.887 426.883 453.887 427.075 451.826 441.509 451.826 435.051 438.103Z" fill="url(#fill80)"/><path d="M429.288 452.952C429.288 454.379 428.132 455.535 426.705 455.535 425.278 455.535 424.122 454.379 424.122 452.952 424.122 451.525 425.278 450.369 426.705 450.369 428.132 450.369 429.288 451.525 429.288 452.952Z" fill="#FFFFFF"/><path d="M446.938 453.109C446.938 455.338 445.13 457.146 442.901 457.146 440.671 457.146 438.864 455.338 438.864 453.109 438.864 450.879 440.671 449.072 442.901 449.072 445.13 449.072 446.938 450.879 446.938 453.109Z" fill="#FFFFFF"/><path d="M438.432 437.405C438.432 438.832 437.275 439.989 435.848 439.989 434.422 439.989 433.265 438.832 433.265 437.405 433.265 435.979 434.422 434.822 435.848 434.822 437.275 434.822 438.432 435.979 438.432 437.405Z" fill="#FFFFFF"/></g></g></g><text font-family="Yu Gothic,Yu Gothic_MSFontService,sans-serif" font-weight="400" font-size="13" transform="translate(468.774 452)">Azure Digital Twins</text><g clip-path="url(#clip81)"><g clip-path="url(#clip82)"><g clip-path="url(#clip83)"><path d="M11.1428 9.12778C5.45944 9.12778 0.809444 7.40556 0.809444 5.40778L0.809444 25.1961C0.809444 27.2283 5.33889 28.8989 10.9361 28.9161L11.0911 28.9161C16.7572 28.9161 21.4244 27.1939 21.4244 25.1961L21.4244 5.40778C21.4072 7.45722 16.8089 9.12778 11.1428 9.12778Z" fill="url(#fill84)" transform="matrix(1 0 0 1.03226 90 490)"/><path d="M21.4072 5.40778C21.4072 7.45722 16.8089 9.12778 11.0739 9.12778 5.33889 9.12778 0.740556 7.40556 0.740556 5.40778 0.740556 3.41 5.45944 1.72222 11.1428 1.72222 16.8261 1.72222 21.4761 3.44444 21.4761 5.45944" fill="#EAEAEA" transform="matrix(1 0 0 1.03226 90 490)"/><path d="M18.9444 5.16667C18.9444 6.47556 15.5 7.52611 11.0739 7.52611 6.64778 7.52611 3.255 6.40667 3.255 5.16667 3.255 3.92667 6.78556 2.73833 11.1428 2.73833 15.5 2.73833 18.9444 3.78889 18.9444 5.16667" fill="#50E6FF" transform="matrix(1 0 0 1.03226 90 490)"/><path d="M11.1428 5.64889C9.02346 5.59551 6.91021 5.89823 4.89111 6.54444 6.90839 7.20004 9.02227 7.50867 11.1428 7.45722 13.2576 7.50772 15.3656 7.19908 17.3772 6.54444 15.3636 5.90014 13.2563 5.59744 11.1428 5.64889Z" fill="#198AB3" transform="matrix(1 0 0 1.03226 90 490)"/><path d="M28.8472 21.9411C28.1353 21.274 27.2429 20.8308 26.2811 20.6667 26.1505 17.6115 23.5853 15.2306 20.5289 15.3278 18.0858 15.2808 15.878 16.7779 15.0178 19.065 12.4214 19.3535 10.4283 21.5005 10.3333 24.1111 10.4455 27.0658 12.9237 29.3747 15.8789 29.2778L16.3783 29.2778 25.3856 29.2778 25.6094 29.2778C28.0129 29.2611 29.978 27.3567 30.07 24.955 30.0568 23.8237 29.5917 22.7447 28.7783 21.9583" fill="url(#fill85)" transform="matrix(1 0 0 1.03226 90 490)"/><path d="M24.6278 27.2111 23.0089 27.2111 23.0089 22.8539C23.0089 22.3946 23.0089 21.878 23.0089 21.3039L23.0089 21.3039C23.0089 21.7344 22.8367 22.0617 22.785 22.2683L21.0628 27.2111 19.7194 27.2111 17.9972 22.3028C17.9012 21.975 17.8264 21.6413 17.7733 21.3039L17.7733 21.3039C17.7733 22.01 17.7733 22.6472 17.7733 23.1811L17.7733 27.2111 16.3267 27.2111 16.3267 19.9261 18.7378 19.9261 20.2189 24.2489C20.3373 24.5845 20.4237 24.9304 20.4772 25.2822L20.4772 25.2822C20.5633 24.8861 20.6667 24.5244 20.7528 24.2317L22.2511 19.9261 24.6278 19.9261Z" fill="#FFFFFF" transform="matrix(1 0 0 1.03226 90 490)"/></g></g></g><text font-family="Yu Gothic,Yu Gothic_MSFontService,sans-serif" font-weight="400" font-size="13" transform="translate(143.629 507)">Database<tspan font-size="13" x="0" y="16">SQLDB</tspan><tspan font-size="13" x="49" y="16">or</tspan><tspan font-size="13" x="65.1667" y="16">Cosmos</tspan><tspan font-size="13" x="118.333" y="16">D</tspan>B</text><g clip-path="url(#clip86)"><g clip-path="url(#clip87)"><g clip-path="url(#clip88)"><path d="M2.53167 2.53167 28.4683 28.4683C28.8235 28.8779 29.4435 28.922 29.8531 28.5668 30.0802 28.3698 30.2046 28.0797 30.1906 27.7794L30.1906 1.84278C30.1913 1.30062 29.7524 0.860503 29.2103 0.859751 29.1926 0.859727 29.1749 0.86018 29.1572 0.861111L3.22056 0.861111C2.67843 0.866863 2.24361 1.31101 2.24936 1.85314 2.25206 2.10734 2.35326 2.35057 2.53167 2.53167Z" fill="url(#fill89)" transform="matrix(1.03226 0 0 1 297 490)"/><path d="M9.52389 9.52389 21.4761 21.4761 30.0872 12.865 30.0872 1.84278C30.0879 1.32017 29.6791 0.888616 29.1572 0.861111L18.1867 0.861111Z" fill="#50E6FF" transform="matrix(1.03226 0 0 1 297 490)"/><path d="M15.2542 22.479C15.5151 22.479 15.7266 22.6905 15.7266 22.9513L15.7266 24.9806C15.7266 25.2414 15.5151 25.4529 15.2542 25.4529L-0.192427 25.4529C-0.453283 25.4529-0.664748 25.2414-0.664748 24.9806L-0.664748 22.9513C-0.664748 22.6905-0.453283 22.479-0.192427 22.479Z" fill="url(#fill90)" transform="matrix(0.718602 -0.696146 0.718602 0.696146 282.013 502.159)"/><path d="M10.2161 16.1464C10.477 16.1464 10.6885 16.3579 10.6885 16.6187L10.6885 18.648C10.6885 18.9088 10.477 19.1203 10.2161 19.1203L0.682242 19.1203C0.421386 19.1203 0.209921 18.9088 0.209921 18.648L0.209921 16.6187C0.209921 16.3579 0.421386 16.1464 0.682242 16.1464Z" fill="url(#fill91)" transform="matrix(0.718602 -0.696146 0.718602 0.696146 285.942 498.869)"/><path d="M18.5605 24.5607C18.8213 24.5607 19.0328 24.7722 19.0328 25.033L19.0328 27.0623C19.0328 27.3231 18.8213 27.5346 18.5605 27.5346L9.02659 27.5346C8.76573 27.5346 8.55427 27.3231 8.55427 27.0623L8.55427 25.033C8.55427 24.7722 8.76573 24.5607 9.02659 24.5607Z" fill="url(#fill92)" transform="matrix(0.718602 -0.696146 0.718602 0.696146 282.387 507.102)"/><path d="M18.3856 8.30936C18.7527 8.30936 19.0503 8.60698 19.0503 8.97411L19.0503 10.6185C19.0503 10.9856 18.7527 11.2832 18.3856 11.2832L16.7412 11.2832C16.374 11.2832 16.0764 10.9856 16.0764 10.6185L16.0764 8.97411C16.0764 8.60698 16.374 8.30936 16.7412 8.30936Z" fill="#FFFFFF" transform="matrix(0.718602 -0.696146 0.718602 0.696146 295.187 505.052)"/><path d="M22.584 4.11095C22.9511 4.11095 23.2487 4.40856 23.2487 4.77569L23.2487 6.42007C23.2487 6.7872 22.9511 7.08482 22.584 7.08482L20.9396 7.08482C20.5725 7.08482 20.2748 6.7872 20.2748 6.42007L20.2748 4.77569C20.2748 4.40856 20.5725 4.11095 20.9396 4.11095Z" fill="#FFFFFF" transform="matrix(0.718602 -0.696146 0.718602 0.696146 299.453 506.757)"/><path d="M22.584 12.5078C22.9511 12.5078 23.2487 12.8054 23.2487 13.1725L23.2487 14.8169C23.2487 15.184 22.9511 15.4816 22.584 15.4816L20.9396 15.4816C20.5725 15.4816 20.2748 15.184 20.2748 14.8169L20.2748 13.1725C20.2748 12.8054 20.5725 12.5078 20.9396 12.5078Z" fill="#FFFFFF" transform="matrix(0.718602 -0.696146 0.718602 0.696146 293.427 509.186)"/><path d="M23.9561 9.17944 25.0928 8.04278C25.3471 7.78597 25.7615 7.78396 26.0183 8.03829 26.0198 8.03978 26.0213 8.04128 26.0228 8.04278L27.1594 9.17944C27.4163 9.43378 27.4183 9.84815 27.1639 10.105 27.1624 10.1065 27.1609 10.108 27.1594 10.1094L26.0228 11.2461C25.7684 11.5029 25.3541 11.5049 25.0973 11.2506 25.0958 11.2491 25.0943 11.2476 25.0928 11.2461L23.9561 10.1094C23.6993 9.85511 23.6973 9.44074 23.9516 9.18393 23.9531 9.18243 23.9546 9.18093 23.9561 9.17944" fill="#FFFFFF" transform="matrix(1.03226 0 0 1 297 490)"/></g></g></g><text font-family="Yu Gothic,Yu Gothic_MSFontService,sans-serif" font-weight="400" font-size="13" transform="translate(344.997 511)">Azure Data Explorer</text><g clip-path="url(#clip93)"><g clip-path="url(#clip94)"><g clip-path="url(#clip95)"><path d="M503.109 513.716C497.631 517.965 489.745 516.968 485.496 511.489 481.247 506.011 482.244 498.125 487.723 493.876L487.856 493.78C493.436 489.666 501.295 490.855 505.409 496.435 509.419 501.876 508.403 509.514 503.109 513.716" fill="url(#fill96)"/><path d="M492.003 501.184C495.555 497.807 500.263 495.915 505.164 495.895 504.524 495.093 503.787 494.375 502.97 493.756 500.583 493.908 498.239 494.461 496.036 495.392 493.767 496.357 491.717 497.771 490.008 499.549 490.834 499.862 491.534 500.436 492.003 501.184Z" fill="#FFFFFF" fill-opacity="0.6"/><path d="M485.789 506.226C485.284 507.486 484.871 508.781 484.554 510.101 484.832 510.574 485.139 511.029 485.474 511.463 485.729 511.797 486.002 512.116 486.292 512.419 486.649 510.661 487.184 508.945 487.89 507.296 487.098 507.157 486.366 506.785 485.789 506.226Z" fill="#FFFFFF" fill-opacity="0.6"/><path d="M487.234 499.528C486.711 498.127 486.369 496.666 486.216 495.178 485.596 495.835 485.048 496.557 484.583 497.331 484.758 498.516 485.041 499.683 485.429 500.817 485.898 500.226 486.523 499.78 487.234 499.528Z" fill="#F2F2F2" fill-opacity="0.55"/><path d="M492.623 503.326C492.623 505.555 490.816 507.361 488.587 507.361 486.359 507.361 484.552 505.555 484.552 503.326 484.552 501.097 486.359 499.291 488.587 499.291 490.816 499.291 492.623 501.097 492.623 503.326Z" fill="url(#fill97)"/><path d="M494.471 510.694C494.47 509.988 494.755 509.312 495.261 508.82 493.904 508.073 492.65 507.151 491.533 506.078 490.945 506.705 490.173 507.127 489.328 507.284 489.99 507.972 490.707 508.606 491.472 509.178 492.418 509.889 493.43 510.506 494.495 511.021 494.479 510.912 494.471 510.803 494.471 510.694Z" fill="#F2F2F2" fill-opacity="0.55"/><path d="M503.772 511.007C502.403 511.007 501.038 510.848 499.704 510.533 499.704 510.587 499.713 510.64 499.713 510.694 499.715 511.379 499.447 512.038 498.967 512.528 500.625 512.855 502.317 512.976 504.005 512.888 504.64 512.288 505.21 511.623 505.705 510.904 505.063 510.973 504.418 511.007 503.772 511.007Z" fill="#F2F2F2" fill-opacity="0.55"/><path d="M499.713 510.694C499.713 512.141 498.539 513.315 497.092 513.315 495.644 513.315 494.471 512.141 494.471 510.694 494.471 509.246 495.644 508.072 497.092 508.072 498.539 508.072 499.713 509.246 499.713 510.694Z" fill="url(#fill98)"/><path d="M500.316 503.689C500.453 503.118 500.77 502.606 501.22 502.229 498.784 500.46 496.571 498.402 494.629 496.101 493.505 494.769 492.524 493.323 491.7 491.787 491.151 491.956 490.615 492.162 490.094 492.405 490.971 494.083 492.027 495.66 493.244 497.11 495.319 499.588 497.695 501.798 500.316 503.689Z" fill="#F2F2F2" fill-opacity="0.7"/><path d="M505.851 504.192C505.851 505.73 504.604 506.977 503.066 506.977 501.528 506.977 500.281 505.73 500.281 504.192 500.281 502.654 501.528 501.407 503.066 501.407 504.604 501.407 505.851 502.654 505.851 504.192Z" fill="#F2F2F2"/><path d="M507.744 506.069C507.572 505.983 507.434 505.908 507.27 505.82L507.225 505.796C507.077 505.718 506.933 505.639 506.788 505.56L506.707 505.515 506.313 505.294 506.216 505.239C506.059 505.151 505.904 505.067 505.751 504.974 505.592 505.518 505.263 505.997 504.811 506.34 504.992 506.447 505.176 506.552 505.364 506.657L505.488 506.727 506.004 507.012 506.054 507.039C506.469 507.265 506.893 507.49 507.327 507.712L507.327 507.712C507.504 507.175 507.644 506.625 507.746 506.068Z" fill="#F2F2F2" fill-opacity="0.55"/><path d="M492.623 503.326C492.623 505.555 490.816 507.361 488.587 507.361 486.359 507.361 484.552 505.555 484.552 503.326 484.552 501.097 486.359 499.291 488.587 499.291 490.816 499.291 492.623 501.097 492.623 503.326Z" fill="url(#fill99)"/><path d="M499.713 510.694C499.713 512.141 498.539 513.315 497.092 513.315 495.644 513.315 494.471 512.141 494.471 510.694 494.471 509.246 495.644 508.072 497.092 508.072 498.539 508.072 499.713 509.246 499.713 510.694Z" fill="#F2F2F2"/><path d="M512.139 509.206 511.593 507.556 511.333 507.556 509.376 507.556 508.541 506.581 508.806 504.375 507.265 503.6 507.072 503.793 505.694 505.17 504.413 505.081 503.035 503.324 501.385 503.87 501.375 504.13 501.375 506.087 500.4 506.922 498.23 506.652 497.457 508.191 497.65 508.384 499.028 509.762 498.94 511.042 497.154 512.437 497.7 514.085 497.96 514.095 499.916 514.095 500.752 515.07 500.486 517.276 502.028 518.049 502.221 517.856 503.598 516.479 504.88 516.568 506.258 518.325 507.907 517.779 507.918 517.519 507.918 515.564 508.892 514.727 511.099 514.992 511.874 513.453 511.681 513.258 510.303 511.88 510.393 510.599ZM505.699 513.992C503.947 514.572 502.056 513.622 501.475 511.87 500.894 510.117 501.844 508.226 503.597 507.645 505.349 507.065 507.241 508.015 507.821 509.767 507.822 509.769 507.822 509.771 507.823 509.772 508.401 511.524 507.451 513.412 505.699 513.992Z" fill="url(#fill100)"/><path d="M495.111 516.408 495.111 515.041 494.917 514.97 493.453 514.489 493.072 513.561 493.816 511.978 492.85 511.01 492.657 511.107 491.29 511.796 490.354 511.412 489.762 509.772 488.395 509.772 488.322 509.963 487.844 511.427 486.907 511.811 485.348 511.067 484.389 512.027 484.483 512.219 485.172 513.587 484.79 514.522 483.118 515.111 483.118 516.489 483.309 516.561 484.773 517.042 485.157 517.977 484.413 519.56 485.372 520.519 485.563 520.422 486.931 519.734 487.866 520.116 488.467 521.773 489.834 521.773 489.905 521.58 490.385 520.116 491.321 519.734 492.905 520.476 493.864 519.517 493.768 519.325 493.079 517.958 493.463 517.023ZM489.115 518.394C487.66 518.395 486.48 517.216 486.479 515.762 486.479 514.308 487.657 513.128 489.111 513.127 490.565 513.126 491.745 514.304 491.746 515.759 491.746 515.759 491.746 515.76 491.746 515.76 491.747 517.214 490.57 518.393 489.116 518.394 489.116 518.394 489.115 518.394 489.115 518.394Z" fill="#50E6FF"/><path d="M507.992 510.818C507.992 512.664 506.495 514.16 504.649 514.16 502.803 514.16 501.306 512.664 501.306 510.818 501.306 508.971 502.803 507.475 504.649 507.475 506.495 507.475 507.992 508.971 507.992 510.818Z" fill="#FFFFFF"/><path d="M491.746 515.76C491.746 517.214 490.568 518.392 489.115 518.392 487.661 518.392 486.483 517.214 486.483 515.76 486.483 514.307 487.661 513.129 489.115 513.129 490.568 513.129 491.746 514.307 491.746 515.76Z" fill="#FFFFFF"/></g></g></g><text font-family="Yu Gothic,Yu Gothic_MSFontService,sans-serif" font-weight="400" font-size="13" transform="translate(526.352 511)">Web</text><path d="M63.5001 280.5 615.01 280.5" stroke="#BFBFBF" stroke-width="0.666667" stroke-miterlimit="8" fill="none" fill-rule="evenodd"/><text font-family="Yu Gothic,Yu Gothic_MSFontService,sans-serif" font-weight="400" font-size="13" transform="translate(277.92 335)"><tspan font-size="13" x="53.3333" y="0"></tspan></text><g clip-path="url(#clip101)"><g clip-path="url(#clip102)"><g clip-path="url(#clip103)"><path d="M560.494 164.867C559.568 164.94 558.643 164.71 557.859 164.212 557.268 163.584 556.985 162.727 557.084 161.87L557.084 155.791C557.084 154.792 556.688 154.258 555.861 154.258L555.861 152.742C556.688 152.742 557.084 152.208 557.084 151.158L557.084 145.182C556.99 144.31 557.272 143.439 557.859 142.788 558.632 142.265 559.566 142.033 560.494 142.133L560.494 143.666C559.616 143.666 559.133 144.131 559.133 145.13L559.133 150.986C559.133 152.329 558.737 153.156 557.859 153.5 558.773 153.984 559.283 154.991 559.133 156.014L559.133 161.818C559.117 162.229 559.219 162.635 559.426 162.989 559.694 163.243 560.058 163.369 560.425 163.334L560.425 164.867Z" fill="#949494"/><path d="M580.506 142.133C581.432 142.06 582.357 142.29 583.141 142.788 583.732 143.416 584.015 144.273 583.916 145.13L583.916 151.209C583.916 152.208 584.312 152.742 585.139 152.742L585.139 154.258C584.312 154.258 583.916 154.792 583.916 155.842L583.916 161.749C584.013 162.627 583.731 163.504 583.141 164.161 582.375 164.703 581.441 164.954 580.506 164.867L580.506 163.334C581.384 163.334 581.867 162.869 581.867 161.87L581.867 156.014C581.867 154.671 582.263 153.844 583.141 153.5 582.227 153.016 581.717 152.009 581.867 150.986L581.867 145.182C581.883 144.771 581.781 144.365 581.574 144.011 581.306 143.757 580.942 143.631 580.575 143.666Z" fill="#949494"/><path d="M571.206 152.381 571.206 150.193 569.656 150.193 569.656 152.381C569.656 152.552 569.517 152.691 569.346 152.691L563.611 152.691C563.269 152.691 562.991 152.968 562.991 153.311L562.991 156.152 564.541 156.152 564.541 154.585C564.541 154.42 564.669 154.284 564.834 154.275L576.097 154.275C576.268 154.275 576.407 154.414 576.407 154.585L576.407 156.187 577.94 156.187 577.94 153.311C577.94 152.975 577.673 152.7 577.337 152.691L571.516 152.691C571.345 152.691 571.206 152.552 571.206 152.381Z" fill="#005BA1"/><path d="M573.273 143.528 567.486 143.528C567.131 143.528 566.841 143.811 566.832 144.166L566.832 149.952C566.832 150.304 567.117 150.59 567.469 150.59 567.474 150.59 567.48 150.59 567.486 150.589L573.273 150.589C573.624 150.608 573.924 150.339 573.944 149.988 573.944 149.976 573.944 149.964 573.944 149.952L573.944 144.166C573.935 143.804 573.635 143.519 573.273 143.528 573.273 143.528 573.273 143.528 573.273 143.528ZM572.722 148.988C572.712 149.219 572.522 149.401 572.291 149.401L568.451 149.401C568.219 149.401 568.029 149.219 568.02 148.988L568.02 145.147C568.02 144.909 568.213 144.717 568.451 144.717L572.222 144.717C572.46 144.717 572.653 144.909 572.653 145.147Z" fill="#0078D4"/><path d="M565.764 156.169C566.021 156.169 566.229 156.378 566.229 156.634L566.229 160.768C566.229 161.025 566.021 161.233 565.764 161.233L561.631 161.233C561.374 161.233 561.166 161.025 561.166 160.768L561.166 156.634C561.166 156.378 561.374 156.169 561.631 156.169Z" fill="url(#fill104)"/><path d="M579.197 156.204C579.454 156.204 579.662 156.412 579.662 156.669L579.662 160.802C579.662 161.059 579.454 161.267 579.197 161.267L575.064 161.267C574.807 161.267 574.599 161.059 574.599 160.802L574.599 156.669C574.599 156.412 574.807 156.204 575.064 156.204Z" fill="url(#fill105)"/></g></g></g><path d="M513.501 153.167 554.354 153.336 554.351 154.002 513.499 153.833ZM546.541 148.682 555.014 153.672 546.5 158.591C546.341 158.683 546.137 158.629 546.045 158.469 545.953 158.31 546.007 158.106 546.167 158.014L554.186 153.38 554.183 153.956 546.203 149.257C546.044 149.163 545.991 148.959 546.085 148.8 546.178 148.642 546.382 148.589 546.541 148.682Z" fill="#4472C4"/><path d="M570.951 138.5 570.951 120.378 571.284 120.711 444.5 120.711 444.833 120.378 444.833 138.108 444.167 138.108 444.167 120.044 571.618 120.044 571.618 138.5ZM449.455 130.276 444.5 138.769 439.545 130.276C439.453 130.116 439.506 129.912 439.665 129.82 439.824 129.727 440.029 129.781 440.121 129.94L444.788 137.94 444.212 137.94 448.879 129.94C448.972 129.781 449.176 129.727 449.335 129.82 449.494 129.912 449.547 130.116 449.455 130.276Z" fill="#4472C4"/></g></svg>