<svg width="608" height="346" xmlns="http://www.w3.org/2000/svg" xmlns:xlink="http://www.w3.org/1999/xlink" overflow="hidden"><defs><clipPath id="clip0"><rect x="172" y="40" width="608" height="346"/></clipPath><clipPath id="clip1"><rect x="694" y="191" width="42" height="42"/></clipPath><clipPath id="clip2"><rect x="694" y="191" width="42" height="42"/></clipPath><clipPath id="clip3"><rect x="694" y="191" width="42" height="42"/></clipPath><linearGradient x1="715.303" y1="234.89" x2="714.65" y2="172.1" gradientUnits="userSpaceOnUse" spreadMethod="pad" id="fill4"><stop offset="0" stop-color="#198AB3"/><stop offset="0" stop-color="#198AB3"/><stop offset="0.09" stop-color="#22A5CB"/><stop offset="0.19" stop-color="#29BADE"/><stop offset="0.29" stop-color="#2EC9EB"/><stop offset="0.42" stop-color="#31D1F3"/><stop offset="0.62" stop-color="#32D4F5"/><stop offset="1" stop-color="#32D4F5"/></linearGradient><clipPath id="clip5"><rect x="546" y="135" width="34" height="34"/></clipPath><clipPath id="clip6"><rect x="546" y="135" width="34" height="34"/></clipPath><clipPath id="clip7"><rect x="546" y="135" width="34" height="34"/></clipPath><linearGradient x1="563" y1="159.272" x2="563" y2="135.17" gradientUnits="userSpaceOnUse" spreadMethod="pad" id="fill8"><stop offset="0" stop-color="#198AB3"/><stop offset="0.44" stop-color="#28B7DB"/><stop offset="0.78" stop-color="#32D4F5"/><stop offset="1" stop-color="#32D4F5"/></linearGradient><linearGradient x1="562.943" y1="168.83" x2="562.943" y2="161.69" gradientUnits="userSpaceOnUse" spreadMethod="pad" id="fill9"><stop offset="0" stop-color="#198AB3"/><stop offset="0.44" stop-color="#28B7DB"/><stop offset="0.78" stop-color="#32D4F5"/><stop offset="1" stop-color="#32D4F5"/></linearGradient></defs><g clip-path="url(#clip0)" transform="translate(-172 -40)"><rect x="174.5" y="41.5001" width="604" height="344" stroke="#D9D9D9" stroke-width="1.33333" stroke-miterlimit="8" fill="none"/><g clip-path="url(#clip1)"><g clip-path="url(#clip2)"><g clip-path="url(#clip3)"><path d="M725.197 210.693C725.197 213.232 723.139 215.29 720.6 215.29 718.061 215.29 716.003 213.232 716.003 210.693 716.003 208.155 718.061 206.097 720.6 206.097 723.139 206.097 725.197 208.155 725.197 210.693Z" fill="#FFFFFF"/><path d="M731.917 224.367C731.917 226.364 730.297 227.983 728.3 227.983 726.303 227.983 724.683 226.364 724.683 224.367 724.683 222.369 726.303 220.75 728.3 220.75 730.297 220.75 731.917 222.369 731.917 224.367Z" fill="#FFFFFF"/><path d="M717.1 221.893C717.1 223.607 715.711 224.997 713.997 224.997 712.283 224.997 710.893 223.607 710.893 221.893 710.893 220.179 712.283 218.79 713.997 218.79 715.711 218.79 717.1 220.179 717.1 221.893Z" fill="#FFFFFF"/><path d="M715.607 198.257C715.607 200.383 713.883 202.107 711.757 202.107 709.63 202.107 707.907 200.383 707.907 198.257 707.907 196.13 709.63 194.407 711.757 194.407 713.883 194.407 715.607 196.13 715.607 198.257Z" fill="#FFFFFF"/><path d="M704.547 212.443C704.547 214.157 703.157 215.547 701.443 215.547 699.729 215.547 698.34 214.157 698.34 212.443 698.34 210.729 699.729 209.34 701.443 209.34 703.157 209.34 704.547 210.729 704.547 212.443Z" fill="#FFFFFF"/><path d="M729.14 223.643 721.37 210.04 720.6 210.483 721.23 210.017 712.433 197.51 710.823 198.677 718.617 209.76 701.35 211.183 701.513 213.19 718.617 211.767 712.947 221.193 714.65 222.22 720.483 212.513 727.413 224.623 729.14 223.643Z" fill="#949494"/><path d="M734.903 193.87 734.903 193.87C734.903 192.929 734.141 192.167 733.2 192.167L724.333 192.167C723.869 192.167 723.493 192.543 723.493 193.007L723.493 196.297C723.493 196.761 723.869 197.137 724.333 197.137L729.817 197.137 729.817 202.503C729.829 202.975 730.208 203.354 730.68 203.367L733.947 203.367C734.418 203.354 734.798 202.975 734.81 202.503L734.81 193.87Z" fill="#949494"/><path d="M705.667 226.863 700.09 226.863 700.09 221.497C700.078 221.025 699.698 220.646 699.227 220.633L695.96 220.633C695.488 220.646 695.109 221.025 695.097 221.497L695.097 230.13 695.097 230.13C695.109 231.062 695.868 231.81 696.8 231.81L705.667 231.81C706.131 231.81 706.507 231.434 706.507 230.97L706.507 227.703C706.507 227.239 706.131 226.863 705.667 226.863Z" fill="#949494"/><path d="M720.6 206.143C723.177 206.144 725.266 208.234 725.265 210.811 725.264 213.389 723.174 215.477 720.597 215.477 718.02 215.476 715.931 213.386 715.932 210.809 715.932 210.77 715.932 210.732 715.933 210.693 715.997 208.162 718.068 206.143 720.6 206.143ZM708 198.257C707.988 200.396 709.712 202.14 711.851 202.152 713.99 202.164 715.734 200.44 715.747 198.301 715.759 196.162 714.035 194.418 711.896 194.406 711.857 194.405 711.818 194.406 711.78 194.407 709.681 194.445 708 196.157 708 198.257ZM698.34 212.42C698.34 214.134 699.729 215.523 701.443 215.523 703.157 215.523 704.547 214.134 704.547 212.42 704.547 210.706 703.157 209.317 701.443 209.317 699.729 209.317 698.34 210.706 698.34 212.42ZM710.893 221.87C710.88 223.597 712.27 225.007 713.997 225.02 715.723 225.033 717.134 223.643 717.146 221.917 717.159 220.19 715.77 218.78 714.043 218.767 714.036 218.767 714.028 218.767 714.02 218.767 712.306 218.754 710.906 220.133 710.893 221.847 710.893 221.854 710.893 221.862 710.893 221.87ZM724.707 224.367C724.694 226.364 726.303 227.994 728.3 228.007 730.297 228.019 731.927 226.411 731.94 224.413 731.953 222.416 730.344 220.786 728.347 220.773 728.339 220.773 728.331 220.773 728.323 220.773 726.352 220.748 724.733 222.325 724.707 224.296 724.707 224.32 724.707 224.343 724.707 224.367Z" fill="url(#fill4)"/></g></g></g><g clip-path="url(#clip5)"><g clip-path="url(#clip6)"><g clip-path="url(#clip7)"><path d="M580 151.717C579.842 148.007 577.049 144.944 573.37 144.444 573.175 139.153 568.746 135.011 563.453 135.17 559.256 135.092 555.469 137.676 554.009 141.611 549.54 142.151 546.136 145.876 546 150.376 546.195 155.474 550.478 159.453 555.577 159.272L556.408 159.272 571.916 159.272C572.053 159.292 572.193 159.292 572.331 159.272 576.51 159.243 579.908 155.895 580 151.717Z" fill="url(#fill8)"/><path d="M562.207 150.98 563.68 150.98 563.68 162.672 562.207 162.672Z" fill="#B3B3B3"/><path d="M566.872 147.448C566.872 149.618 565.113 151.377 562.943 151.377 560.773 151.377 559.014 149.618 559.014 147.448 559.014 145.278 560.773 143.519 562.943 143.519 565.113 143.519 566.872 145.278 566.872 147.448Z" fill="#F2F2F2"/><path d="M565.134 161.69C565.896 161.69 566.513 162.307 566.513 163.069L566.513 167.451C566.513 168.213 565.896 168.83 565.134 168.83L560.752 168.83C559.991 168.83 559.373 168.213 559.373 167.451L559.373 163.069C559.373 162.307 559.991 161.69 560.752 161.69Z" fill="url(#fill9)"/></g></g></g><rect x="213.5" y="95.5001" width="385" height="241" stroke="#4472C4" stroke-width="1.33333" stroke-miterlimit="8" fill="none"/><rect x="255.5" y="229.5" width="291" height="91" stroke="#4472C4" stroke-width="1.33333" stroke-miterlimit="8" fill="#FFFFFF"/><text font-family="Yu Gothic,Yu Gothic_MSFontService,sans-serif" font-weight="400" font-size="13" transform="translate(370.273 311)">Edge Hub</text><rect x="255" y="116" width="131" height="73" stroke="#4472C4" stroke-width="2" stroke-miterlimit="8" fill="#FFFFFF"/><text font-family="Yu Gothic,Yu Gothic_MSFontService,sans-serif" font-weight="400" font-size="13" transform="translate(289.208 140)">Simulated</text><text font-family="Yu Gothic,Yu Gothic_MSFontService,sans-serif" font-weight="400" font-size="13" transform="translate(280.374 156)">Temperature</text><text font-family="Yu Gothic,Yu Gothic_MSFontService,sans-serif" font-weight="400" font-size="13" transform="translate(298.788 172)">Sensor</text><rect x="397" y="116" width="131" height="73" stroke="#4472C4" stroke-width="2" stroke-miterlimit="8" fill="#FFFFFF"/><text font-family="Yu Gothic,Yu Gothic_MSFontService,sans-serif" font-weight="400" font-size="13" transform="translate(414.431 156)">Sample Module</text><path d="M332 216 332 226 320.5 236 309 226 309 216Z" stroke="#2F528F" stroke-width="2" stroke-miterlimit="8" fill="#FFC000" fill-rule="evenodd"/><path d="M0 0 0.000104987 26.9457" stroke="#4472C4" stroke-width="2" stroke-miterlimit="8" fill="none" fill-rule="evenodd" transform="matrix(-1 0 0 1 320 189)"/><path d="M508 214 508 224 497 234 486 224 486 214Z" stroke="#2F528F" stroke-width="2" stroke-miterlimit="8" fill="#FFC000" fill-rule="evenodd"/><path d="M0 0 0.000104987 24.9588" stroke="#4472C4" stroke-width="2" stroke-miterlimit="8" fill="none" fill-rule="evenodd" transform="matrix(-1 0 0 1 497 189)"/><path d="M0 0 10 0 20 11.5 10 23 0 23Z" stroke="#2F528F" stroke-width="2" stroke-miterlimit="8" fill="#FFC000" fill-rule="evenodd" transform="matrix(-1.83697e-16 -1 -1 1.83697e-16 436 234)"/><path d="M0 0 0.000104987 26.7875" stroke="#4472C4" stroke-width="2" stroke-miterlimit="8" fill="none" fill-rule="evenodd" transform="matrix(-1 0 0 1 425 187)"/><text font-family="Yu Gothic,Yu Gothic_MSFontService,sans-serif" font-weight="400" font-size="13" transform="translate(228.321 203)">temperatureOutput</text><text font-family="Yu Gothic,Yu Gothic_MSFontService,sans-serif" font-weight="400" font-size="13" transform="translate(384.389 206)">input1</text><text font-family="Yu Gothic,Yu Gothic_MSFontService,sans-serif" font-weight="400" font-size="13" transform="translate(502.449 206)">output1</text><path d="M321 235.987 321 241.987 319 241.987 319 235.987ZM321 243.987 321 249.987 319 249.987 319 243.987ZM321 251.987 321 257.987 319 257.987 319 251.987ZM321 259.987 321 261.093 320 260.093 324.894 260.093 324.894 262.093 319 262.093 319 259.987ZM326.894 260.093 332.894 260.093 332.894 262.093 326.894 262.093ZM334.894 260.093 340.894 260.093 340.894 262.093 334.894 262.093ZM342.894 260.093 348.894 260.093 348.894 262.093 342.894 262.093ZM350.894 260.093 356.894 260.093 356.894 262.093 350.894 262.093ZM358.894 260.093 364.894 260.093 364.894 262.093 358.894 262.093ZM366.894 260.093 372.894 260.093 372.894 262.093 366.894 262.093ZM374.894 260.093 380.894 260.093 380.894 262.093 374.894 262.093ZM382.894 260.093 388.894 260.093 388.894 262.093 382.894 262.093ZM390.894 260.093 396.894 260.093 396.894 262.093 390.894 262.093ZM398.894 260.093 404.894 260.093 404.894 262.093 398.894 262.093ZM406.894 260.093 412.894 260.093 412.894 262.093 406.894 262.093ZM414.894 260.093 420.894 260.093 420.894 262.093 414.894 262.093ZM422.894 260.093 424.462 260.093 423.462 261.093 423.462 256.661 425.462 256.661 425.462 262.093 422.894 262.093ZM423.462 254.661 423.462 248.661 425.462 248.661 425.462 254.661ZM423.462 246.661 423.462 240.667 425.462 240.667 425.462 246.661ZM420.462 242 424.462 234 428.462 242Z" fill="#FFC000"/><path d="M0-1 6-1 6 1 0 1ZM8-1 14-1 14 1 8 1ZM16-1 22-1 22 1 16 1ZM24-1 30-1 30 1 24 1ZM32-1 38-1 38 1 32 1ZM40-1 41.2997-1 41.2997 5.70026 39.2997 5.70026 39.2997 0 40.2997 1 40 1ZM41.2997 7.70026 41.2997 13.7003 39.2997 13.7003 39.2997 7.70026ZM41.2997 15.7003 41.2997 21.7003 39.2997 21.7003 39.2997 15.7003ZM41.2997 23.7003 41.2997 29.7003 39.2997 29.7003 39.2997 23.7003ZM41.2997 31.7003 41.2997 31.9073 39.2997 31.9073 39.2997 31.7003ZM44.2997 30.574 40.2997 38.574 36.2997 30.574Z" fill="#FFC000" transform="matrix(1.83697e-16 1 1 -1.83697e-16 497 234)"/><path d="M536 263 546 263 556 274.5 546 286 536 286Z" stroke="#2F528F" stroke-width="2" stroke-miterlimit="8" fill="#FFC000" fill-rule="evenodd"/><text font-family="Yu Gothic,Yu Gothic_MSFontService,sans-serif" font-weight="400" font-size="13" transform="translate(474.73 298)">$upstream</text><path d="M0-1 6-1 6 1 0 1ZM8-1 14-1 14 1 8 1ZM16-1 22-1 22 1 16 1ZM24-1 30-1 30 1 24 1ZM32-1 38-1 38 1 32 1ZM40-1 46-1 46 1 40 1ZM48-1 54-1 54 1 48 1ZM56-1 62-1 62 1 56 1ZM64-1 69.7875-1 69.7875 1.21249 67.7875 1.21249 67.7875 0 68.7875 1 64 1ZM69.7875 3.21249 69.7875 9.21249 67.7875 9.21249 67.7875 3.21249ZM69.7875 11.2125 69.7875 17.2125 67.7875 17.2125 67.7875 11.2125ZM69.7875 19.2125 69.7875 25.2125 67.7875 25.2125 67.7875 19.2125ZM69.7875 27.2125 69.7875 33.2125 67.7875 33.2125 67.7875 27.2125ZM69.7875 35.2125 69.7875 41.2125 67.7875 41.2125 67.7875 35.2125ZM69.7875 43.2125 69.7875 49.2125 67.7875 49.2125 67.7875 43.2125ZM69.7875 51.2125 69.7875 57.2125 67.7875 57.2125 67.7875 51.2125ZM69.7875 59.2125 69.7875 62.3918 68.7875 61.3918 71.6082 61.3918 71.6082 63.3918 67.7875 63.3918 67.7875 59.2125ZM73.6082 61.3918 79.6082 61.3918 79.6082 63.3918 73.6082 63.3918ZM81.6082 61.3918 87.6082 61.3918 87.6082 63.3918 81.6082 63.3918ZM89.6082 61.3918 95.6082 61.3918 95.6082 63.3918 89.6082 63.3918ZM97.6082 61.3918 103.608 61.3918 103.608 63.3918 97.6082 63.3918ZM105.608 61.3918 111.608 61.3918 111.608 63.3918 105.608 63.3918ZM113.608 61.3918 119.608 61.3918 119.608 63.3918 113.608 63.3918ZM121.608 61.3918 127.608 61.3918 127.608 63.3918 121.608 63.3918ZM129.608 61.3918 130.908 61.3918 130.908 63.3918 129.608 63.3918ZM129.575 58.3918 137.575 62.3918 129.575 66.3918Z" fill="#FFC000" transform="matrix(1 0 0 -1 556 274.392)"/></g></svg>