<svg width="607" height="361" xmlns="http://www.w3.org/2000/svg" xmlns:xlink="http://www.w3.org/1999/xlink" overflow="hidden"><defs><clipPath id="clip0"><rect x="34" y="48" width="607" height="361"/></clipPath><clipPath id="clip1"><rect x="275" y="186" width="82" height="82"/></clipPath><clipPath id="clip2"><rect x="275" y="186" width="82" height="82"/></clipPath><clipPath id="clip3"><rect x="275" y="186" width="82" height="82"/></clipPath><linearGradient x1="316.592" y1="271.69" x2="315.317" y2="149.1" gradientUnits="userSpaceOnUse" spreadMethod="pad" id="fill4"><stop offset="0" stop-color="#198AB3"/><stop offset="0" stop-color="#198AB3"/><stop offset="0.09" stop-color="#22A5CB"/><stop offset="0.19" stop-color="#29BADE"/><stop offset="0.29" stop-color="#2EC9EB"/><stop offset="0.42" stop-color="#31D1F3"/><stop offset="0.62" stop-color="#32D4F5"/><stop offset="1" stop-color="#32D4F5"/></linearGradient><clipPath id="clip5"><rect x="471" y="260" width="31" height="32"/></clipPath><clipPath id="clip6"><rect x="471" y="260" width="31" height="32"/></clipPath><clipPath id="clip7"><rect x="471" y="260" width="31" height="32"/></clipPath><clipPath id="clip8"><rect x="82" y="113" width="45" height="45"/></clipPath><clipPath id="clip9"><rect x="82" y="113" width="45" height="45"/></clipPath><clipPath id="clip10"><rect x="82" y="113" width="45" height="45"/></clipPath><clipPath id="clip11"><rect x="82" y="195" width="45" height="44"/></clipPath><clipPath id="clip12"><rect x="82" y="195" width="45" height="44"/></clipPath><clipPath id="clip13"><rect x="82" y="195" width="45" height="44"/></clipPath><clipPath id="clip14"><rect x="82" y="304" width="45" height="45"/></clipPath><clipPath id="clip15"><rect x="82" y="304" width="45" height="45"/></clipPath><clipPath id="clip16"><rect x="82" y="304" width="45" height="45"/></clipPath></defs><g clip-path="url(#clip0)" transform="translate(-34 -48)"><rect x="35.5001" y="49.5001" width="605" height="359" stroke="#D9D9D9" stroke-width="1.33333" stroke-miterlimit="8" fill="none"/><g clip-path="url(#clip1)"><g clip-path="url(#clip2)"><g clip-path="url(#clip3)"><path d="M335.908 224.449C335.908 229.405 331.89 233.423 326.933 233.423 321.977 233.423 317.959 229.405 317.959 224.449 317.959 219.492 321.977 215.474 326.933 215.474 331.89 215.474 335.908 219.492 335.908 224.449Z" fill="#FFFFFF"/><path d="M349.028 251.144C349.028 255.044 345.866 258.206 341.967 258.206 338.067 258.206 334.906 255.044 334.906 251.144 334.906 247.245 338.067 244.083 341.967 244.083 345.866 244.083 349.028 247.245 349.028 251.144Z" fill="#FFFFFF"/><path d="M320.1 246.316C320.1 249.662 317.387 252.374 314.041 252.374 310.695 252.374 307.982 249.662 307.982 246.316 307.982 242.969 310.695 240.257 314.041 240.257 317.387 240.257 320.1 242.969 320.1 246.316Z" fill="#FFFFFF"/><path d="M317.184 200.168C317.184 204.319 313.819 207.684 309.668 207.684 305.516 207.684 302.151 204.319 302.151 200.168 302.151 196.016 305.516 192.651 309.668 192.651 313.819 192.651 317.184 196.016 317.184 200.168Z" fill="#FFFFFF"/><path d="M295.591 227.866C295.591 231.212 292.878 233.924 289.532 233.924 286.186 233.924 283.473 231.212 283.473 227.866 283.473 224.519 286.186 221.807 289.532 221.807 292.878 221.807 295.591 224.519 295.591 227.866Z" fill="#FFFFFF"/><path d="M343.607 249.732 328.437 223.173 326.933 224.039 328.163 223.128 310.989 198.71 307.846 200.988 323.061 222.627 289.35 225.406 289.669 229.323 323.061 226.544 311.991 244.949 315.317 246.953 326.706 228.002 340.236 251.646 343.607 249.732Z" fill="#949494"/><path d="M354.859 191.603 354.859 191.603C354.859 189.767 353.37 188.278 351.533 188.278L334.222 188.278C333.317 188.278 332.582 189.012 332.582 189.918L332.582 196.341C332.582 197.247 333.317 197.981 334.222 197.981L344.928 197.981 344.928 208.459C344.952 209.38 345.693 210.121 346.613 210.144L352.991 210.144C353.912 210.121 354.653 209.38 354.677 208.459L354.677 191.603Z" fill="#949494"/><path d="M297.778 256.019 286.89 256.019 286.89 245.541C286.866 244.62 286.125 243.88 285.204 243.856L278.827 243.856C277.906 243.88 277.165 244.62 277.141 245.541L277.141 262.397 277.141 262.397C277.166 264.216 278.648 265.677 280.467 265.677L297.778 265.677C298.684 265.677 299.418 264.942 299.418 264.037L299.418 257.659C299.418 256.753 298.684 256.019 297.778 256.019Z" fill="#949494"/><path d="M326.933 215.566C331.965 215.567 336.043 219.648 336.042 224.679 336.04 229.711 331.959 233.789 326.927 233.788 321.896 233.786 317.818 229.706 317.819 224.674 317.819 224.599 317.82 224.524 317.822 224.449 317.946 219.506 321.989 215.564 326.933 215.566ZM302.333 200.168C302.309 204.344 305.676 207.749 309.852 207.773 314.029 207.797 317.434 204.431 317.458 200.255 317.481 196.078 314.115 192.673 309.939 192.649 309.864 192.649 309.788 192.649 309.713 192.651 305.615 192.726 302.333 196.069 302.333 200.168ZM283.473 227.82C283.473 231.166 286.186 233.879 289.532 233.879 292.878 233.879 295.591 231.166 295.591 227.82 295.591 224.474 292.878 221.761 289.532 221.761 286.186 221.761 283.473 224.474 283.473 227.82ZM307.982 246.27C307.957 249.641 310.67 252.394 314.041 252.42 317.412 252.445 320.166 249.732 320.191 246.361 320.216 242.99 317.503 240.237 314.132 240.211 314.117 240.211 314.102 240.211 314.087 240.211 310.741 240.186 308.008 242.878 307.982 246.224 307.982 246.239 307.982 246.255 307.982 246.27ZM334.951 251.144C334.926 255.044 338.067 258.226 341.967 258.251 345.866 258.276 349.048 255.135 349.073 251.236 349.098 247.336 345.957 244.154 342.058 244.129 342.042 244.129 342.027 244.129 342.012 244.129 338.163 244.078 335.002 247.158 334.952 251.007 334.951 251.053 334.951 251.098 334.951 251.144Z" fill="url(#fill4)"/></g></g></g><path d="M537 179C532.582 179 529 175.418 529 171 529 166.582 532.582 163 537 163 537.027 163 537.053 163 537.08 163.001" stroke="#000000" stroke-width="2" stroke-miterlimit="8" fill="none" fill-rule="evenodd"/><path d="M0 0 0.705197 18.9763" stroke="#000000" stroke-width="2" stroke-miterlimit="8" fill="none" fill-rule="evenodd" transform="matrix(6.12323e-17 1 1 -6.12323e-17 508 170)"/><text font-family="Yu Gothic,Yu Gothic_MSFontService,sans-serif" font-weight="400" font-size="13" transform="translate(352.35 162)">組込みのエンドポイント<tspan font-size="13" x="146.667" y="0">:</tspan><tspan font-size="13" x="0" y="16">D2C</tspan><tspan font-size="13" x="30.3333" y="16">メッセージ</tspan></text><path d="M537 284C532.582 284 529 280.418 529 276 529 271.582 532.582 268 537 268 537.027 268 537.053 268 537.08 268.001" stroke="#000000" stroke-width="2" stroke-miterlimit="8" fill="none" fill-rule="evenodd"/><path d="M0 0 0.705197 18.9763" stroke="#000000" stroke-width="2" stroke-miterlimit="8" fill="none" fill-rule="evenodd" transform="matrix(6.12323e-17 1 1 -6.12323e-17 508 275)"/><g clip-path="url(#clip5)"><g clip-path="url(#clip6)"><g clip-path="url(#clip7)"><path d="M18.6517 14.5011C18.6617 14.7422 18.4789 14.9478 18.2383 14.9661L14.6389 14.9661C14.3978 14.9761 14.1922 14.7933 14.1739 14.5528L14.1739 11.8661C14.1639 11.6251 14.3467 11.4195 14.5872 11.4011L18.1867 11.4011C18.4278 11.3911 18.6332 11.5739 18.6517 11.8144L18.6517 14.5011Z" fill="#76BC2D" transform="matrix(1 0 0 1.03226 471 260)"/><path d="M25.0411 17.2222C25.0511 17.4633 24.8684 17.6688 24.6278 17.6872L21.0283 17.6872C20.7872 17.6972 20.5818 17.5145 20.5633 17.2739L20.5633 14.6044C20.5533 14.3634 20.7361 14.1578 20.9767 14.1394L24.5761 14.1394C24.8172 14.1295 25.0227 14.3122 25.0411 14.5528L25.0411 17.2222Z" fill="#76BC2D" transform="matrix(1 0 0 1.03226 471 260)"/><path d="M18.6517 19.9778C18.6617 20.2189 18.4789 20.4243 18.2383 20.4428L14.6389 20.4428C14.3978 20.4528 14.1922 20.27 14.1739 20.0294L14.1739 17.3428C14.1639 17.1017 14.3467 16.8961 14.5872 16.8778L18.1867 16.8778C18.4278 16.8678 18.6332 17.0506 18.6517 17.2911L18.6517 19.9778Z" fill="#76BC2D" transform="matrix(1 0 0 1.03226 471 260)"/><path d="M12.2622 11.78C12.2722 12.0115 12.0971 12.2095 11.8661 12.2278L8.16333 12.2278C7.92835 12.2384 7.72523 12.0653 7.69833 11.8317L7.69833 9.04167C7.70643 8.81387 7.88439 8.62851 8.11167 8.61111L11.7111 8.61111C12.09 8.61111 12.2622 8.80056 12.2622 9.07611Z" fill="#86D633" transform="matrix(1 0 0 1.03226 471 260)"/><path d="M12.2622 17.2222C12.2819 17.4592 12.1058 17.6672 11.8688 17.687 11.8679 17.687 11.867 17.6872 11.8661 17.6872L8.16333 17.6872C7.91623 17.6969 7.70803 17.5045 7.69833 17.2574 7.69787 17.2456 7.69787 17.2339 7.69833 17.2222L7.69833 14.5011C7.69764 14.2667 7.87791 14.0714 8.11167 14.0533L11.7111 14.0533C12.09 14.0533 12.2622 14.2428 12.2622 14.5011Z" fill="#76BC2D" transform="matrix(1 0 0 1.03226 471 260)"/><path d="M12.2622 22.7161C12.2819 22.9531 12.1058 23.1611 11.8688 23.1809 11.8679 23.1809 11.867 23.1811 11.8661 23.1811L8.16333 23.1811C7.92229 23.1911 7.71669 23.0084 7.69833 22.7678L7.69833 19.9778C7.68864 19.7401 7.87338 19.5396 8.11098 19.53 8.1112 19.53 8.11144 19.53 8.11167 19.53L11.7111 19.53C12.09 19.53 12.2622 19.7022 12.2622 19.9778Z" fill="#76BC2D" transform="matrix(1 0 0 1.03226 471 260)"/><path d="M1.84278 2.60056 4.06444 2.60056 4.06444 2.60056 4.06444 8.80056C4.06444 9.07639 3.84083 9.3 3.565 9.3L1.36056 9.3C1.08472 9.3 0.861111 9.07639 0.861111 8.80056L0.861111 3.63389C0.832576 3.09247 1.24834 2.63045 1.78975 2.60192 1.8074 2.60099 1.82509 2.60054 1.84278 2.60056Z" fill="#999999" transform="matrix(1 0 0 1.03226 471 260)"/><path d="M1.84278 2.60056 4.06444 2.60056 4.06444 2.60056 4.06444 8.80056C4.06444 9.07639 3.84083 9.3 3.565 9.3L1.36056 9.3C1.08472 9.3 0.861111 9.07639 0.861111 8.80056L0.861111 3.63389C0.832576 3.09247 1.24834 2.63045 1.78975 2.60192 1.8074 2.60099 1.82509 2.60054 1.84278 2.60056Z" fill="#999999" fill-opacity="0.5" transform="matrix(1 0 0 1.03226 471 260)"/><path d="M26.9356 2.60056 29.1572 2.60056C29.6994 2.60056 30.1389 3.04007 30.1389 3.58222L30.1389 8.74889C30.1389 9.02472 29.9153 9.24833 29.6394 9.24833L27.4178 9.24833C27.1419 9.24833 26.9183 9.02472 26.9183 8.74889L26.9183 2.60056 26.9356 2.60056Z" fill="#999999" transform="matrix(1 0 0 1.03226 471 260)"/><path d="M26.9356 2.60056 29.1572 2.60056C29.6994 2.60056 30.1389 3.04007 30.1389 3.58222L30.1389 8.74889C30.1389 9.02472 29.9153 9.24833 29.6394 9.24833L27.4178 9.24833C27.1419 9.24833 26.9183 9.02472 26.9183 8.74889L26.9183 2.60056 26.9356 2.60056Z" fill="#999999" fill-opacity="0.5" transform="matrix(1 0 0 1.03226 471 260)"/><path d="M14.9144-10.4711 17.0672-10.4711 17.0672-10.4711 17.0672 18.8067 17.0672 18.8067 14.9144 18.8067C14.3723 18.8067 13.9328 18.3672 13.9328 17.825L13.9328-9.50667C13.9422-10.0421 14.3789-10.4712 14.9144-10.4711Z" fill="#949494" transform="matrix(6.12323e-17 1.03226 -1 6.32075e-17 490.668 248.302)"/><path d="M1.36056 21.9756 3.58222 21.9756C3.85805 21.9756 4.08167 22.1991 4.08167 22.475L4.08167 28.675 4.08167 28.675 1.84278 28.675C1.30062 28.675 0.861111 28.2355 0.861111 27.6933L0.861111 22.3889C0.903404 22.1471 1.11512 21.9719 1.36056 21.9756Z" fill="#999999" transform="matrix(1 0 0 1.03226 471 260)"/><path d="M1.36056 21.9756 3.58222 21.9756C3.85805 21.9756 4.08167 22.1991 4.08167 22.475L4.08167 28.675 4.08167 28.675 1.84278 28.675C1.30062 28.675 0.861111 28.2355 0.861111 27.6933L0.861111 22.3889C0.903404 22.1471 1.11512 21.9719 1.36056 21.9756Z" fill="#999999" fill-opacity="0.5" transform="matrix(1 0 0 1.03226 471 260)"/><path d="M27.4178 21.9756 29.6394 21.9756C29.9153 21.9756 30.1389 22.1991 30.1389 22.475L30.1389 27.6417C30.1389 28.1838 29.6994 28.6233 29.1572 28.6233L26.9356 28.6233 26.9356 28.6233 26.9356 22.3889C26.9767 22.1535 27.1789 21.9802 27.4178 21.9756Z" fill="#999999" transform="matrix(1 0 0 1.03226 471 260)"/><path d="M27.4178 21.9756 29.6394 21.9756C29.9153 21.9756 30.1389 22.1991 30.1389 22.475L30.1389 27.6417C30.1389 28.1838 29.6994 28.6233 29.1572 28.6233L26.9356 28.6233 26.9356 28.6233 26.9356 22.3889C26.9767 22.1535 27.1789 21.9802 27.4178 21.9756Z" fill="#999999" fill-opacity="0.5" transform="matrix(1 0 0 1.03226 471 260)"/><path d="M14.9144 12.4689 17.0672 12.4689 17.0672 12.4689 17.0672 41.7467 17.0672 41.7467 14.9144 41.7467C14.3723 41.7467 13.9328 41.3072 13.9328 40.765L13.9328 13.4506C13.9328 12.9084 14.3723 12.4689 14.9144 12.4689Z" fill="#949494" transform="matrix(6.12323e-17 -1.03226 1 6.32075e-17 459.392 303.982)"/></g></g></g><rect x="343.5" y="247.5" width="167" height="58" stroke="#000000" stroke-width="1.33333" stroke-miterlimit="8" fill="none"/><rect x="343.5" y="140.5" width="167" height="58" stroke="#000000" stroke-width="1.33333" stroke-miterlimit="8" fill="none"/><text font-family="Yu Gothic,Yu Gothic_MSFontService,sans-serif" font-weight="400" font-size="13" transform="translate(353.839 273)">$<tspan font-size="13" x="7.66666" y="0">body.phase</tspan><tspan font-size="13" x="81.5" y="0">= </tspan><tspan font-size="13" x="0" y="16">‘development’</tspan></text><g clip-path="url(#clip8)"><g clip-path="url(#clip9)"><g clip-path="url(#clip10)"><path d="M99.8086 143.304 99.2629 144.353 99.2398 144.395C97.9732 146.548 95.634 147.886 93.1334 147.886 91.879 147.886 90.6398 147.547 89.5535 146.908 87.9237 145.949 86.7645 144.415 86.2908 142.584 86.2699 142.506 86.2527 142.428 86.2353 142.349L85.3328 149.276 100.592 149.276 99.8086 143.304Z" fill="#4B4B4B"/><path d="M100.71 118.194 87.84 137.692C86.1193 140.618 87.096 144.387 90.0235 146.108 92.9502 147.829 96.7182 146.852 98.4396 143.924L107.175 127.132 102.36 122.554C101.104 121.259 100.676 119.813 100.71 118.194ZM95.2534 142.051C94.5671 143.219 93.0641 143.608 91.897 142.922 90.7292 142.235 90.3392 140.733 91.0263 139.565 91.7125 138.397 93.2155 138.008 94.3826 138.694 95.5497 139.381 95.9404 140.884 95.2534 142.051Z" fill="#4B4B4B"/><path d="M101.02 150.112 85.0127 150.112C83.9227 150.112 83.0397 150.995 83.0397 152.085L83.0397 158 102.992 158 102.992 152.085C102.992 150.995 102.109 150.112 101.02 150.112Z" fill="#4B4B4B"/><path d="M121.553 129.325C122.184 129.325 122.791 129.435 123.353 129.637L110.873 114.718C108.882 112.555 105.515 112.416 103.353 114.407 101.19 116.396 101.052 119.764 103.042 121.926L116.222 134.446C116.334 131.603 118.682 129.325 121.553 129.325ZM108.331 119.815C107.507 120.573 106.224 120.519 105.465 119.695 104.705 118.871 104.759 117.588 105.583 116.83 106.407 116.07 107.691 116.123 108.45 116.948 109.209 117.772 109.155 119.055 108.331 119.815Z" fill="#4B4B4B"/><path d="M119.94 145.1 121.66 147.036 123.38 145.1 123.38 141.914 119.94 141.914Z" fill="#4B4B4B"/><path d="M121.553 130.252C119.118 130.252 117.145 132.225 117.145 134.66L117.145 141.003 125.96 141.003 125.96 134.66C125.96 132.225 123.988 130.252 121.553 130.252ZM121.553 136.246C120.602 136.246 119.832 135.476 119.832 134.526 119.832 133.575 120.602 132.804 121.553 132.804 122.503 132.804 123.274 133.575 123.274 134.526 123.274 135.476 122.503 136.246 121.553 136.246Z" fill="#4B4B4B"/></g></g></g><text font-family="Yu Gothic,Yu Gothic_MSFontService,sans-serif" font-weight="400" font-size="13" transform="translate(546.384 174)">通常<tspan font-size="13" x="26.6666" y="0">の</tspan><tspan font-size="13" x="0" y="16">サービスへ</tspan><tspan font-size="13" x="3.41541" y="106">テスト中の</tspan><tspan font-size="13" x="3.41541" y="122">サービスへ</tspan></text><g clip-path="url(#clip11)"><g clip-path="url(#clip12)"><g clip-path="url(#clip13)"><path d="M17.4128 29.6309 16.8793 30.6558 16.8567 30.6974C15.6183 32.8028 13.3311 34.1103 10.886 34.1103 9.65946 34.1103 8.44783 33.7797 7.38564 33.1545 5.79202 32.2171 4.65859 30.7165 4.19547 28.9268 4.17502 28.8507 4.15817 28.7739 4.14116 28.697L3.25875 35.4698 18.179 35.4698 17.4128 29.6309Z" fill="#4B4B4B" transform="matrix(1.02273 0 0 1 82 195)"/><path d="M18.2946 5.07813 5.7102 24.1436C4.02772 27.0039 4.98274 30.6897 7.84523 32.3721 10.7069 34.0553 14.3911 33.0994 16.0743 30.2371L24.6157 13.8176 19.9073 9.34184C18.6795 8.07589 18.2615 6.66187 18.2946 5.07813ZM12.9589 28.4052C12.2879 29.5471 10.8182 29.9276 9.67708 29.2573 8.53523 28.585 8.15392 27.1167 8.8257 25.9749 9.4967 24.8329 10.9663 24.4524 12.1074 25.1234 13.2486 25.7951 13.6306 27.264 12.9589 28.4052Z" fill="#4B4B4B" transform="matrix(1.02273 0 0 1 82 195)"/><path d="M18.597 36.2869 2.94577 36.2869C1.87997 36.2869 1.01655 37.151 1.01655 38.2168L1.01655 44 20.5254 44 20.5254 38.2168C20.5254 37.151 19.662 36.2869 18.597 36.2869Z" fill="#4B4B4B" transform="matrix(1.02273 0 0 1 82 195)"/><path d="M38.6739 15.9618C39.2913 15.9618 39.8841 16.0696 40.4339 16.2676L28.2309 1.67939C26.2848-0.435188 22.9925-0.571141 20.8786 1.3756 18.764 3.32097 18.6288 6.61341 20.5748 8.72721L33.4616 20.9697C33.5715 18.1898 35.8665 15.9618 38.6739 15.9618ZM25.7455 6.66334C24.9399 7.4048 23.6853 7.35195 22.9438 6.54638 22.2008 5.74071 22.253 4.48611 23.0594 3.74455 23.865 3.00171 25.1196 3.05379 25.8625 3.86023 26.6041 4.6658 26.5519 5.92041 25.7455 6.66334Z" fill="#4B4B4B" transform="matrix(1.02273 0 0 1 82 195)"/><path d="M37.0965 31.3867 38.779 33.2792 40.4607 31.3867 40.4607 28.2713 37.0965 28.2713Z" fill="#4B4B4B" transform="matrix(1.02273 0 0 1 82 195)"/><path d="M38.6739 16.8688C36.2936 16.8688 34.3637 18.7981 34.3637 21.179L34.3637 27.3811 42.9834 27.3811 42.9834 21.179C42.9834 18.7981 41.0549 16.8688 38.6739 16.8688ZM38.6739 22.7298C37.7443 22.7298 36.9915 21.9763 36.9915 21.0473 36.9915 20.1176 37.7443 19.3641 38.6739 19.3641 39.6029 19.3641 40.3571 20.1175 40.3571 21.0473 40.3571 21.9762 39.603 22.7298 38.6739 22.7298Z" fill="#4B4B4B" transform="matrix(1.02273 0 0 1 82 195)"/></g></g></g><path d="M104 162 104 187.911" stroke="#000000" stroke-width="4" stroke-miterlimit="8" stroke-dasharray="4 4" fill="none" fill-rule="evenodd"/><path d="M228.5 87.5001C237.061 87.5001 244 88.6565 244 90.0831L244 223.417C244 224.844 250.94 226 259.5 226 250.94 226 244 227.157 244 228.583L244 361.917C244 363.344 237.061 364.5 228.5 364.5" stroke="#000000" stroke-width="0.666667" stroke-miterlimit="8" fill="none" fill-rule="evenodd"/><g clip-path="url(#clip14)"><g clip-path="url(#clip15)"><g clip-path="url(#clip16)"><path d="M99.8086 334.304 99.2629 335.353 99.2398 335.395C97.9732 337.548 95.634 338.886 93.1334 338.886 91.879 338.886 90.6398 338.547 89.5535 337.908 87.9237 336.949 86.7645 335.415 86.2908 333.584 86.2699 333.506 86.2527 333.428 86.2353 333.349L85.3328 340.276 100.592 340.276 99.8086 334.304Z" fill="#4B4B4B"/><path d="M100.71 309.194 87.84 328.692C86.1193 331.618 87.096 335.387 90.0235 337.108 92.9502 338.829 96.7182 337.852 98.4396 334.924L107.175 318.132 102.36 313.554C101.104 312.259 100.676 310.813 100.71 309.194ZM95.2534 333.051C94.5671 334.219 93.0641 334.608 91.897 333.922 90.7292 333.235 90.3392 331.733 91.0263 330.565 91.7125 329.397 93.2155 329.008 94.3826 329.694 95.5497 330.381 95.9404 331.884 95.2534 333.051Z" fill="#4B4B4B"/><path d="M101.02 341.112 85.0127 341.112C83.9227 341.112 83.0397 341.995 83.0397 343.085L83.0397 349 102.992 349 102.992 343.085C102.992 341.995 102.109 341.112 101.02 341.112Z" fill="#4B4B4B"/><path d="M121.553 320.325C122.184 320.325 122.791 320.435 123.353 320.637L110.873 305.718C108.882 303.555 105.515 303.416 103.353 305.407 101.19 307.396 101.052 310.764 103.042 312.926L116.222 325.446C116.334 322.603 118.682 320.325 121.553 320.325ZM108.331 310.815C107.507 311.573 106.224 311.519 105.465 310.695 104.705 309.871 104.759 308.588 105.583 307.83 106.407 307.07 107.691 307.123 108.45 307.948 109.209 308.772 109.155 310.055 108.331 310.815Z" fill="#4B4B4B"/><path d="M119.94 336.1 121.66 338.036 123.38 336.1 123.38 332.914 119.94 332.914Z" fill="#4B4B4B"/><path d="M121.553 321.252C119.118 321.252 117.145 323.225 117.145 325.66L117.145 332.003 125.96 332.003 125.96 325.66C125.96 323.225 123.988 321.252 121.553 321.252ZM121.553 327.246C120.602 327.246 119.832 326.476 119.832 325.526 119.832 324.575 120.602 323.804 121.553 323.804 122.503 323.804 123.274 324.575 123.274 325.526 123.274 326.476 122.503 327.246 121.553 327.246Z" fill="#4B4B4B"/></g></g></g><path d="M56.5001 92.167C56.5001 82.9621 63.9621 75.5001 73.167 75.5001L139.833 75.5001C149.038 75.5001 156.5 82.9621 156.5 92.167L156.5 246.833C156.5 256.038 149.038 263.5 139.833 263.5L73.167 263.5C63.9621 263.5 56.5001 256.038 56.5001 246.833Z" stroke="#2F528F" stroke-width="1.33333" stroke-miterlimit="8" fill="none" fill-rule="evenodd"/><text font-family="Yu Gothic,Yu Gothic_MSFontService,sans-serif" font-weight="400" font-size="13" transform="translate(72.5217 96)">通常稼働中</text><path d="M56.5001 293.167C56.5001 283.962 63.9621 276.5 73.167 276.5L139.833 276.5C149.038 276.5 156.5 283.962 156.5 293.167L156.5 363.833C156.5 373.038 149.038 380.5 139.833 380.5L73.167 380.5C63.9621 380.5 56.5001 373.038 56.5001 363.833Z" stroke="#2F528F" stroke-width="1.33333" stroke-miterlimit="8" fill="none" fill-rule="evenodd"/><text font-family="Yu Gothic,Yu Gothic_MSFontService,sans-serif" font-weight="400" font-size="13" transform="translate(79.1883 366)">テスト中</text><path d="M142.5 313.5 143.625 313.5 143.625 331.5 142.5 331.5ZM144.75 313.5 147 313.5 147 331.5 144.75 331.5ZM148.125 313.5 210.5 313.5 210.5 304.5 228.5 322.5 210.5 340.5 210.5 331.5 148.125 331.5Z" stroke="#FF0000" stroke-width="3" stroke-miterlimit="8" stroke-opacity="0.501961" fill="#4472C4" fill-rule="evenodd" fill-opacity="0.501961"/><path d="M140.5 168.5 141.625 168.5 141.625 186.5 140.5 186.5ZM142.75 168.5 145 168.5 145 186.5 142.75 186.5ZM146.125 168.5 208.5 168.5 208.5 159.5 226.5 177.5 208.5 195.5 208.5 186.5 146.125 186.5Z" stroke="#70AD47" stroke-width="3" stroke-miterlimit="8" stroke-opacity="0.501961" fill="#4472C4" fill-rule="evenodd" fill-opacity="0.501961"/><text font-family="Yu Gothic,Yu Gothic_MSFontService,sans-serif" font-weight="400" font-size="13" transform="translate(155.838 150)">プロパティ無しのメッセージ<tspan font-size="13" x="3.34634" y="204">プロパティ付きのメッセージ</tspan><tspan font-size="13" x="3.34634" y="220">{</tspan><tspan font-size="13" x="8.51302" y="220">phase:development</tspan>}</text><path d="M442.5 177.5 443.625 177.5 443.625 195.5 442.5 195.5ZM444.75 177.5 447 177.5 447 195.5 444.75 195.5ZM448.125 177.5 510.5 177.5 510.5 168.5 528.5 186.5 510.5 204.5 510.5 195.5 448.125 195.5Z" stroke="#70AD47" stroke-width="3" stroke-miterlimit="8" stroke-opacity="0.501961" fill="#4472C4" fill-rule="evenodd" fill-opacity="0.501961"/><path d="M444.5 294.5 445.625 294.5 445.625 312.5 444.5 312.5ZM446.75 294.5 449 294.5 449 312.5 446.75 312.5ZM450.125 294.5 511.5 294.5 511.5 285.5 529.5 303.5 511.5 321.5 511.5 312.5 450.125 312.5Z" stroke="#FF0000" stroke-width="3" stroke-miterlimit="8" stroke-opacity="0.501961" fill="#4472C4" fill-rule="evenodd" fill-opacity="0.501961"/><text font-family="Yu Gothic,Yu Gothic_MSFontService,sans-serif" font-weight="400" font-size="13" transform="translate(404.099 336)">条件<tspan font-size="13" x="26.6667" y="0">に合致したメッセージ</tspan><tspan font-size="13" x="1.8569" y="-118">ルーティング群の条件に</tspan><tspan font-size="13" x="1.8569" y="-102">合致しないメッセージ</tspan></text></g></svg>