<svg width="607" height="313" xmlns="http://www.w3.org/2000/svg" xmlns:xlink="http://www.w3.org/1999/xlink" overflow="hidden"><defs><clipPath id="clip0"><rect x="34" y="48" width="607" height="313"/></clipPath><clipPath id="clip1"><rect x="127" y="171" width="82" height="82"/></clipPath><clipPath id="clip2"><rect x="127" y="171" width="82" height="82"/></clipPath><clipPath id="clip3"><rect x="127" y="171" width="82" height="82"/></clipPath><linearGradient x1="168.592" y1="256.69" x2="167.317" y2="134.1" gradientUnits="userSpaceOnUse" spreadMethod="pad" id="fill4"><stop offset="0" stop-color="#198AB3"/><stop offset="0" stop-color="#198AB3"/><stop offset="0.09" stop-color="#22A5CB"/><stop offset="0.19" stop-color="#29BADE"/><stop offset="0.29" stop-color="#2EC9EB"/><stop offset="0.42" stop-color="#31D1F3"/><stop offset="0.62" stop-color="#32D4F5"/><stop offset="1" stop-color="#32D4F5"/></linearGradient><clipPath id="clip5"><rect x="438" y="250" width="31" height="32"/></clipPath><clipPath id="clip6"><rect x="438" y="250" width="31" height="32"/></clipPath><clipPath id="clip7"><rect x="438" y="250" width="31" height="32"/></clipPath><clipPath id="clip8"><rect x="438" y="143" width="31" height="31"/></clipPath><clipPath id="clip9"><rect x="438" y="143" width="31" height="31"/></clipPath><clipPath id="clip10"><rect x="438" y="143" width="31" height="31"/></clipPath></defs><g clip-path="url(#clip0)" transform="translate(-34 -48)"><rect x="35.5001" y="49.5001" width="605" height="311" stroke="#D9D9D9" stroke-width="1.33333" stroke-miterlimit="8" fill="none"/><g clip-path="url(#clip1)"><g clip-path="url(#clip2)"><g clip-path="url(#clip3)"><path d="M187.908 209.449C187.908 214.405 183.89 218.423 178.933 218.423 173.977 218.423 169.959 214.405 169.959 209.449 169.959 204.492 173.977 200.474 178.933 200.474 183.89 200.474 187.908 204.492 187.908 209.449Z" fill="#FFFFFF"/><path d="M201.028 236.144C201.028 240.044 197.866 243.206 193.967 243.206 190.067 243.206 186.906 240.044 186.906 236.144 186.906 232.245 190.067 229.083 193.967 229.083 197.866 229.083 201.028 232.245 201.028 236.144Z" fill="#FFFFFF"/><path d="M172.1 231.316C172.1 234.662 169.387 237.374 166.041 237.374 162.695 237.374 159.982 234.662 159.982 231.316 159.982 227.969 162.695 225.257 166.041 225.257 169.387 225.257 172.1 227.969 172.1 231.316Z" fill="#FFFFFF"/><path d="M169.184 185.168C169.184 189.319 165.819 192.684 161.668 192.684 157.516 192.684 154.151 189.319 154.151 185.168 154.151 181.016 157.516 177.651 161.668 177.651 165.819 177.651 169.184 181.016 169.184 185.168Z" fill="#FFFFFF"/><path d="M147.591 212.866C147.591 216.212 144.878 218.924 141.532 218.924 138.186 218.924 135.473 216.212 135.473 212.866 135.473 209.519 138.186 206.807 141.532 206.807 144.878 206.807 147.591 209.519 147.591 212.866Z" fill="#FFFFFF"/><path d="M195.607 234.732 180.437 208.173 178.933 209.039 180.163 208.128 162.989 183.71 159.846 185.988 175.061 207.627 141.35 210.406 141.669 214.323 175.061 211.544 163.991 229.949 167.317 231.953 178.706 213.002 192.236 236.646 195.607 234.732Z" fill="#949494"/><path d="M206.859 176.603 206.859 176.603C206.859 174.767 205.37 173.278 203.533 173.278L186.222 173.278C185.317 173.278 184.582 174.012 184.582 174.918L184.582 181.341C184.582 182.247 185.317 182.981 186.222 182.981L196.928 182.981 196.928 193.459C196.952 194.38 197.693 195.121 198.613 195.144L204.991 195.144C205.912 195.121 206.653 194.38 206.677 193.459L206.677 176.603Z" fill="#949494"/><path d="M149.778 241.019 138.89 241.019 138.89 230.541C138.866 229.62 138.125 228.88 137.204 228.856L130.827 228.856C129.906 228.88 129.165 229.62 129.141 230.541L129.141 247.397 129.141 247.397C129.166 249.216 130.648 250.677 132.467 250.677L149.778 250.677C150.684 250.677 151.418 249.942 151.418 249.037L151.418 242.659C151.418 241.753 150.684 241.019 149.778 241.019Z" fill="#949494"/><path d="M178.933 200.566C183.965 200.567 188.043 204.648 188.042 209.679 188.04 214.711 183.959 218.789 178.927 218.788 173.896 218.786 169.818 214.706 169.819 209.674 169.819 209.599 169.82 209.524 169.822 209.449 169.946 204.506 173.989 200.564 178.933 200.566ZM154.333 185.168C154.309 189.344 157.676 192.749 161.852 192.773 166.028 192.797 169.434 189.431 169.458 185.255 169.481 181.078 166.115 177.673 161.939 177.649 161.864 177.649 161.788 177.649 161.713 177.651 157.615 177.726 154.333 181.069 154.333 185.168ZM135.473 212.82C135.473 216.166 138.186 218.879 141.532 218.879 144.878 218.879 147.591 216.166 147.591 212.82 147.591 209.474 144.878 206.761 141.532 206.761 138.186 206.761 135.473 209.474 135.473 212.82ZM159.982 231.27C159.957 234.641 162.67 237.394 166.041 237.42 169.412 237.445 172.166 234.732 172.191 231.361 172.216 227.99 169.503 225.237 166.132 225.211 166.117 225.211 166.102 225.211 166.087 225.211 162.741 225.186 160.008 227.878 159.982 231.224 159.982 231.239 159.982 231.255 159.982 231.27ZM186.951 236.144C186.926 240.044 190.067 243.226 193.967 243.251 197.866 243.276 201.048 240.135 201.073 236.236 201.098 232.336 197.957 229.154 194.058 229.129 194.042 229.129 194.027 229.129 194.012 229.129 190.163 229.078 187.002 232.158 186.952 236.007 186.951 236.053 186.951 236.098 186.951 236.144Z" fill="url(#fill4)"/></g></g></g><path d="M503.5 170C498.806 170 495 166.194 495 161.5 495 156.806 498.806 153 503.5 153 503.528 153 503.557 153 503.585 153" stroke="#000000" stroke-width="2" stroke-miterlimit="8" fill="none" fill-rule="evenodd"/><path d="M0 0 0.705197 18.9763" stroke="#000000" stroke-width="2" stroke-miterlimit="8" fill="none" fill-rule="evenodd" transform="matrix(6.12323e-17 1 1 -6.12323e-17 475 161)"/><text font-family="Yu Gothic,Yu Gothic_MSFontService,sans-serif" font-weight="400" font-size="13" transform="translate(319.044 152)">デジタルツイン<tspan font-size="13" x="0" y="16">変更イベント</tspan></text><path d="M503.5 274C498.806 274 495 270.418 495 266 495 261.582 498.806 258 503.5 258 503.527 258 503.553 258 503.58 258" stroke="#000000" stroke-width="2" stroke-miterlimit="8" fill="none" fill-rule="evenodd"/><path d="M0 0 0.705197 18.9763" stroke="#000000" stroke-width="2" stroke-miterlimit="8" fill="none" fill-rule="evenodd" transform="matrix(6.12323e-17 1 1 -6.12323e-17 475 265)"/><g clip-path="url(#clip5)"><g clip-path="url(#clip6)"><g clip-path="url(#clip7)"><path d="M18.6517 14.5011C18.6617 14.7422 18.4789 14.9478 18.2383 14.9661L14.6389 14.9661C14.3978 14.9761 14.1922 14.7933 14.1739 14.5528L14.1739 11.8661C14.1639 11.6251 14.3467 11.4195 14.5872 11.4011L18.1867 11.4011C18.4278 11.3911 18.6332 11.5739 18.6517 11.8144L18.6517 14.5011Z" fill="#76BC2D" transform="matrix(1 0 0 1.03226 438 250)"/><path d="M25.0411 17.2222C25.0511 17.4633 24.8684 17.6688 24.6278 17.6872L21.0283 17.6872C20.7872 17.6972 20.5818 17.5145 20.5633 17.2739L20.5633 14.6044C20.5533 14.3634 20.7361 14.1578 20.9767 14.1394L24.5761 14.1394C24.8172 14.1295 25.0227 14.3122 25.0411 14.5528L25.0411 17.2222Z" fill="#76BC2D" transform="matrix(1 0 0 1.03226 438 250)"/><path d="M18.6517 19.9778C18.6617 20.2189 18.4789 20.4243 18.2383 20.4428L14.6389 20.4428C14.3978 20.4528 14.1922 20.27 14.1739 20.0294L14.1739 17.3428C14.1639 17.1017 14.3467 16.8961 14.5872 16.8778L18.1867 16.8778C18.4278 16.8678 18.6332 17.0506 18.6517 17.2911L18.6517 19.9778Z" fill="#76BC2D" transform="matrix(1 0 0 1.03226 438 250)"/><path d="M12.2622 11.78C12.2722 12.0115 12.0971 12.2095 11.8661 12.2278L8.16333 12.2278C7.92835 12.2384 7.72523 12.0653 7.69833 11.8317L7.69833 9.04167C7.70643 8.81387 7.88439 8.62851 8.11167 8.61111L11.7111 8.61111C12.09 8.61111 12.2622 8.80056 12.2622 9.07611Z" fill="#86D633" transform="matrix(1 0 0 1.03226 438 250)"/><path d="M12.2622 17.2222C12.2819 17.4592 12.1058 17.6672 11.8688 17.687 11.8679 17.687 11.867 17.6872 11.8661 17.6872L8.16333 17.6872C7.91623 17.6969 7.70803 17.5045 7.69833 17.2574 7.69787 17.2456 7.69787 17.2339 7.69833 17.2222L7.69833 14.5011C7.69764 14.2667 7.87791 14.0714 8.11167 14.0533L11.7111 14.0533C12.09 14.0533 12.2622 14.2428 12.2622 14.5011Z" fill="#76BC2D" transform="matrix(1 0 0 1.03226 438 250)"/><path d="M12.2622 22.7161C12.2819 22.9531 12.1058 23.1611 11.8688 23.1809 11.8679 23.1809 11.867 23.1811 11.8661 23.1811L8.16333 23.1811C7.92229 23.1911 7.71669 23.0084 7.69833 22.7678L7.69833 19.9778C7.68864 19.7401 7.87338 19.5396 8.11098 19.53 8.1112 19.53 8.11144 19.53 8.11167 19.53L11.7111 19.53C12.09 19.53 12.2622 19.7022 12.2622 19.9778Z" fill="#76BC2D" transform="matrix(1 0 0 1.03226 438 250)"/><path d="M1.84278 2.60056 4.06444 2.60056 4.06444 2.60056 4.06444 8.80056C4.06444 9.07639 3.84083 9.3 3.565 9.3L1.36056 9.3C1.08472 9.3 0.861111 9.07639 0.861111 8.80056L0.861111 3.63389C0.832576 3.09247 1.24834 2.63045 1.78975 2.60192 1.8074 2.60099 1.82509 2.60054 1.84278 2.60056Z" fill="#999999" transform="matrix(1 0 0 1.03226 438 250)"/><path d="M1.84278 2.60056 4.06444 2.60056 4.06444 2.60056 4.06444 8.80056C4.06444 9.07639 3.84083 9.3 3.565 9.3L1.36056 9.3C1.08472 9.3 0.861111 9.07639 0.861111 8.80056L0.861111 3.63389C0.832576 3.09247 1.24834 2.63045 1.78975 2.60192 1.8074 2.60099 1.82509 2.60054 1.84278 2.60056Z" fill="#999999" fill-opacity="0.5" transform="matrix(1 0 0 1.03226 438 250)"/><path d="M26.9356 2.60056 29.1572 2.60056C29.6994 2.60056 30.1389 3.04007 30.1389 3.58222L30.1389 8.74889C30.1389 9.02472 29.9153 9.24833 29.6394 9.24833L27.4178 9.24833C27.1419 9.24833 26.9183 9.02472 26.9183 8.74889L26.9183 2.60056 26.9356 2.60056Z" fill="#999999" transform="matrix(1 0 0 1.03226 438 250)"/><path d="M26.9356 2.60056 29.1572 2.60056C29.6994 2.60056 30.1389 3.04007 30.1389 3.58222L30.1389 8.74889C30.1389 9.02472 29.9153 9.24833 29.6394 9.24833L27.4178 9.24833C27.1419 9.24833 26.9183 9.02472 26.9183 8.74889L26.9183 2.60056 26.9356 2.60056Z" fill="#999999" fill-opacity="0.5" transform="matrix(1 0 0 1.03226 438 250)"/><path d="M14.9144-10.4711 17.0672-10.4711 17.0672-10.4711 17.0672 18.8067 17.0672 18.8067 14.9144 18.8067C14.3723 18.8067 13.9328 18.3672 13.9328 17.825L13.9328-9.50667C13.9422-10.0421 14.3789-10.4712 14.9144-10.4711Z" fill="#949494" transform="matrix(6.12323e-17 1.03226 -1 6.32075e-17 457.668 238.302)"/><path d="M1.36056 21.9756 3.58222 21.9756C3.85805 21.9756 4.08167 22.1991 4.08167 22.475L4.08167 28.675 4.08167 28.675 1.84278 28.675C1.30062 28.675 0.861111 28.2355 0.861111 27.6933L0.861111 22.3889C0.903404 22.1471 1.11512 21.9719 1.36056 21.9756Z" fill="#999999" transform="matrix(1 0 0 1.03226 438 250)"/><path d="M1.36056 21.9756 3.58222 21.9756C3.85805 21.9756 4.08167 22.1991 4.08167 22.475L4.08167 28.675 4.08167 28.675 1.84278 28.675C1.30062 28.675 0.861111 28.2355 0.861111 27.6933L0.861111 22.3889C0.903404 22.1471 1.11512 21.9719 1.36056 21.9756Z" fill="#999999" fill-opacity="0.5" transform="matrix(1 0 0 1.03226 438 250)"/><path d="M27.4178 21.9756 29.6394 21.9756C29.9153 21.9756 30.1389 22.1991 30.1389 22.475L30.1389 27.6417C30.1389 28.1838 29.6994 28.6233 29.1572 28.6233L26.9356 28.6233 26.9356 28.6233 26.9356 22.3889C26.9767 22.1535 27.1789 21.9802 27.4178 21.9756Z" fill="#999999" transform="matrix(1 0 0 1.03226 438 250)"/><path d="M27.4178 21.9756 29.6394 21.9756C29.9153 21.9756 30.1389 22.1991 30.1389 22.475L30.1389 27.6417C30.1389 28.1838 29.6994 28.6233 29.1572 28.6233L26.9356 28.6233 26.9356 28.6233 26.9356 22.3889C26.9767 22.1535 27.1789 21.9802 27.4178 21.9756Z" fill="#999999" fill-opacity="0.5" transform="matrix(1 0 0 1.03226 438 250)"/><path d="M14.9144 12.4689 17.0672 12.4689 17.0672 12.4689 17.0672 41.7467 17.0672 41.7467 14.9144 41.7467C14.3723 41.7467 13.9328 41.3072 13.9328 40.765L13.9328 13.4506C13.9328 12.9084 14.3723 12.4689 14.9144 12.4689Z" fill="#949494" transform="matrix(6.12323e-17 -1.03226 1 6.32075e-17 426.392 293.982)"/></g></g></g><rect x="309.5" y="238.5" width="168" height="57" stroke="#000000" stroke-width="1.33333" stroke-miterlimit="8" fill="none"/><rect x="309.5" y="130.5" width="167" height="58" stroke="#000000" stroke-width="1.33333" stroke-miterlimit="8" fill="none"/><text font-family="Yu Gothic,Yu Gothic_MSFontService,sans-serif" font-weight="400" font-size="13" transform="translate(320.533 263)">Device Job<tspan font-size="13" x="0" y="16">Lifecycle</tspan><tspan font-size="13" x="58.6667" y="16">Events</tspan></text><path d="M0-1 51.0106-1 51.0106 53.1125 50.0106 52.1125 98.0411 52.1125 98.0411 54.1125 49.0106 54.1125 49.0106 0 50.0106 1 0 1ZM90.545 47.5821 100.026 53.1125 90.545 58.643C90.0679 58.9213 89.4556 58.7601 89.1773 58.2831 88.899 57.806 89.0602 57.1937 89.5372 56.9154L97.5372 52.2488 97.5372 53.9763 89.5372 49.3097C89.0602 49.0314 88.899 48.4191 89.1773 47.942 89.4556 47.465 90.0679 47.3038 90.545 47.5821Z" transform="matrix(1 0 0 -1 209 212.113)"/><path d="M209 211 260.755 211 260.755 267.064 259.755 266.064 308.531 266.064 308.531 268.064 258.755 268.064 258.755 212 259.755 213 209 213ZM301.035 261.533 310.516 267.064 301.035 272.594C300.558 272.873 299.945 272.712 299.667 272.234 299.389 271.757 299.55 271.145 300.027 270.867L308.027 266.2 308.027 267.928 300.027 263.261C299.55 262.983 299.389 262.37 299.667 261.893 299.945 261.416 300.558 261.255 301.035 261.533Z"/><g clip-path="url(#clip8)"><g clip-path="url(#clip9)"><g clip-path="url(#clip10)"><path d="M456.652 157.501C456.662 157.742 456.479 157.948 456.238 157.966L452.639 157.966C452.398 157.976 452.192 157.793 452.174 157.553L452.174 154.866C452.164 154.625 452.347 154.419 452.587 154.401L456.187 154.401C456.428 154.391 456.633 154.574 456.652 154.814L456.652 157.501Z" fill="#76BC2D"/><path d="M463.041 160.222C463.051 160.463 462.868 160.669 462.628 160.687L459.028 160.687C458.787 160.697 458.582 160.514 458.563 160.274L458.563 157.604C458.553 157.363 458.736 157.158 458.977 157.139L462.576 157.139C462.817 157.129 463.023 157.312 463.041 157.553L463.041 160.222Z" fill="#76BC2D"/><path d="M456.652 162.978C456.662 163.219 456.479 163.424 456.238 163.443L452.639 163.443C452.398 163.453 452.192 163.27 452.174 163.029L452.174 160.343C452.164 160.102 452.347 159.896 452.587 159.878L456.187 159.878C456.428 159.868 456.633 160.051 456.652 160.291L456.652 162.978Z" fill="#76BC2D"/><path d="M450.262 154.78C450.272 155.012 450.097 155.209 449.866 155.228L446.163 155.228C445.928 155.238 445.725 155.065 445.698 154.832L445.698 152.042C445.706 151.814 445.884 151.629 446.112 151.611L449.711 151.611C450.09 151.611 450.262 151.801 450.262 152.076Z" fill="#86D633"/><path d="M450.262 160.222C450.282 160.459 450.106 160.667 449.869 160.687 449.868 160.687 449.867 160.687 449.866 160.687L446.163 160.687C445.916 160.697 445.708 160.505 445.698 160.257 445.698 160.246 445.698 160.234 445.698 160.222L445.698 157.501C445.698 157.267 445.878 157.071 446.112 157.053L449.711 157.053C450.09 157.053 450.262 157.243 450.262 157.501Z" fill="#76BC2D"/><path d="M450.262 165.716C450.282 165.953 450.106 166.161 449.869 166.181 449.868 166.181 449.867 166.181 449.866 166.181L446.163 166.181C445.922 166.191 445.717 166.008 445.698 165.768L445.698 162.978C445.689 162.74 445.873 162.54 446.111 162.53 446.111 162.53 446.111 162.53 446.112 162.53L449.711 162.53C450.09 162.53 450.262 162.702 450.262 162.978Z" fill="#76BC2D"/><path d="M439.843 145.601 442.064 145.601 442.064 145.601 442.064 151.801C442.064 152.076 441.841 152.3 441.565 152.3L439.361 152.3C439.085 152.3 438.861 152.076 438.861 151.801L438.861 146.634C438.833 146.092 439.248 145.63 439.79 145.602 439.807 145.601 439.825 145.601 439.843 145.601Z" fill="#999999"/><path d="M439.843 145.601 442.064 145.601 442.064 145.601 442.064 151.801C442.064 152.076 441.841 152.3 441.565 152.3L439.361 152.3C439.085 152.3 438.861 152.076 438.861 151.801L438.861 146.634C438.833 146.092 439.248 145.63 439.79 145.602 439.807 145.601 439.825 145.601 439.843 145.601Z" fill="#999999" fill-opacity="0.5"/><path d="M464.936 145.601 467.157 145.601C467.699 145.601 468.139 146.04 468.139 146.582L468.139 151.749C468.139 152.025 467.915 152.248 467.639 152.248L465.418 152.248C465.142 152.248 464.918 152.025 464.918 151.749L464.918 145.601 464.936 145.601Z" fill="#999999"/><path d="M464.936 145.601 467.157 145.601C467.699 145.601 468.139 146.04 468.139 146.582L468.139 151.749C468.139 152.025 467.915 152.248 467.639 152.248L465.418 152.248C465.142 152.248 464.918 152.025 464.918 151.749L464.918 145.601 464.936 145.601Z" fill="#999999" fill-opacity="0.5"/><path d="M468.139 146.582 468.139 148.735 468.139 148.735 438.861 148.735 438.861 148.735 438.861 146.582C438.861 146.04 439.301 145.601 439.843 145.601L467.174 145.601C467.71 145.61 468.139 146.047 468.139 146.582Z" fill="#949494"/><path d="M439.361 164.976 441.582 164.976C441.858 164.976 442.082 165.199 442.082 165.475L442.082 171.675 442.082 171.675 439.843 171.675C439.301 171.675 438.861 171.235 438.861 170.693L438.861 165.389C438.903 165.147 439.115 164.972 439.361 164.976Z" fill="#999999"/><path d="M439.361 164.976 441.582 164.976C441.858 164.976 442.082 165.199 442.082 165.475L442.082 171.675 442.082 171.675 439.843 171.675C439.301 171.675 438.861 171.235 438.861 170.693L438.861 165.389C438.903 165.147 439.115 164.972 439.361 164.976Z" fill="#999999" fill-opacity="0.5"/><path d="M465.418 164.976 467.639 164.976C467.915 164.976 468.139 165.199 468.139 165.475L468.139 170.642C468.139 171.184 467.699 171.623 467.157 171.623L464.936 171.623 464.936 171.623 464.936 165.389C464.977 165.153 465.179 164.98 465.418 164.976Z" fill="#999999"/><path d="M465.418 164.976 467.639 164.976C467.915 164.976 468.139 165.199 468.139 165.475L468.139 170.642C468.139 171.184 467.699 171.623 467.157 171.623L464.936 171.623 464.936 171.623 464.936 165.389C464.977 165.153 465.179 164.98 465.418 164.976Z" fill="#999999" fill-opacity="0.5"/><path d="M438.861 170.693 438.861 168.541 438.861 168.541 468.139 168.541 468.139 168.541 468.139 170.693C468.139 171.235 467.699 171.675 467.157 171.675L439.843 171.675C439.301 171.675 438.861 171.235 438.861 170.693Z" fill="#949494"/></g></g></g></g></svg>