<svg width="607" height="665" xmlns="http://www.w3.org/2000/svg" xmlns:xlink="http://www.w3.org/1999/xlink" overflow="hidden"><defs><clipPath id="clip0"><rect x="34" y="30" width="607" height="665"/></clipPath></defs><g clip-path="url(#clip0)" transform="translate(-34 -30)"><rect x="35.5001" y="32.5001" width="605" height="662" stroke="#D9D9D9" stroke-width="1.33333" stroke-miterlimit="8" fill="none"/><rect x="362.5" y="148.5" width="76" height="55" stroke="#000000" stroke-width="1.33333" stroke-miterlimit="8" fill="#FFFFFF"/><text font-family="Yu Gothic,Yu Gothic_MSFontService,sans-serif" font-weight="400" font-size="11" transform="translate(383.437 166)">O_<tspan font-size="11" x="13.1667" y="0">OBJ</tspan><tspan font-size="11" x="-12" y="13">Name</tspan><tspan font-size="11" x="-12" y="25">Key Letter</tspan></text><rect x="547.5" y="148.5" width="75" height="55" stroke="#000000" stroke-width="1.33333" stroke-miterlimit="8" fill="#FFFFFF"/><text font-family="Yu Gothic,Yu Gothic_MSFontService,sans-serif" font-weight="400" font-size="11" transform="translate(568.019 173)">R_REL<tspan font-size="11" x="-11.9133" y="13">Num</tspan><tspan font-size="11" x="11.42" y="13">b</tspan></text><path d="M438.5 176.5 547.447 176.5" stroke="#000000" stroke-width="0.666667" stroke-miterlimit="8" fill="none" fill-rule="evenodd"/><text font-family="Yu Gothic,Yu Gothic_MSFontService,sans-serif" font-weight="400" font-size="11" transform="translate(476.287 163)">R201<tspan font-size="11" x="47.0172" y="27">1..*</tspan><tspan font-size="11" x="-34.3593" y="28">*</tspan></text><rect x="502.5" y="238.5" width="76" height="56" stroke="#000000" stroke-width="1.33333" stroke-miterlimit="8" fill="#FFFFFF"/><text font-family="Yu Gothic,Yu Gothic_MSFontService,sans-serif" font-weight="400" font-size="11" transform="translate(524.809 270)">R_OIR</text><path d="M540.555 239.003 489.5 178.5" stroke="#000000" stroke-width="0.666667" stroke-miterlimit="8" stroke-dasharray="0.666667 0.666667" fill="none" fill-rule="evenodd"/><rect x="122.5" y="148.5" width="76" height="55" stroke="#000000" stroke-width="1.33333" stroke-miterlimit="8" fill="#FFFFFF"/><text font-family="Yu Gothic,Yu Gothic_MSFontService,sans-serif" font-weight="400" font-size="11" transform="translate(139.5 173)">O<tspan font-size="11" x="7.83333" y="0">_ATTR</tspan><tspan font-size="11" x="-7.91335" y="13">Nam</tspan><tspan font-size="11" x="15.2533" y="13">e</tspan></text><rect x="74.5001" y="251.5" width="76" height="56" stroke="#000000" stroke-width="1.33333" stroke-miterlimit="8" fill="#FFFFFF"/><text font-family="Yu Gothic,Yu Gothic_MSFontService,sans-serif" font-weight="400" font-size="11" transform="translate(87.9312 282)">O<tspan font-size="11" x="7.83333" y="0">_BATTR</tspan></text><path d="M112.167 250.802 112.167 226.818 160.5 226.818 160.167 227.151 160.167 210.167 160.833 210.167 160.833 227.484 112.5 227.484 112.833 227.151 112.833 250.802ZM156.5 211.5 160.5 203.5 164.5 211.5Z"/><rect x="195.5" y="251.5" width="76" height="56" stroke="#000000" stroke-width="1.33333" stroke-miterlimit="8" fill="#FFFFFF"/><text font-family="Yu Gothic,Yu Gothic_MSFontService,sans-serif" font-weight="400" font-size="11" transform="translate(208.846 282)">O<tspan font-size="11" x="7.83334" y="0">_RATTR</tspan></text><path d="M0-0.333333 23.9843-0.333333 23.9843 72.9144 23.651 72.5811 40.6353 72.5811 40.6353 73.2478 23.3176 73.2478 23.3176 0 23.651 0.333333 0 0.333333ZM39.3019 68.9144 47.3019 72.9144 39.3019 76.9144Z" transform="matrix(-1.83697e-16 -1 -1 1.83697e-16 233.414 250.802)"/><rect x="361.5" y="251.5" width="76" height="56" stroke="#000000" stroke-width="1.33333" stroke-miterlimit="8" fill="#FFFFFF"/><text font-family="Yu Gothic,Yu Gothic_MSFontService,sans-serif" font-weight="400" font-size="11" transform="translate(387.106 276)">O<tspan font-size="11" x="7.83334" y="0">_ID</tspan><tspan font-size="11" x="-16.08" y="13">Oid_I</tspan><tspan font-size="11" x="9.25333" y="13">D</tspan></text><path d="M0 0 0.411024 47.3019" stroke="#000000" stroke-width="0.666667" stroke-miterlimit="8" fill="none" fill-rule="evenodd" transform="matrix(-1 0 0 1 399.911 203.5)"/><text font-family="Yu Gothic,Yu Gothic_MSFontService,sans-serif" font-weight="400" font-size="11" transform="translate(371.325 229)">R104<tspan font-size="11" x="35.7637" y="18">*</tspan><tspan font-size="11" x="35.7637" y="-11">1</tspan></text><path d="M198.5 176.5 309.692 176.5 309.692 279.611 362.217 279.611" stroke="#000000" stroke-width="0.666667" stroke-miterlimit="8" fill="none" fill-rule="evenodd"/><text font-family="Yu Gothic,Yu Gothic_MSFontService,sans-serif" font-weight="400" font-size="11" transform="translate(275.108 170)">R105<tspan font-size="11" x="-69.7305" y="4">*</tspan><tspan font-size="11" x="73.2127" y="104">*</tspan></text><path d="M161.5 148.833 161.5 124.833 401.35 124.833 401.35 147.5" stroke="#000000" stroke-width="0.666667" stroke-miterlimit="8" fill="none" fill-rule="evenodd"/><text font-family="Yu Gothic,Yu Gothic_MSFontService,sans-serif" font-weight="400" font-size="11" transform="translate(276.39 117)">R102<tspan font-size="11" x="-122.999" y="28">*</tspan><tspan font-size="11" x="129.689" y="23">1</tspan></text><rect x="289.5" y="333.5" width="76" height="56" stroke="#000000" stroke-width="1.33333" stroke-miterlimit="8" fill="#FFFFFF"/><text font-family="Yu Gothic,Yu Gothic_MSFontService,sans-serif" font-weight="400" font-size="11" transform="translate(307.539 365)">O<tspan font-size="11" x="7.83334" y="0">_OIDA</tspan></text><path d="M327.5 333.441 327.5 278.5" stroke="#000000" stroke-width="0.666667" stroke-miterlimit="8" stroke-dasharray="0.666667 0.666667" fill="none" fill-rule="evenodd"/><rect x="55.5001" y="435.5" width="76" height="56" stroke="#000000" stroke-width="1.33333" stroke-miterlimit="8" fill="#FFFFFF"/><text font-family="Yu Gothic,Yu Gothic_MSFontService,sans-serif" font-weight="400" font-size="11" transform="translate(65.0008 466)">O<tspan font-size="11" x="7.83334" y="0">_DBATTR</tspan></text><path d="M93.1668 435.641 93.1668 414.593 112.43 414.593 112.097 414.926 112.097 314.167 112.764 314.167 112.764 415.259 93.5001 415.259 93.8334 414.926 93.8334 435.641ZM108.43 315.5 112.43 307.5 116.43 315.5Z"/><rect x="141.5" y="434.5" width="76" height="56" stroke="#000000" stroke-width="1.33333" stroke-miterlimit="8" fill="#FFFFFF"/><text font-family="Yu Gothic,Yu Gothic_MSFontService,sans-serif" font-weight="400" font-size="11" transform="translate(150.944 466)">O<tspan font-size="11" x="7.83333" y="0">_NBATTR</tspan></text><path d="M0-0.333333 20.1061-0.333333 20.1061 67.013 19.7728 66.6797 121.138 66.6797 121.138 67.3464 19.4394 67.3464 19.4394 0 19.7728 0.333333 0 0.333333ZM119.805 63.013 127.805 67.013 119.805 71.013Z" transform="matrix(-1.83697e-16 -1 -1 1.83697e-16 179.513 435.305)"/><text font-family="Yu Gothic,Yu Gothic_MSFontService,sans-serif" font-weight="400" font-size="11" transform="translate(132.348 220)">R106<tspan font-size="11" x="-48.7611" y="108">R107</tspan></text><rect x="399.5" y="386.5" width="76" height="55" stroke="#000000" stroke-width="1.33333" stroke-miterlimit="8" fill="#FFFFFF"/><text font-family="Yu Gothic,Yu Gothic_MSFontService,sans-serif" font-weight="400" font-size="11" transform="translate(420.064 417)">R_RTO</text><path d="M0 0 24.6784 0 24.6784 72.1641" stroke="#000000" stroke-width="0.666667" stroke-miterlimit="8" fill="none" fill-rule="evenodd" transform="matrix(1.83697e-16 1 1 -1.83697e-16 327.5 389.5)"/><path d="M0 0 39.5655 0 39.5655 37.8609 79.131 37.8609" stroke="#000000" stroke-width="0.666667" stroke-miterlimit="8" fill="none" fill-rule="evenodd" transform="matrix(1.83697e-16 1 1 -1.83697e-16 399.5 307.5)"/><text font-family="Yu Gothic,Yu Gothic_MSFontService,sans-serif" font-weight="400" font-size="11" transform="translate(295.126 416)">R110<tspan font-size="11" x="116.012" y="-73">R109</tspan><tspan font-size="11" x="110.954" y="-97">0..1</tspan><tspan font-size="11" x="146.802" y="-34">*</tspan><tspan font-size="11" x="38.0395" y="-14">*</tspan><tspan font-size="11" x="92.8825" y="11">*</tspan></text><rect x="352.5" y="477.5" width="75" height="55" stroke="#000000" stroke-width="1.33333" stroke-miterlimit="8" fill="#FFFFFF"/><text font-family="Yu Gothic,Yu Gothic_MSFontService,sans-serif" font-weight="400" font-size="11" transform="translate(367.015 508)">O<tspan font-size="11" x="7.83331" y="0">_RTIDA</tspan></text><path d="M389.903 477.528 361.5 414.5" stroke="#000000" stroke-width="0.666667" stroke-miterlimit="8" stroke-dasharray="0.666667 0.666667" fill="none" fill-rule="evenodd"/><rect x="503.5" y="477.5" width="75" height="55" stroke="#000000" stroke-width="1.33333" stroke-miterlimit="8" fill="#FFFFFF"/><text font-family="Yu Gothic,Yu Gothic_MSFontService,sans-serif" font-weight="400" font-size="11" transform="translate(522.887 508)">R_RGO</text><path d="M427.5 505.5 502.65 505.5" stroke="#000000" stroke-width="0.666667" stroke-miterlimit="8" fill="none" fill-rule="evenodd"/><text font-family="Yu Gothic,Yu Gothic_MSFontService,sans-serif" font-weight="400" font-size="11" transform="translate(452.194 497)">R111<tspan font-size="11" x="-21.0428" y="7">*</tspan><tspan font-size="11" x="41.157" y="22">*</tspan></text><rect x="429.5" y="568.5" width="76" height="56" stroke="#000000" stroke-width="1.33333" stroke-miterlimit="8" fill="#FFFFFF"/><text font-family="Yu Gothic,Yu Gothic_MSFontService,sans-serif" font-weight="400" font-size="11" transform="translate(450.456 599)">O<tspan font-size="11" x="7.83334" y="0">_REF</tspan></text><path d="M0 0 289.3 0 289.3 196.582" stroke="#000000" stroke-width="0.666667" stroke-miterlimit="8" fill="none" fill-rule="evenodd" transform="matrix(1.83697e-16 1 1 -1.83697e-16 233.5 307.5)"/><text font-family="Yu Gothic,Yu Gothic_MSFontService,sans-serif" font-weight="400" font-size="11" transform="translate(290.039 587)">R108<tspan font-size="11" x="128.37" y="23">*</tspan><tspan font-size="11" x="-51.2001" y="-266">1</tspan></text><path d="M467.712 568.662 465.5 505.5" stroke="#000000" stroke-width="0.666667" stroke-miterlimit="8" stroke-dasharray="0.666667 0.666667" fill="none" fill-rule="evenodd"/><path d="M540.495 476.836 540.179 301.167 540.845 301.166 541.161 476.834ZM536.514 302.507 540.5 294.5 544.514 302.493Z"/><text font-family="Yu Gothic,Yu Gothic_MSFontService,sans-serif" font-weight="400" font-size="11" transform="translate(549.167 385)">R203</text><rect x="55.5001" y="57.5001" width="76" height="56" stroke="#000000" stroke-width="1.33333" stroke-miterlimit="8" fill="#FFFFFF"/><text font-family="Yu Gothic,Yu Gothic_MSFontService,sans-serif" font-weight="400" font-size="11" transform="translate(79.5699 82)">S_DT<tspan font-size="11" x="-14.9133" y="13">Nam</tspan><tspan font-size="11" x="8.25333" y="13">e</tspan></text><path d="M0 0 62.7108 0 62.7108 29.0695" stroke="#000000" stroke-width="0.666667" stroke-miterlimit="8" fill="none" fill-rule="evenodd" transform="matrix(1.83697e-16 1 1 -1.83697e-16 93.5001 113.5)"/><text font-family="Yu Gothic,Yu Gothic_MSFontService,sans-serif" font-weight="400" font-size="11" transform="translate(107.691 190)">*<tspan font-size="11" x="-10.1012" y="-63">1</tspan><tspan font-size="11" x="-45.2659" y="-36">R114</tspan></text></g></svg>