<svg width="607" height="515" xmlns="http://www.w3.org/2000/svg" xmlns:xlink="http://www.w3.org/1999/xlink" overflow="hidden"><defs><clipPath id="clip0"><rect x="34" y="30" width="607" height="515"/></clipPath></defs><g clip-path="url(#clip0)" transform="translate(-34 -30)"><rect x="35.5001" y="32.5001" width="605" height="511" stroke="#D9D9D9" stroke-width="1.33333" stroke-miterlimit="8" fill="none"/><rect x="124.5" y="199.5" width="96" height="58" stroke="#000000" stroke-width="1.33333" stroke-miterlimit="8" fill="#FFFFFF"/><text font-family="Yu Gothic,Yu Gothic_MSFontService,sans-serif" font-weight="400" font-size="11" transform="translate(141.421 232)">Subscription</text><path d="M220.5 228.5 282.908 228.5" stroke="#000000" stroke-width="0.666667" stroke-miterlimit="8" fill="none" fill-rule="evenodd"/><text font-family="Yu Gothic,Yu Gothic_MSFontService,sans-serif" font-weight="400" font-size="11" transform="translate(270.764 228)">*</text><rect x="283.5" y="199.5" width="96" height="58" stroke="#000000" stroke-width="1.33333" stroke-miterlimit="8" fill="#FFFFFF"/><text font-family="Yu Gothic,Yu Gothic_MSFontService,sans-serif" font-weight="400" font-size="11" transform="translate(311.008 225)">IoT<tspan font-size="11" x="18.8333" y="0">Hub</tspan><tspan font-size="11" x="-18.7467" y="13">* Name</tspan><tspan font-size="11" x="-82.8873" y="18">1</tspan></text><rect x="283.5" y="97.5001" width="96" height="58" stroke="#000000" stroke-width="1.33333" stroke-miterlimit="8" fill="#FFFFFF"/><text font-family="Yu Gothic,Yu Gothic_MSFontService,sans-serif" font-weight="400" font-size="11" transform="translate(307.969 123)">Resource <tspan font-size="11" x="8.16666" y="13">Group</tspan></text><path d="M172.5 199.747 172.5 126.5 283.298 126.5" stroke="#000000" stroke-width="0.666667" stroke-miterlimit="8" fill="none" fill-rule="evenodd"/><text font-family="Yu Gothic,Yu Gothic_MSFontService,sans-serif" font-weight="400" font-size="11" transform="translate(161.358 191)">1<tspan font-size="11" x="109.738" y="-69">*</tspan></text><path d="M0 0 0.390131 44.358" stroke="#000000" stroke-width="0.666667" stroke-miterlimit="8" fill="none" fill-rule="evenodd" transform="matrix(1 0 0 -1 331.5 199.858)"/><text font-family="Yu Gothic,Yu Gothic_MSFontService,sans-serif" font-weight="400" font-size="11" transform="translate(322.795 166)">1<tspan font-size="11" x="10.769" y="153">*</tspan></text><rect x="275.5" y="322.5" width="110" height="72" stroke="#000000" stroke-width="1.33333" stroke-miterlimit="8" fill="#FFFFFF"/><text font-family="Yu Gothic,Yu Gothic_MSFontService,sans-serif" font-weight="400" font-size="11" transform="translate(285.432 349)">Connected Device<tspan font-size="11" x="-0.579987" y="13">* </tspan>Device ID<tspan font-size="11" x="-0.579987" y="25">* IoT Hub Name</tspan></text><path d="M0 0 0.390131 64.9138" stroke="#000000" stroke-width="0.666667" stroke-miterlimit="8" fill="none" fill-rule="evenodd" transform="matrix(1 0 0 -1 330.5 322.414)"/><rect x="206.5" y="455.5" width="96" height="58" stroke="#000000" stroke-width="1.33333" stroke-miterlimit="8" fill="#FFFFFF"/><text font-family="Yu Gothic,Yu Gothic_MSFontService,sans-serif" font-weight="400" font-size="11" transform="translate(227.594 487)">IoT Device</text><rect x="348.5" y="455.5" width="96" height="58" stroke="#000000" stroke-width="1.33333" stroke-miterlimit="8" fill="#FFFFFF"/><text font-family="Yu Gothic,Yu Gothic_MSFontService,sans-serif" font-weight="400" font-size="11" transform="translate(374.012 487)">IoT Edge<tspan font-size="11" x="-50.8271" y="-216">1</tspan><tspan font-size="11" x="-33.3602" y="-290">*</tspan></text><rect x="451.5" y="167.5" width="96" height="58" stroke="#000000" stroke-width="1.33333" stroke-miterlimit="8" fill="#FFFFFF"/><text font-family="Yu Gothic,Yu Gothic_MSFontService,sans-serif" font-weight="400" font-size="11" transform="translate(482.097 187)">Device <tspan font-size="11" x="-11.2467" y="13">Connection </tspan><tspan font-size="11" x="-3.33331" y="25">Security</tspan></text><rect x="451.5" y="254.5" width="96" height="57" stroke="#000000" stroke-width="1.33333" stroke-miterlimit="8" fill="#FFFFFF"/><text font-family="Yu Gothic,Yu Gothic_MSFontService,sans-serif" font-weight="400" font-size="11" transform="translate(462.6 280)">Connection for <tspan font-size="11" x="19.5" y="13">Device</tspan></text><path d="M254.167 454.91 254.167 424.372 331.011 424.372 330.678 424.705 330.678 401.167 331.344 401.167 331.344 425.039 254.5 425.039 254.833 424.705 254.833 454.91ZM327.011 402.5 331.011 394.5 335.011 402.5Z"/><path d="M0-0.333333 30.5384-0.333333 30.5384 65.4905 30.2051 65.1572 53.7434 65.1572 53.7434 65.8238 29.8717 65.8238 29.8717 0 30.2051 0.333333 0 0.333333ZM52.4101 61.4905 60.4101 65.4905 52.4101 69.4905Z" transform="matrix(-1.83697e-16 -1 -1 1.83697e-16 395.991 454.91)"/><path d="M499.5 225.5 499.5 254.489" stroke="#000000" stroke-width="0.666667" stroke-miterlimit="8" fill="none" fill-rule="evenodd"/><path d="M0 0 120.578 3.47234" stroke="#000000" stroke-width="0.666667" stroke-miterlimit="8" stroke-dasharray="0.666667 0.666667" fill="none" fill-rule="evenodd" transform="matrix(1 0 0 -1 330.5 286.972)"/><rect x="512.5" y="78.5001" width="96" height="58" stroke="#000000" stroke-width="1.33333" stroke-miterlimit="8" fill="#FFFFFF"/><text font-family="Yu Gothic,Yu Gothic_MSFontService,sans-serif" font-weight="400" font-size="11" transform="translate(525.745 111)">X509<tspan font-size="11" x="27.8333" y="0">Securit</tspan><tspan font-size="11" x="62.6667" y="0">y</tspan></text><rect x="392.5" y="78.5001" width="96" height="58" stroke="#000000" stroke-width="1.33333" stroke-miterlimit="8" fill="#FFFFFF"/><text font-family="Yu Gothic,Yu Gothic_MSFontService,sans-serif" font-weight="400" font-size="11" transform="translate(408.629 111)">SAS Securit<tspan font-size="11" x="58.1667" y="0">y</tspan></text><path d="M560.729 136.5 560.729 152.226 499.5 152.226 499.833 151.893 499.833 160.619 499.167 160.619 499.167 151.56 560.395 151.56 560.062 151.893 560.062 136.5ZM503.5 159.286 499.5 167.286 495.5 159.286Z"/><path d="M0-0.333333 15.7261-0.333333 15.7261 58.4714 15.3928 58.1381 24.1189 58.1381 24.1189 58.8047 15.0595 58.8047 15.0595 0 15.3928 0.333333 0 0.333333ZM22.7856 54.4714 30.7856 58.4714 22.7856 62.4714Z" transform="matrix(1.83697e-16 1 1 -1.83697e-16 440.5 136.5)"/><rect x="74.5001" y="329.5" width="121" height="58" stroke="#000000" stroke-width="1.33333" stroke-miterlimit="8" fill="#FFFFFF"/><text font-family="Yu Gothic,Yu Gothic_MSFontService,sans-serif" font-weight="400" font-size="11" transform="translate(101.224 349)">Device<tspan font-size="11" x="36.5" y="0">Twin</tspan>s<tspan font-size="11" x="-17.58" y="13">Reported Properties</tspan><tspan font-size="11" x="-17.58" y="25">Desired</tspan><tspan font-size="11" x="23.7533" y="25">Propertie</tspan><tspan font-size="11" x="69.2533" y="25">s</tspan></text><path d="M195.5 358.5 276.199 358.536" stroke="#000000" stroke-width="0.666667" stroke-miterlimit="8" fill="none" fill-rule="evenodd"/><text font-family="Yu Gothic,Yu Gothic_MSFontService,sans-serif" font-weight="400" font-size="11" transform="translate(210.227 370)">1<tspan font-size="11" x="50.3607" y="0">1</tspan><tspan font-size="11" x="293.178" y="-136">1</tspan><tspan font-size="11" x="-0.644409" y="-248">R1</tspan><tspan font-size="11" x="278.151" y="-124">1</tspan><tspan font-size="11" x="33.024" y="-129">R2</tspan><tspan font-size="11" x="102.644" y="-185">R3</tspan><tspan font-size="11" x="91.7427" y="-76">R4</tspan></text></g></svg>