<svg width="607" height="305" xmlns="http://www.w3.org/2000/svg" xmlns:xlink="http://www.w3.org/1999/xlink" overflow="hidden"><defs><clipPath id="clip0"><rect x="34" y="48" width="607" height="305"/></clipPath><clipPath id="clip1"><rect x="315" y="174" width="45" height="45"/></clipPath><clipPath id="clip2"><rect x="315" y="174" width="45" height="45"/></clipPath><clipPath id="clip3"><rect x="315" y="174" width="45" height="45"/></clipPath><linearGradient x1="338.152" y1="173.09" x2="330.545" y2="224.13" gradientUnits="userSpaceOnUse" spreadMethod="pad" id="fill4"><stop offset="0" stop-color="#32BEDD"/><stop offset="1" stop-color="#198AB3"/></linearGradient><linearGradient x1="341.995" y1="192.47" x2="351.103" y2="221.665" gradientUnits="userSpaceOnUse" spreadMethod="pad" id="fill5"><stop offset="0" stop-color="#50E6FF"/><stop offset="0.997" stop-color="#32BEDD"/><stop offset="1" stop-color="#32BEDD"/></linearGradient><linearGradient x1="314.58" y1="184.285" x2="346.43" y2="201.238" gradientUnits="userSpaceOnUse" spreadMethod="pad" id="fill6"><stop offset="0" stop-color="#FFFFFF"/><stop offset="1" stop-color="#9CEBFF"/></linearGradient><clipPath id="clip7"><rect x="130" y="174" width="46" height="46"/></clipPath><clipPath id="clip8"><rect x="130" y="174" width="46" height="46"/></clipPath><clipPath id="clip9"><rect x="130" y="174" width="46" height="46"/></clipPath><linearGradient x1="153.32" y1="217.079" x2="153.32" y2="176.296" gradientUnits="userSpaceOnUse" spreadMethod="pad" id="fill10"><stop offset="0" stop-color="#FEA11B"/><stop offset="0.284" stop-color="#FEA51A"/><stop offset="0.547" stop-color="#FEB018"/><stop offset="0.8" stop-color="#FFC314"/><stop offset="1" stop-color="#FFD70F"/></linearGradient><clipPath id="clip11"><rect x="517" y="174" width="46" height="46"/></clipPath><clipPath id="clip12"><rect x="517" y="174" width="46" height="46"/></clipPath><clipPath id="clip13"><rect x="517" y="174" width="46" height="46"/></clipPath><linearGradient x1="540.32" y1="217.079" x2="540.32" y2="176.296" gradientUnits="userSpaceOnUse" spreadMethod="pad" id="fill14"><stop offset="0" stop-color="#FEA11B"/><stop offset="0.284" stop-color="#FEA51A"/><stop offset="0.547" stop-color="#FEB018"/><stop offset="0.8" stop-color="#FFC314"/><stop offset="1" stop-color="#FFD70F"/></linearGradient><clipPath id="clip15"><rect x="392" y="174" width="45" height="45"/></clipPath><clipPath id="clip16"><rect x="392" y="174" width="45" height="45"/></clipPath><clipPath id="clip17"><rect x="392" y="174" width="45" height="45"/></clipPath><linearGradient x1="411.85" y1="193.25" x2="411.85" y2="183.375" gradientUnits="userSpaceOnUse" spreadMethod="pad" id="fill18"><stop offset="0" stop-color="#5E9624"/><stop offset="1" stop-color="#76BC2D"/></linearGradient><linearGradient x1="411.85" y1="209.65" x2="411.85" y2="199.775" gradientUnits="userSpaceOnUse" spreadMethod="pad" id="fill19"><stop offset="0" stop-color="#5E9624"/><stop offset="1" stop-color="#76BC2D"/></linearGradient></defs><g clip-path="url(#clip0)" transform="translate(-34 -48)"><rect x="35.5001" y="49.5001" width="605" height="303" stroke="#D9D9D9" stroke-width="1.33333" stroke-miterlimit="8" fill="none"/><g clip-path="url(#clip1)"><g clip-path="url(#clip2)"><g clip-path="url(#clip3)"><path d="M351.07 182.375 338.082 174.875C336.054 173.705 333.556 173.705 331.527 174.875L318.54 182.375C316.513 183.547 315.264 185.711 315.263 188.053L315.263 203.053C315.263 205.395 316.512 207.56 318.54 208.732L331.54 216.232C333.568 217.402 336.067 217.402 338.095 216.232L351.095 208.732C353.123 207.56 354.372 205.395 354.372 203.052L354.372 188.053C354.366 185.706 353.107 183.541 351.07 182.375Z" fill="url(#fill4)"/><path d="M357.105 193.357 347.973 188.085C346.342 187.145 344.335 187.145 342.705 188.085L333.575 193.357C331.944 194.296 330.939 196.036 330.943 197.917L330.943 208.462C330.942 210.344 331.946 212.082 333.575 213.022L342.705 218.295C344.335 219.235 346.342 219.235 347.973 218.295L357.105 213.022C358.738 212.084 359.747 210.346 359.75 208.462L359.75 197.917C359.747 196.034 358.739 194.295 357.105 193.357Z" fill="url(#fill5)"/><path d="M333.945 181.408 336.575 179.952 347.85 203.32 346.935 204.32 322.087 204.32 322.367 201.327 343.32 201.327 333.945 181.408Z" fill="url(#fill6)"/><path d="M325.58 202.962C325.58 205.034 323.901 206.712 321.83 206.712 319.759 206.712 318.08 205.034 318.08 202.962 318.08 200.891 319.759 199.212 321.83 199.212 323.901 199.212 325.58 200.891 325.58 202.962Z" fill="#FFFFFF"/><path d="M351.2 203.19C351.2 206.426 348.576 209.05 345.34 209.05 342.104 209.05 339.48 206.426 339.48 203.19 339.48 199.954 342.104 197.33 345.34 197.33 348.576 197.33 351.2 199.954 351.2 203.19Z" fill="#FFFFFF"/><path d="M338.853 180.395C338.853 182.466 337.174 184.145 335.103 184.145 333.031 184.145 331.353 182.466 331.353 180.395 331.353 178.324 333.031 176.645 335.103 176.645 337.174 176.645 338.853 178.324 338.853 180.395Z" fill="#FFFFFF"/></g></g></g><rect x="258.5" y="120.5" width="159" height="153" stroke="#2F528F" stroke-width="1.33333" stroke-miterlimit="8" fill="none"/><g clip-path="url(#clip7)"><g clip-path="url(#clip8)"><g clip-path="url(#clip9)"><path d="M144.159 207.491 142.661 208.993C142.395 209.26 141.963 209.26 141.696 208.994L130.571 197.9C130.038 197.369 130.037 196.506 130.568 195.974L132.073 194.464 132.073 194.464 144.165 206.522C144.432 206.788 144.432 207.22 144.166 207.487Z" fill="#50E6FF"/><path d="M142.429 185.001 143.936 186.505C144.203 186.771 144.203 187.203 143.937 187.469L132.058 199.382 132.058 199.382 130.549 197.877C130.016 197.346 130.015 196.484 130.546 195.951L141.467 184.999C141.734 184.736 142.163 184.737 142.429 185.001Z" fill="#1490DF"/><path d="M173.929 194.475 175.432 195.982C175.963 196.515 175.962 197.377 175.429 197.909L164.304 209.003C164.037 209.269 163.605 209.268 163.339 209.001L161.843 207.501C161.577 207.234 161.578 206.802 161.845 206.536L173.934 194.48 173.934 194.48Z" fill="#50E6FF"/><path d="M175.443 197.871 173.935 199.374 173.935 199.374 162.056 187.461C161.79 187.194 161.791 186.762 162.058 186.496L163.565 184.993C163.832 184.727 164.264 184.728 164.53 184.994L175.451 195.946C175.982 196.479 175.981 197.341 175.448 197.872Z" fill="#1490DF"/><path d="M151.617 199.3 142.446 199.3C142.178 199.31 141.951 199.105 141.934 198.837 141.935 198.771 141.95 198.705 141.98 198.646L152.977 176.888C153.072 176.716 153.256 176.611 153.452 176.617L164.301 176.617C164.568 176.607 164.795 176.812 164.812 177.079 164.811 177.172 164.779 177.262 164.722 177.335L151.809 194.358 164.403 194.358C164.671 194.347 164.898 194.553 164.914 194.82 164.912 194.937 164.864 195.049 164.781 195.132L143.854 216.903C143.657 217.02 142.259 218.18 142.944 216.42L142.944 216.42Z" fill="url(#fill10)"/></g></g></g><g clip-path="url(#clip11)"><g clip-path="url(#clip12)"><g clip-path="url(#clip13)"><path d="M531.159 207.491 529.661 208.993C529.395 209.26 528.963 209.26 528.696 208.994L517.571 197.9C517.038 197.369 517.037 196.506 517.568 195.974L519.073 194.464 519.073 194.464 531.165 206.522C531.432 206.788 531.432 207.22 531.166 207.487Z" fill="#50E6FF"/><path d="M529.429 185.001 530.936 186.505C531.203 186.771 531.203 187.203 530.937 187.469L519.058 199.382 519.058 199.382 517.549 197.877C517.016 197.346 517.015 196.484 517.546 195.951L528.467 184.999C528.734 184.736 529.163 184.737 529.429 185.001Z" fill="#1490DF"/><path d="M560.929 194.475 562.432 195.982C562.963 196.515 562.962 197.377 562.43 197.909L551.304 209.003C551.037 209.269 550.605 209.268 550.339 209.001L548.843 207.501C548.577 207.234 548.578 206.802 548.845 206.536L560.935 194.48 560.935 194.48Z" fill="#50E6FF"/><path d="M562.443 197.871 560.935 199.374 560.935 199.374 549.056 187.461C548.79 187.194 548.791 186.762 549.058 186.496L550.565 184.993C550.832 184.727 551.264 184.728 551.53 184.994L562.451 195.946C562.982 196.479 562.981 197.341 562.448 197.872Z" fill="#1490DF"/><path d="M538.617 199.3 529.446 199.3C529.178 199.31 528.951 199.105 528.934 198.837 528.935 198.771 528.95 198.705 528.98 198.646L539.977 176.888C540.072 176.716 540.256 176.611 540.452 176.617L551.301 176.617C551.568 176.607 551.795 176.812 551.812 177.079 551.811 177.172 551.779 177.262 551.722 177.335L538.809 194.358 551.403 194.358C551.671 194.347 551.898 194.553 551.914 194.82 551.912 194.937 551.864 195.049 551.781 195.132L530.854 216.903C530.657 217.02 529.259 218.18 529.944 216.42L529.944 216.42Z" fill="url(#fill14)"/></g></g></g><path d="M188.5 191.5 189.25 191.5 189.25 203.5 188.5 203.5ZM190 191.5 191.5 191.5 191.5 203.5 190 203.5ZM192.25 191.5 239.5 191.5 239.5 185.5 251.5 197.5 239.5 209.5 239.5 203.5 192.25 203.5Z" stroke="#2F528F" stroke-width="1.33333" stroke-miterlimit="8" fill="#4472C4" fill-rule="evenodd"/><text font-family="Yu Gothic,Yu Gothic_MSFontService,sans-serif" font-weight="400" font-size="16" transform="translate(181.76 156)">Publish <tspan font-size="16" x="0" y="19">Telemetry</tspan></text><path d="M444.5 190.5 445.25 190.5 445.25 202.5 444.5 202.5ZM446 190.5 447.5 190.5 447.5 202.5 446 202.5ZM448.25 190.5 496.5 190.5 496.5 184.5 508.5 196.5 496.5 208.5 496.5 202.5 448.25 202.5Z" stroke="#2F528F" stroke-width="1.33333" stroke-miterlimit="8" fill="#4472C4" fill-rule="evenodd"/><text font-family="Yu Gothic,Yu Gothic_MSFontService,sans-serif" font-weight="400" font-size="16" transform="translate(446.823 156)">Telemetry <tspan font-size="16" x="0" y="19">Notification</tspan></text><g clip-path="url(#clip15)"><g clip-path="url(#clip16)"><g clip-path="url(#clip17)"><path d="M394.65 177.55 397.875 177.55 397.875 177.55 397.875 186.5C397.875 186.9 397.55 187.225 397.15 187.225L393.925 187.225C393.525 187.225 393.2 186.9 393.2 186.5L393.2 179C393.186 178.213 393.813 177.564 394.6 177.55 394.616 177.55 394.633 177.55 394.65 177.55Z" fill="#A3A3A3"/><path d="M394.65 177.55 397.875 177.55 397.875 177.55 397.875 186.5C397.875 186.9 397.55 187.225 397.15 187.225L393.925 187.225C393.525 187.225 393.2 186.9 393.2 186.5L393.2 179C393.186 178.213 393.813 177.564 394.6 177.55 394.616 177.55 394.633 177.55 394.65 177.55Z" fill="#A3A3A3" fill-opacity="0.5"/><path d="M431.125 177.55 434.35 177.55C435.137 177.55 435.775 178.188 435.775 178.975L435.775 186.5C435.775 186.9 435.45 187.225 435.05 187.225L431.85 187.225C431.45 187.225 431.125 186.9 431.125 186.5L431.125 177.55 431.125 177.55Z" fill="#A3A3A3"/><path d="M431.125 177.55 434.35 177.55C435.137 177.55 435.775 178.188 435.775 178.975L435.775 186.5C435.775 186.9 435.45 187.225 435.05 187.225L431.85 187.225C431.45 187.225 431.125 186.9 431.125 186.5L431.125 177.55 431.125 177.55Z" fill="#A3A3A3" fill-opacity="0.5"/><path d="M435.775 178.95 435.775 182.075 435.775 182.075 393.275 182.075 393.275 182.075 393.275 178.95C393.275 178.163 393.913 177.525 394.7 177.525L434.35 177.525C435.137 177.525 435.775 178.163 435.775 178.95Z" fill="#949494"/><path d="M393.925 205.725 397.15 205.725C397.55 205.725 397.875 206.05 397.875 206.45L397.875 215.475 397.875 215.475 394.65 215.475C393.863 215.489 393.214 214.863 393.199 214.076 393.199 214.051 393.199 214.025 393.2 214L393.2 206.5C393.172 206.101 393.474 205.754 393.873 205.727 393.891 205.726 393.908 205.725 393.925 205.725Z" fill="#A3A3A3"/><path d="M393.925 205.725 397.15 205.725C397.55 205.725 397.875 206.05 397.875 206.45L397.875 215.475 397.875 215.475 394.65 215.475C393.863 215.489 393.214 214.863 393.199 214.076 393.199 214.051 393.199 214.025 393.2 214L393.2 206.5C393.172 206.101 393.474 205.754 393.873 205.727 393.891 205.726 393.908 205.725 393.925 205.725Z" fill="#A3A3A3" fill-opacity="0.5"/><path d="M431.85 205.725 435.075 205.725C435.475 205.725 435.8 206.05 435.8 206.45L435.8 213.95C435.8 214.737 435.162 215.375 434.375 215.375L431.125 215.375 431.125 215.375 431.125 206.5C431.097 206.101 431.399 205.754 431.798 205.727 431.815 205.726 431.833 205.725 431.85 205.725Z" fill="#A3A3A3"/><path d="M431.85 205.725 435.075 205.725C435.475 205.725 435.8 206.05 435.8 206.45L435.8 213.95C435.8 214.737 435.162 215.375 434.375 215.375L431.125 215.375 431.125 215.375 431.125 206.5C431.097 206.101 431.399 205.754 431.798 205.727 431.815 205.726 431.833 205.725 431.85 205.725Z" fill="#A3A3A3" fill-opacity="0.5"/><path d="M393.2 214.05 393.2 210.925 393.2 210.925 435.7 210.925 435.7 210.925 435.7 214.05C435.7 214.837 435.062 215.475 434.275 215.475L394.625 215.475C393.838 215.475 393.2 214.837 393.2 214.05Z" fill="#949494"/><path d="M429.275 196.1 424.725 191.5C424.649 191.402 424.508 191.383 424.409 191.459 424.344 191.51 424.311 191.593 424.325 191.675L424.325 194.5C424.34 194.623 424.252 194.735 424.128 194.75 424.111 194.752 424.093 194.752 424.075 194.75L410.975 194.75C410.479 194.105 409.713 193.727 408.9 193.725 407.388 193.58 406.045 194.689 405.901 196.201 405.756 197.712 406.864 199.055 408.376 199.2 408.55 199.217 408.726 199.217 408.9 199.2 409.724 199.189 410.497 198.802 411 198.15L424.075 198.15C424.198 198.136 424.31 198.225 424.324 198.349 424.325 198.357 424.325 198.366 424.325 198.375L424.325 201.15C424.32 201.274 424.417 201.379 424.541 201.384 424.612 201.386 424.68 201.355 424.725 201.3L429.275 196.775C429.45 196.584 429.45 196.291 429.275 196.1Z" fill="#5EA0EF"/><path d="M420.875 187.975 416.325 183.45C416.249 183.352 416.108 183.333 416.009 183.409 415.944 183.46 415.911 183.543 415.925 183.625L415.925 186.5C415.939 186.623 415.85 186.735 415.726 186.749 415.718 186.75 415.709 186.75 415.7 186.75L407.5 186.75C406.994 186.104 406.22 185.727 405.4 185.725 403.882 185.694 402.626 186.9 402.595 188.419 402.564 189.937 403.77 191.193 405.289 191.224 406.162 191.242 406.993 190.843 407.525 190.15L415.7 190.15C415.824 190.15 415.925 190.251 415.925 190.375L415.925 193.025C415.92 193.149 416.017 193.254 416.141 193.259 416.212 193.261 416.28 193.23 416.325 193.175L420.875 188.65C421.05 188.459 421.05 188.166 420.875 187.975Z" fill="url(#fill18)"/><path d="M420.875 204.375 416.325 199.85C416.249 199.752 416.108 199.733 416.009 199.809 415.944 199.86 415.911 199.943 415.925 200.025L415.925 202.775C415.926 202.904 415.828 203.012 415.7 203.025L407.5 203.025C406.994 202.379 406.22 202.002 405.4 202 403.881 202.002 402.652 203.235 402.654 204.754 402.656 206.272 403.889 207.502 405.407 207.5 406.227 207.499 407.003 207.132 407.525 206.5L415.7 206.5C415.824 206.5 415.925 206.601 415.925 206.725L415.925 209.5C415.92 209.624 416.017 209.729 416.141 209.734 416.212 209.736 416.28 209.705 416.325 209.65L420.875 205.125C421.082 204.942 421.102 204.626 420.919 204.419 420.905 204.404 420.891 204.389 420.875 204.375Z" fill="url(#fill19)"/></g></g></g></g></svg>